M48
METRIC,LZ,000.000
;FILE_FORMAT=3:3
;TYPE=PLATED
;Layer: PTH_Through_Via
;EasyEDA v6.5.20, 2023-08-22 23:15:59
;a67cddfb3fce44daa9051d46cbbcc19f,10
;Gerber Generator version 0.2
;Holesize 1 = 0.305 mm
T01C0.305
;Holesize 2 = 0.306 mm
T02C0.306
%
G05
G90
T01
X040000Y005000
X043000Y005000
X042000Y005000
X041000Y005000
X008000Y005001
X009000Y005001
X010000Y005001
X007000Y005001
X008000Y045001
X009000Y045001
X010000Y045001
X007000Y045001
X041000Y045000
X042000Y045000
X043000Y045000
X040000Y045000
X010000Y038000
X010000Y033000
X012000Y028000
X010000Y018000
X010000Y013000
X010000Y008000
X040000Y037000
X040000Y042000
X040000Y032000
X040000Y022000
X040000Y018000
X040000Y012000
X043000Y030000
X043000Y029000
X043000Y028000
X043000Y027000
X052500Y032500
X052500Y017500
X053500Y017500
X053500Y032500
T02
X001072Y043928
X001072Y038928
X001072Y033928
X001072Y028928
X001072Y023928
X001072Y018928
X001072Y013928
X001072Y008928
X001072Y003928
X006072Y048928
X006072Y003928
X011072Y048928
X011072Y043928
X011072Y038928
X011072Y018928
X011072Y008928
X011500Y002000
X016072Y048928
X016072Y043928
X016072Y023928
X016500Y002000
X021072Y048928
X021072Y043928
X021072Y023928
X021500Y002000
X026072Y048928
X026072Y043928
X026072Y023928
X026500Y002000
X031072Y048928
X031072Y043928
X031072Y038928
X031072Y028928
X031072Y023928
X031072Y018928
X031500Y002000
X036072Y048928
X036072Y043928
X036072Y038928
X036072Y028928
X036072Y023928
X036072Y018928
X036072Y008928
X036072Y003928
X041072Y048928
X041072Y023928
X046072Y048928
X046072Y043928
X046072Y038928
X046072Y008928
X046072Y003928
M30
