G04 Layer: TopLayer*
G04 EasyEDA v6.5.20, 2023-08-22 23:15:59*
G04 a67cddfb3fce44daa9051d46cbbcc19f,10*
G04 Gerber Generator version 0.2*
G04 Scale: 100 percent, Rotated: No, Reflected: No *
G04 Dimensions in millimeters *
G04 leading zeros omitted , absolute positions ,4 integer and 5 decimal *
%FSLAX45Y45*%
%MOMM*%

%AMMACRO1*21,1,$1,$2,0,0,$3*%
%ADD10C,0.5000*%
%ADD11C,1.0000*%
%ADD12MACRO1,0.864X0.8065X90.0000*%
%ADD13MACRO1,0.864X0.8065X-90.0000*%
%ADD14R,0.8999X1.0000*%
%ADD15R,1.2500X0.7000*%
%ADD16C,0.6096*%
%ADD17C,0.6100*%
%ADD18C,0.0127*%

%LPD*%
G36*
X200863Y25908D02*
G01*
X182473Y26822D01*
X165557Y29362D01*
X148996Y33578D01*
X132943Y39370D01*
X117551Y46736D01*
X102920Y55575D01*
X89204Y65786D01*
X76606Y77266D01*
X65176Y89966D01*
X55016Y103682D01*
X46278Y118364D01*
X39014Y133858D01*
X33324Y149961D01*
X29209Y166522D01*
X26771Y183438D01*
X25908Y200863D01*
X25908Y4799126D01*
X26873Y4817516D01*
X29413Y4834432D01*
X33629Y4850993D01*
X39420Y4867046D01*
X46786Y4882438D01*
X55575Y4897069D01*
X65786Y4910785D01*
X77317Y4923383D01*
X90017Y4934813D01*
X103733Y4944973D01*
X118414Y4953711D01*
X133858Y4960975D01*
X149961Y4966665D01*
X166573Y4970780D01*
X183438Y4973218D01*
X200914Y4974082D01*
X4799126Y4974082D01*
X4817567Y4973116D01*
X4834432Y4970576D01*
X4850993Y4966360D01*
X4867046Y4960569D01*
X4882489Y4953203D01*
X4897120Y4944414D01*
X4910785Y4934204D01*
X4923434Y4922672D01*
X4934864Y4909972D01*
X4944973Y4896256D01*
X4953711Y4881575D01*
X4960975Y4866132D01*
X4966716Y4850028D01*
X4970780Y4833416D01*
X4973269Y4816551D01*
X4974082Y4799126D01*
X4974082Y3700627D01*
X4974844Y3694125D01*
X4976977Y3688587D01*
X4980533Y3683457D01*
X4983530Y3680409D01*
X4987086Y3677818D01*
X4992624Y3675278D01*
X5000142Y3674059D01*
X5749137Y3674059D01*
X5767527Y3673144D01*
X5784443Y3670604D01*
X5801004Y3666388D01*
X5817057Y3660597D01*
X5832449Y3653231D01*
X5847080Y3644442D01*
X5860796Y3634232D01*
X5873394Y3622700D01*
X5884824Y3610000D01*
X5894984Y3596284D01*
X5903722Y3581603D01*
X5910986Y3566109D01*
X5916676Y3550056D01*
X5920790Y3533444D01*
X5923229Y3516579D01*
X5924092Y3499154D01*
X5924092Y1500835D01*
X5923127Y1482445D01*
X5920587Y1465580D01*
X5916371Y1449019D01*
X5910580Y1432915D01*
X5903264Y1417523D01*
X5894425Y1402892D01*
X5884214Y1389227D01*
X5872683Y1376578D01*
X5860034Y1365148D01*
X5846267Y1354988D01*
X5831586Y1346250D01*
X5816142Y1339037D01*
X5800039Y1333296D01*
X5783427Y1329182D01*
X5766562Y1326743D01*
X5749137Y1325880D01*
X5000599Y1325880D01*
X4994097Y1325118D01*
X4988560Y1323035D01*
X4983480Y1319479D01*
X4980533Y1316532D01*
X4976977Y1311351D01*
X4974894Y1305814D01*
X4974082Y1299362D01*
X4974082Y200812D01*
X4973167Y182422D01*
X4970627Y165557D01*
X4966411Y148996D01*
X4960620Y132943D01*
X4953254Y117500D01*
X4944414Y102870D01*
X4934204Y89204D01*
X4922723Y76555D01*
X4910023Y65125D01*
X4896307Y55016D01*
X4881626Y46278D01*
X4866132Y39014D01*
X4850028Y33274D01*
X4833467Y29209D01*
X4816551Y26720D01*
X4799126Y25908D01*
G37*

%LPC*%
G36*
X4038092Y4134104D02*
G01*
X4161942Y4134104D01*
X4168241Y4134815D01*
X4173728Y4136694D01*
X4178604Y4139793D01*
X4182719Y4143857D01*
X4185767Y4148785D01*
X4187698Y4154220D01*
X4188409Y4160570D01*
X4188409Y4229404D01*
X4187698Y4235754D01*
X4185767Y4241190D01*
X4182719Y4246118D01*
X4178604Y4250182D01*
X4173728Y4253280D01*
X4168241Y4255211D01*
X4161942Y4255922D01*
X4038092Y4255922D01*
X4031742Y4255211D01*
X4025646Y4253077D01*
X4022699Y4252518D01*
X4019651Y4252823D01*
X4009796Y4255465D01*
X3999992Y4256328D01*
X3990187Y4255465D01*
X3980738Y4252925D01*
X3971798Y4248810D01*
X3963771Y4243171D01*
X3956812Y4236212D01*
X3951173Y4228185D01*
X3947058Y4219244D01*
X3944518Y4209796D01*
X3943654Y4199991D01*
X3944518Y4190187D01*
X3947058Y4180738D01*
X3951173Y4171797D01*
X3956812Y4163771D01*
X3963771Y4156811D01*
X3971798Y4151172D01*
X3980738Y4147058D01*
X3990187Y4144518D01*
X3999992Y4143654D01*
X4013250Y4144721D01*
X4016552Y4143806D01*
X4019346Y4141825D01*
X4021378Y4139793D01*
X4026306Y4136694D01*
X4031742Y4134815D01*
G37*
G36*
X999998Y743661D02*
G01*
X1009802Y744524D01*
X1019251Y747064D01*
X1028192Y751179D01*
X1036218Y756818D01*
X1043178Y763778D01*
X1048816Y771804D01*
X1052931Y780745D01*
X1055471Y790194D01*
X1056335Y799998D01*
X1055471Y809802D01*
X1052931Y819251D01*
X1048816Y828192D01*
X1043178Y836218D01*
X1036218Y843178D01*
X1028192Y848817D01*
X1019251Y852932D01*
X1009802Y855471D01*
X999998Y856335D01*
X986739Y855268D01*
X983437Y856183D01*
X980643Y858164D01*
X978611Y860196D01*
X973683Y863295D01*
X968248Y865174D01*
X961898Y865886D01*
X838047Y865886D01*
X831748Y865174D01*
X826262Y863295D01*
X821385Y860196D01*
X817270Y856132D01*
X814222Y851204D01*
X812292Y845769D01*
X811580Y839419D01*
X811580Y770585D01*
X812292Y764235D01*
X814222Y758799D01*
X817270Y753872D01*
X821385Y749808D01*
X826262Y746709D01*
X831748Y744778D01*
X838047Y744067D01*
X961898Y744067D01*
X968248Y744778D01*
X974344Y746912D01*
X977290Y747471D01*
X980338Y747166D01*
X990193Y744524D01*
G37*
G36*
X1640586Y924102D02*
G01*
X1729435Y924102D01*
X1735734Y924814D01*
X1741220Y926693D01*
X1746097Y929792D01*
X1750212Y933907D01*
X1753260Y938784D01*
X1754479Y942289D01*
X1756613Y945845D01*
X1760016Y948232D01*
X1764080Y949096D01*
X2103221Y949096D01*
X2106625Y948537D01*
X2109571Y946861D01*
X2111857Y944321D01*
X2114143Y940663D01*
X2118258Y936599D01*
X2123135Y933500D01*
X2128621Y931621D01*
X2134920Y930910D01*
X2214422Y930910D01*
X2220722Y931621D01*
X2226208Y933500D01*
X2231085Y936599D01*
X2235200Y940663D01*
X2238298Y945591D01*
X2240381Y951636D01*
X2242566Y955192D01*
X2245918Y957630D01*
X2249982Y958443D01*
X2254046Y957630D01*
X2257450Y955192D01*
X2259584Y951636D01*
X2261717Y945591D01*
X2264765Y940663D01*
X2268880Y936599D01*
X2273757Y933500D01*
X2279243Y931621D01*
X2285542Y930910D01*
X2298801Y930910D01*
X2298801Y972058D01*
X2251049Y972058D01*
X2247188Y972819D01*
X2243886Y975004D01*
X2241702Y978306D01*
X2240889Y982218D01*
X2240889Y1017778D01*
X2241702Y1021689D01*
X2243886Y1024991D01*
X2247188Y1027176D01*
X2251049Y1027937D01*
X2298801Y1027937D01*
X2298801Y1069086D01*
X2285542Y1069086D01*
X2279243Y1068374D01*
X2273757Y1066495D01*
X2268880Y1063396D01*
X2264765Y1059332D01*
X2261717Y1054404D01*
X2259584Y1048359D01*
X2257450Y1044803D01*
X2254046Y1042365D01*
X2249982Y1041552D01*
X2245918Y1042365D01*
X2242566Y1044803D01*
X2240381Y1048359D01*
X2238298Y1054404D01*
X2235200Y1059332D01*
X2231085Y1063396D01*
X2226208Y1066495D01*
X2220722Y1068374D01*
X2214422Y1069086D01*
X2134920Y1069086D01*
X2128621Y1068374D01*
X2123135Y1066495D01*
X2118258Y1063396D01*
X2114143Y1059332D01*
X2111857Y1055674D01*
X2109571Y1053134D01*
X2106625Y1051458D01*
X2103221Y1050899D01*
X1764080Y1050899D01*
X1760016Y1051763D01*
X1756613Y1054150D01*
X1754479Y1057706D01*
X1753260Y1061212D01*
X1750212Y1066088D01*
X1746097Y1070203D01*
X1741220Y1073302D01*
X1735734Y1075182D01*
X1729435Y1075893D01*
X1640586Y1075893D01*
X1634236Y1075182D01*
X1628800Y1073302D01*
X1623872Y1070203D01*
X1619808Y1066088D01*
X1616710Y1061212D01*
X1614779Y1055725D01*
X1614068Y1049426D01*
X1614068Y950569D01*
X1614779Y944270D01*
X1616710Y938784D01*
X1619808Y933907D01*
X1623872Y929792D01*
X1628800Y926693D01*
X1634236Y924814D01*
G37*
G36*
X3270554Y924102D02*
G01*
X3359404Y924102D01*
X3365754Y924814D01*
X3371189Y926693D01*
X3376117Y929792D01*
X3380181Y933907D01*
X3383279Y938784D01*
X3385210Y944270D01*
X3385921Y950569D01*
X3385921Y1049426D01*
X3385210Y1055725D01*
X3383279Y1061212D01*
X3380181Y1066088D01*
X3376117Y1070203D01*
X3371189Y1073302D01*
X3365754Y1075182D01*
X3359404Y1075893D01*
X3270554Y1075893D01*
X3264255Y1075182D01*
X3258769Y1073302D01*
X3253892Y1070203D01*
X3249777Y1066088D01*
X3246729Y1061212D01*
X3245510Y1057706D01*
X3243376Y1054150D01*
X3239973Y1051763D01*
X3235909Y1050899D01*
X2896768Y1050899D01*
X2893364Y1051458D01*
X2890418Y1053134D01*
X2888132Y1055674D01*
X2885846Y1059332D01*
X2881731Y1063396D01*
X2876854Y1066495D01*
X2871368Y1068374D01*
X2865069Y1069086D01*
X2785567Y1069086D01*
X2779268Y1068374D01*
X2773781Y1066495D01*
X2768904Y1063396D01*
X2764790Y1059332D01*
X2761691Y1054404D01*
X2759608Y1048359D01*
X2757424Y1044803D01*
X2754071Y1042365D01*
X2750007Y1041552D01*
X2745943Y1042365D01*
X2742539Y1044803D01*
X2740406Y1048359D01*
X2738272Y1054404D01*
X2735224Y1059332D01*
X2731109Y1063396D01*
X2726232Y1066495D01*
X2720746Y1068374D01*
X2714447Y1069086D01*
X2701188Y1069086D01*
X2701188Y1027937D01*
X2748940Y1027937D01*
X2752801Y1027176D01*
X2756103Y1024991D01*
X2758338Y1021689D01*
X2759100Y1017778D01*
X2759100Y982218D01*
X2758338Y978306D01*
X2756103Y975004D01*
X2752801Y972819D01*
X2748940Y972058D01*
X2701188Y972058D01*
X2701188Y930910D01*
X2714447Y930910D01*
X2720746Y931621D01*
X2726232Y933500D01*
X2731109Y936599D01*
X2735224Y940663D01*
X2738272Y945591D01*
X2740406Y951636D01*
X2742539Y955192D01*
X2745943Y957630D01*
X2750007Y958443D01*
X2754071Y957630D01*
X2757424Y955192D01*
X2759608Y951636D01*
X2761691Y945591D01*
X2764790Y940663D01*
X2768904Y936599D01*
X2773781Y933500D01*
X2779268Y931621D01*
X2785567Y930910D01*
X2865069Y930910D01*
X2871368Y931621D01*
X2876854Y933500D01*
X2881731Y936599D01*
X2885846Y940663D01*
X2888132Y944321D01*
X2890418Y946861D01*
X2893364Y948537D01*
X2896768Y949096D01*
X3235909Y949096D01*
X3239973Y948232D01*
X3243376Y945845D01*
X3245510Y942289D01*
X3246729Y938784D01*
X3249777Y933907D01*
X3253892Y929792D01*
X3258769Y926693D01*
X3264255Y924814D01*
G37*
G36*
X1470558Y924102D02*
G01*
X1559407Y924102D01*
X1565757Y924814D01*
X1571193Y926693D01*
X1576120Y929792D01*
X1580184Y933907D01*
X1583283Y938784D01*
X1585163Y944270D01*
X1585874Y950569D01*
X1585874Y1049426D01*
X1585163Y1055725D01*
X1583283Y1061212D01*
X1580184Y1066088D01*
X1576120Y1070203D01*
X1571193Y1073302D01*
X1565757Y1075182D01*
X1559407Y1075893D01*
X1470558Y1075893D01*
X1464259Y1075182D01*
X1458772Y1073302D01*
X1453896Y1070203D01*
X1449781Y1066088D01*
X1446682Y1061212D01*
X1445463Y1057706D01*
X1443329Y1054150D01*
X1439976Y1051763D01*
X1435912Y1050899D01*
X980440Y1050899D01*
X977595Y1051306D01*
X973683Y1053287D01*
X968248Y1055217D01*
X961898Y1055928D01*
X838047Y1055928D01*
X831748Y1055217D01*
X826262Y1053287D01*
X821385Y1050188D01*
X817270Y1046124D01*
X814222Y1041196D01*
X812292Y1035761D01*
X811580Y1029411D01*
X811580Y960577D01*
X812292Y954227D01*
X814222Y948791D01*
X817270Y943864D01*
X821385Y939800D01*
X826262Y936701D01*
X831748Y934821D01*
X838047Y934110D01*
X961898Y934110D01*
X968248Y934821D01*
X973683Y936701D01*
X978611Y939800D01*
X985266Y946861D01*
X988212Y948537D01*
X991565Y949096D01*
X1435912Y949096D01*
X1439976Y948232D01*
X1443329Y945845D01*
X1445463Y942289D01*
X1446682Y938784D01*
X1449781Y933907D01*
X1453896Y929792D01*
X1458772Y926693D01*
X1464259Y924814D01*
G37*
G36*
X3440582Y924102D02*
G01*
X3529431Y924102D01*
X3535730Y924814D01*
X3541217Y926693D01*
X3546094Y929792D01*
X3550208Y933907D01*
X3553307Y938784D01*
X3554526Y942289D01*
X3556660Y945845D01*
X3560013Y948232D01*
X3564077Y949096D01*
X4019550Y949096D01*
X4022394Y948690D01*
X4026306Y946708D01*
X4031742Y944778D01*
X4038092Y944067D01*
X4161942Y944067D01*
X4168241Y944778D01*
X4173728Y946708D01*
X4178604Y949807D01*
X4182719Y953871D01*
X4185767Y958799D01*
X4187698Y964234D01*
X4188409Y970584D01*
X4188409Y1039418D01*
X4187698Y1045768D01*
X4185767Y1051204D01*
X4182719Y1056132D01*
X4178604Y1060196D01*
X4173728Y1063294D01*
X4168241Y1065174D01*
X4161942Y1065885D01*
X4038092Y1065885D01*
X4031742Y1065174D01*
X4026306Y1063294D01*
X4021378Y1060196D01*
X4014724Y1053134D01*
X4011777Y1051458D01*
X4008424Y1050899D01*
X3564077Y1050899D01*
X3560013Y1051763D01*
X3556660Y1054150D01*
X3554526Y1057706D01*
X3553307Y1061212D01*
X3550208Y1066088D01*
X3546094Y1070203D01*
X3541217Y1073302D01*
X3535730Y1075182D01*
X3529431Y1075893D01*
X3440582Y1075893D01*
X3434232Y1075182D01*
X3428796Y1073302D01*
X3423869Y1070203D01*
X3419805Y1066088D01*
X3416706Y1061212D01*
X3414826Y1055725D01*
X3414115Y1049426D01*
X3414115Y950569D01*
X3414826Y944270D01*
X3416706Y938784D01*
X3419805Y933907D01*
X3423869Y929792D01*
X3428796Y926693D01*
X3434232Y924814D01*
G37*
G36*
X2351836Y930910D02*
G01*
X2365095Y930910D01*
X2371394Y931621D01*
X2376881Y933500D01*
X2381758Y936599D01*
X2385872Y940663D01*
X2388920Y945591D01*
X2390851Y951026D01*
X2391562Y957376D01*
X2391562Y972058D01*
X2351836Y972058D01*
G37*
G36*
X2634894Y930910D02*
G01*
X2648153Y930910D01*
X2648153Y972058D01*
X2608427Y972058D01*
X2608427Y957376D01*
X2609138Y951026D01*
X2611069Y945591D01*
X2614117Y940663D01*
X2618232Y936599D01*
X2623108Y933500D01*
X2628595Y931621D01*
G37*
G36*
X2351836Y1027937D02*
G01*
X2391562Y1027937D01*
X2391562Y1042619D01*
X2390851Y1048969D01*
X2388920Y1054404D01*
X2385872Y1059332D01*
X2381758Y1063396D01*
X2376881Y1066495D01*
X2371394Y1068374D01*
X2365095Y1069086D01*
X2351836Y1069086D01*
G37*
G36*
X2608427Y1027937D02*
G01*
X2648153Y1027937D01*
X2648153Y1069086D01*
X2634894Y1069086D01*
X2628595Y1068374D01*
X2623108Y1066495D01*
X2618232Y1063396D01*
X2614117Y1059332D01*
X2611069Y1054404D01*
X2609138Y1048969D01*
X2608427Y1042619D01*
G37*
G36*
X4038092Y1134110D02*
G01*
X4161942Y1134110D01*
X4168241Y1134821D01*
X4173728Y1136700D01*
X4178604Y1139799D01*
X4182719Y1143863D01*
X4185767Y1148791D01*
X4187698Y1154226D01*
X4188409Y1160576D01*
X4188409Y1229410D01*
X4187698Y1235760D01*
X4185767Y1241196D01*
X4182719Y1246124D01*
X4178604Y1250188D01*
X4173728Y1253286D01*
X4168241Y1255217D01*
X4161942Y1255928D01*
X4038092Y1255928D01*
X4031742Y1255217D01*
X4025646Y1253083D01*
X4022699Y1252524D01*
X4019651Y1252829D01*
X4009796Y1255471D01*
X3999992Y1256334D01*
X3990187Y1255471D01*
X3980738Y1252931D01*
X3971798Y1248816D01*
X3963771Y1243177D01*
X3956812Y1236218D01*
X3951173Y1228191D01*
X3947058Y1219250D01*
X3944518Y1209802D01*
X3943654Y1199997D01*
X3944518Y1190193D01*
X3947058Y1180744D01*
X3951173Y1171803D01*
X3956812Y1163777D01*
X3963771Y1156817D01*
X3971798Y1151178D01*
X3980738Y1147064D01*
X3990187Y1144524D01*
X3999992Y1143660D01*
X4013250Y1144727D01*
X4016552Y1143812D01*
X4019346Y1141831D01*
X4021378Y1139799D01*
X4026306Y1136700D01*
X4031742Y1134821D01*
G37*
G36*
X999998Y1243634D02*
G01*
X1009802Y1244498D01*
X1019251Y1247038D01*
X1028192Y1251204D01*
X1036218Y1256842D01*
X1043178Y1263751D01*
X1048816Y1271828D01*
X1052931Y1280718D01*
X1055471Y1290218D01*
X1056335Y1299972D01*
X1055471Y1309776D01*
X1052931Y1319276D01*
X1048816Y1328166D01*
X1043178Y1336243D01*
X1036218Y1343152D01*
X1028192Y1348790D01*
X1019251Y1352956D01*
X1009802Y1355496D01*
X999998Y1356360D01*
X986739Y1355242D01*
X983437Y1356207D01*
X980643Y1358188D01*
X978611Y1360220D01*
X973683Y1363268D01*
X968248Y1365199D01*
X961898Y1365910D01*
X838047Y1365910D01*
X831748Y1365199D01*
X826262Y1363268D01*
X821385Y1360220D01*
X817270Y1356106D01*
X814222Y1351229D01*
X812292Y1345742D01*
X811580Y1339443D01*
X811580Y1270558D01*
X812292Y1264259D01*
X814222Y1258773D01*
X817270Y1253896D01*
X821385Y1249781D01*
X826262Y1246733D01*
X831748Y1244803D01*
X838047Y1244092D01*
X961898Y1244092D01*
X968248Y1244803D01*
X974344Y1246936D01*
X977290Y1247495D01*
X980338Y1247140D01*
X990193Y1244498D01*
G37*
G36*
X1640586Y1424076D02*
G01*
X1729435Y1424076D01*
X1735734Y1424787D01*
X1741220Y1426718D01*
X1746097Y1429816D01*
X1750212Y1433880D01*
X1753260Y1438808D01*
X1754479Y1442262D01*
X1756613Y1445818D01*
X1760016Y1448257D01*
X1764080Y1449070D01*
X2103221Y1449070D01*
X2106625Y1448511D01*
X2109571Y1446885D01*
X2111857Y1444345D01*
X2114143Y1440688D01*
X2118258Y1436573D01*
X2123135Y1433525D01*
X2128621Y1431594D01*
X2134920Y1430883D01*
X2214422Y1430883D01*
X2220722Y1431594D01*
X2226208Y1433525D01*
X2231085Y1436573D01*
X2235200Y1440688D01*
X2238298Y1445564D01*
X2240381Y1451660D01*
X2242566Y1455216D01*
X2245918Y1457604D01*
X2249982Y1458468D01*
X2254046Y1457604D01*
X2257450Y1455216D01*
X2259584Y1451660D01*
X2261717Y1445564D01*
X2264765Y1440688D01*
X2268880Y1436573D01*
X2273757Y1433525D01*
X2279243Y1431594D01*
X2285542Y1430883D01*
X2298801Y1430883D01*
X2298801Y1472031D01*
X2251049Y1472031D01*
X2247188Y1472844D01*
X2243886Y1475028D01*
X2241702Y1478330D01*
X2240889Y1482191D01*
X2240889Y1517802D01*
X2241702Y1521663D01*
X2243886Y1524965D01*
X2247188Y1527149D01*
X2251049Y1527962D01*
X2298801Y1527962D01*
X2298801Y1569110D01*
X2285542Y1569110D01*
X2279243Y1568399D01*
X2273757Y1566468D01*
X2268880Y1563420D01*
X2264765Y1559306D01*
X2261717Y1554429D01*
X2259584Y1548333D01*
X2257450Y1544777D01*
X2254046Y1542389D01*
X2249982Y1541526D01*
X2245918Y1542389D01*
X2242566Y1544777D01*
X2240381Y1548333D01*
X2238298Y1554429D01*
X2235200Y1559306D01*
X2231085Y1563420D01*
X2226208Y1566468D01*
X2220722Y1568399D01*
X2214422Y1569110D01*
X2134920Y1569110D01*
X2128621Y1568399D01*
X2123135Y1566468D01*
X2118258Y1563420D01*
X2114143Y1559306D01*
X2111857Y1555648D01*
X2109571Y1553108D01*
X2106625Y1551482D01*
X2103221Y1550924D01*
X1764080Y1550924D01*
X1760016Y1551736D01*
X1756613Y1554175D01*
X1754479Y1557731D01*
X1753260Y1561185D01*
X1750212Y1566113D01*
X1746097Y1570177D01*
X1741220Y1573276D01*
X1735734Y1575206D01*
X1729435Y1575917D01*
X1640586Y1575917D01*
X1634236Y1575206D01*
X1628800Y1573276D01*
X1623872Y1570177D01*
X1619808Y1566113D01*
X1616710Y1561185D01*
X1614779Y1555750D01*
X1614068Y1549450D01*
X1614068Y1450543D01*
X1614779Y1444244D01*
X1616710Y1438808D01*
X1619808Y1433880D01*
X1623872Y1429816D01*
X1628800Y1426718D01*
X1634236Y1424787D01*
G37*
G36*
X3270554Y1424076D02*
G01*
X3359404Y1424076D01*
X3365754Y1424787D01*
X3371189Y1426718D01*
X3376117Y1429816D01*
X3380181Y1433880D01*
X3383279Y1438808D01*
X3385210Y1444244D01*
X3385921Y1450543D01*
X3385921Y1549450D01*
X3385210Y1555750D01*
X3383279Y1561185D01*
X3380181Y1566113D01*
X3376117Y1570177D01*
X3371189Y1573276D01*
X3365754Y1575206D01*
X3359404Y1575917D01*
X3270554Y1575917D01*
X3264255Y1575206D01*
X3258769Y1573276D01*
X3253892Y1570177D01*
X3249777Y1566113D01*
X3246729Y1561185D01*
X3245510Y1557731D01*
X3243376Y1554175D01*
X3239973Y1551736D01*
X3235909Y1550924D01*
X2896768Y1550924D01*
X2893364Y1551482D01*
X2890418Y1553108D01*
X2888132Y1555648D01*
X2885846Y1559306D01*
X2881731Y1563420D01*
X2876854Y1566468D01*
X2871368Y1568399D01*
X2865069Y1569110D01*
X2785567Y1569110D01*
X2779268Y1568399D01*
X2773781Y1566468D01*
X2768904Y1563420D01*
X2764790Y1559306D01*
X2761691Y1554429D01*
X2759608Y1548333D01*
X2757424Y1544777D01*
X2754071Y1542389D01*
X2750007Y1541526D01*
X2745943Y1542389D01*
X2742539Y1544777D01*
X2740406Y1548333D01*
X2738272Y1554429D01*
X2735224Y1559306D01*
X2731109Y1563420D01*
X2726232Y1566468D01*
X2720746Y1568399D01*
X2714447Y1569110D01*
X2701188Y1569110D01*
X2701188Y1527962D01*
X2748940Y1527962D01*
X2752801Y1527149D01*
X2756103Y1524965D01*
X2758338Y1521663D01*
X2759100Y1517802D01*
X2759100Y1482191D01*
X2758338Y1478330D01*
X2756103Y1475028D01*
X2752801Y1472844D01*
X2748940Y1472031D01*
X2701188Y1472031D01*
X2701188Y1430883D01*
X2714447Y1430883D01*
X2720746Y1431594D01*
X2726232Y1433525D01*
X2731109Y1436573D01*
X2735224Y1440688D01*
X2738272Y1445564D01*
X2740406Y1451660D01*
X2742539Y1455216D01*
X2745943Y1457604D01*
X2750007Y1458468D01*
X2754071Y1457604D01*
X2757424Y1455216D01*
X2759608Y1451660D01*
X2761691Y1445564D01*
X2764790Y1440688D01*
X2768904Y1436573D01*
X2773781Y1433525D01*
X2779268Y1431594D01*
X2785567Y1430883D01*
X2865069Y1430883D01*
X2871368Y1431594D01*
X2876854Y1433525D01*
X2881731Y1436573D01*
X2885846Y1440688D01*
X2888132Y1444345D01*
X2890418Y1446885D01*
X2893364Y1448511D01*
X2896768Y1449070D01*
X3235909Y1449070D01*
X3239973Y1448257D01*
X3243376Y1445818D01*
X3245510Y1442262D01*
X3246729Y1438808D01*
X3249777Y1433880D01*
X3253892Y1429816D01*
X3258769Y1426718D01*
X3264255Y1424787D01*
G37*
G36*
X1470558Y1424076D02*
G01*
X1559407Y1424076D01*
X1565757Y1424787D01*
X1571193Y1426718D01*
X1576120Y1429816D01*
X1580184Y1433880D01*
X1583283Y1438808D01*
X1585163Y1444244D01*
X1585874Y1450543D01*
X1585874Y1549450D01*
X1585163Y1555750D01*
X1583283Y1561185D01*
X1580184Y1566113D01*
X1576120Y1570177D01*
X1571193Y1573276D01*
X1565757Y1575206D01*
X1559407Y1575917D01*
X1470558Y1575917D01*
X1464259Y1575206D01*
X1458772Y1573276D01*
X1453896Y1570177D01*
X1449781Y1566113D01*
X1446682Y1561185D01*
X1443634Y1551381D01*
X1441399Y1548485D01*
X1438249Y1546555D01*
X1434592Y1545894D01*
X987145Y1545894D01*
X983234Y1546656D01*
X979932Y1548892D01*
X978611Y1550212D01*
X973683Y1553260D01*
X968248Y1555191D01*
X961898Y1555902D01*
X838047Y1555902D01*
X831748Y1555191D01*
X826262Y1553260D01*
X821385Y1550212D01*
X817270Y1546098D01*
X814222Y1541221D01*
X812292Y1535734D01*
X811580Y1529435D01*
X811580Y1460550D01*
X812292Y1454251D01*
X814222Y1448765D01*
X817270Y1443888D01*
X821385Y1439773D01*
X826262Y1436725D01*
X831748Y1434795D01*
X838047Y1434084D01*
X961898Y1434084D01*
X968248Y1434795D01*
X973683Y1436725D01*
X978611Y1439773D01*
X979932Y1441094D01*
X983234Y1443329D01*
X987094Y1444091D01*
X1437741Y1444091D01*
X1441094Y1443532D01*
X1444091Y1441856D01*
X1446377Y1439316D01*
X1449781Y1433880D01*
X1453896Y1429816D01*
X1458772Y1426718D01*
X1464259Y1424787D01*
G37*
G36*
X3440582Y1424076D02*
G01*
X3529431Y1424076D01*
X3535730Y1424787D01*
X3541217Y1426718D01*
X3546094Y1429816D01*
X3550208Y1433880D01*
X3553307Y1438808D01*
X3554526Y1442262D01*
X3556660Y1445818D01*
X3560013Y1448257D01*
X3564077Y1449070D01*
X4019550Y1449070D01*
X4022394Y1448714D01*
X4026306Y1446733D01*
X4031742Y1444802D01*
X4038092Y1444091D01*
X4161942Y1444091D01*
X4168241Y1444802D01*
X4173728Y1446733D01*
X4178604Y1449781D01*
X4182719Y1453896D01*
X4185767Y1458772D01*
X4187698Y1464259D01*
X4188409Y1470558D01*
X4188409Y1539443D01*
X4187698Y1545742D01*
X4185767Y1551228D01*
X4182719Y1556105D01*
X4178604Y1560220D01*
X4173728Y1563268D01*
X4168241Y1565198D01*
X4161942Y1565910D01*
X4038092Y1565910D01*
X4031742Y1565198D01*
X4026306Y1563268D01*
X4021378Y1560220D01*
X4014724Y1553108D01*
X4011777Y1551482D01*
X4008424Y1550924D01*
X3564077Y1550924D01*
X3560013Y1551736D01*
X3556660Y1554175D01*
X3554526Y1557731D01*
X3553307Y1561185D01*
X3550208Y1566113D01*
X3546094Y1570177D01*
X3541217Y1573276D01*
X3535730Y1575206D01*
X3529431Y1575917D01*
X3440582Y1575917D01*
X3434232Y1575206D01*
X3428796Y1573276D01*
X3423869Y1570177D01*
X3419805Y1566113D01*
X3416706Y1561185D01*
X3414826Y1555750D01*
X3414115Y1549450D01*
X3414115Y1450543D01*
X3414826Y1444244D01*
X3416706Y1438808D01*
X3419805Y1433880D01*
X3423869Y1429816D01*
X3428796Y1426718D01*
X3434232Y1424787D01*
G37*
G36*
X2351836Y1430883D02*
G01*
X2365095Y1430883D01*
X2371394Y1431594D01*
X2376881Y1433525D01*
X2381758Y1436573D01*
X2385872Y1440688D01*
X2388920Y1445564D01*
X2390851Y1451051D01*
X2391562Y1457350D01*
X2391562Y1472031D01*
X2351836Y1472031D01*
G37*
G36*
X2634894Y1430883D02*
G01*
X2648153Y1430883D01*
X2648153Y1472031D01*
X2608427Y1472031D01*
X2608427Y1457350D01*
X2609138Y1451051D01*
X2611069Y1445564D01*
X2614117Y1440688D01*
X2618232Y1436573D01*
X2623108Y1433525D01*
X2628595Y1431594D01*
G37*
G36*
X2351836Y1527962D02*
G01*
X2391562Y1527962D01*
X2391562Y1542643D01*
X2390851Y1548942D01*
X2388920Y1554429D01*
X2385872Y1559306D01*
X2381758Y1563420D01*
X2376881Y1566468D01*
X2371394Y1568399D01*
X2365095Y1569110D01*
X2351836Y1569110D01*
G37*
G36*
X2608427Y1527962D02*
G01*
X2648153Y1527962D01*
X2648153Y1569110D01*
X2634894Y1569110D01*
X2628595Y1568399D01*
X2623108Y1566468D01*
X2618232Y1563420D01*
X2614117Y1559306D01*
X2611069Y1554429D01*
X2609138Y1548942D01*
X2608427Y1542643D01*
G37*
G36*
X4038092Y1634083D02*
G01*
X4161942Y1634083D01*
X4168241Y1634794D01*
X4173728Y1636725D01*
X4178604Y1639773D01*
X4182719Y1643888D01*
X4185767Y1648764D01*
X4187698Y1654251D01*
X4188409Y1660550D01*
X4188409Y1729435D01*
X4187698Y1735734D01*
X4185767Y1741220D01*
X4182719Y1746097D01*
X4178604Y1750212D01*
X4173728Y1753260D01*
X4168241Y1755190D01*
X4161942Y1755902D01*
X4115257Y1755902D01*
X4111396Y1756664D01*
X4108094Y1758899D01*
X4056786Y1810207D01*
X4055160Y1812289D01*
X4054144Y1814728D01*
X4052925Y1819249D01*
X4048810Y1828190D01*
X4043172Y1836216D01*
X4036212Y1843176D01*
X4028186Y1848815D01*
X4019245Y1852930D01*
X4009796Y1855470D01*
X3999992Y1856333D01*
X3990187Y1855470D01*
X3980738Y1852930D01*
X3971798Y1848815D01*
X3963771Y1843176D01*
X3956812Y1836216D01*
X3951173Y1828190D01*
X3947058Y1819249D01*
X3944518Y1809800D01*
X3943654Y1799996D01*
X3944518Y1790192D01*
X3947058Y1780743D01*
X3951173Y1771802D01*
X3956812Y1763775D01*
X3963771Y1756816D01*
X3970985Y1751787D01*
X3972356Y1750618D01*
X4008628Y1714398D01*
X4010812Y1711096D01*
X4011574Y1707184D01*
X4011574Y1660550D01*
X4012285Y1654251D01*
X4014215Y1648764D01*
X4017314Y1643888D01*
X4021378Y1639773D01*
X4026306Y1636725D01*
X4031742Y1634794D01*
G37*
G36*
X999998Y1743659D02*
G01*
X1009802Y1744522D01*
X1019251Y1747062D01*
X1028192Y1751177D01*
X1036218Y1756816D01*
X1043178Y1763775D01*
X1048816Y1771802D01*
X1052931Y1780743D01*
X1055471Y1790192D01*
X1056335Y1799996D01*
X1055471Y1809800D01*
X1052931Y1819249D01*
X1048816Y1828190D01*
X1043178Y1836216D01*
X1036218Y1843176D01*
X1028192Y1848815D01*
X1019251Y1852930D01*
X1009802Y1855470D01*
X999998Y1856333D01*
X986739Y1855266D01*
X983437Y1856181D01*
X980643Y1858162D01*
X978611Y1860194D01*
X973683Y1863293D01*
X968248Y1865172D01*
X961898Y1865884D01*
X838047Y1865884D01*
X831748Y1865172D01*
X826262Y1863293D01*
X821385Y1860194D01*
X817270Y1856130D01*
X814222Y1851202D01*
X812292Y1845767D01*
X811580Y1839417D01*
X811580Y1770583D01*
X812292Y1764233D01*
X814222Y1758797D01*
X817270Y1753870D01*
X821385Y1749806D01*
X826262Y1746707D01*
X831748Y1744776D01*
X838047Y1744065D01*
X961898Y1744065D01*
X968248Y1744776D01*
X974344Y1746910D01*
X977290Y1747469D01*
X980338Y1747164D01*
X990193Y1744522D01*
G37*
G36*
X1640586Y1924100D02*
G01*
X1729435Y1924100D01*
X1735734Y1924812D01*
X1741220Y1926691D01*
X1746097Y1929790D01*
X1750212Y1933905D01*
X1753260Y1938782D01*
X1754479Y1942287D01*
X1756613Y1945843D01*
X1760016Y1948230D01*
X1764080Y1949094D01*
X2103221Y1949094D01*
X2106625Y1948535D01*
X2109571Y1946859D01*
X2111857Y1944319D01*
X2114143Y1940661D01*
X2118258Y1936597D01*
X2123135Y1933498D01*
X2128621Y1931619D01*
X2134920Y1930907D01*
X2214422Y1930907D01*
X2220722Y1931619D01*
X2226208Y1933498D01*
X2231085Y1936597D01*
X2235200Y1940661D01*
X2238298Y1945589D01*
X2240381Y1951634D01*
X2242566Y1955190D01*
X2245918Y1957628D01*
X2249982Y1958441D01*
X2254046Y1957628D01*
X2257450Y1955190D01*
X2259584Y1951634D01*
X2261717Y1945589D01*
X2264765Y1940661D01*
X2268880Y1936597D01*
X2273757Y1933498D01*
X2279243Y1931619D01*
X2285542Y1930907D01*
X2298801Y1930907D01*
X2298801Y1972056D01*
X2251049Y1972056D01*
X2247188Y1972818D01*
X2243886Y1975002D01*
X2241702Y1978304D01*
X2240889Y1982216D01*
X2240889Y2017775D01*
X2241702Y2021687D01*
X2243886Y2024989D01*
X2247188Y2027174D01*
X2251049Y2027936D01*
X2298801Y2027936D01*
X2298801Y2069084D01*
X2285542Y2069084D01*
X2279243Y2068372D01*
X2273757Y2066493D01*
X2268880Y2063394D01*
X2264765Y2059330D01*
X2261717Y2054402D01*
X2259584Y2048357D01*
X2257450Y2044801D01*
X2254046Y2042363D01*
X2249982Y2041550D01*
X2245918Y2042363D01*
X2242566Y2044801D01*
X2240381Y2048357D01*
X2238298Y2054402D01*
X2235200Y2059330D01*
X2231085Y2063394D01*
X2226208Y2066493D01*
X2220722Y2068372D01*
X2214422Y2069084D01*
X2134920Y2069084D01*
X2128621Y2068372D01*
X2123135Y2066493D01*
X2118258Y2063394D01*
X2114143Y2059330D01*
X2111857Y2055672D01*
X2109571Y2053132D01*
X2106625Y2051456D01*
X2103221Y2050897D01*
X1764080Y2050897D01*
X1760016Y2051761D01*
X1756613Y2054148D01*
X1754479Y2057704D01*
X1753260Y2061210D01*
X1750212Y2066086D01*
X1746097Y2070201D01*
X1741220Y2073300D01*
X1735734Y2075180D01*
X1729435Y2075891D01*
X1640586Y2075891D01*
X1634236Y2075180D01*
X1628800Y2073300D01*
X1623872Y2070201D01*
X1619808Y2066086D01*
X1616710Y2061210D01*
X1614779Y2055723D01*
X1614068Y2049424D01*
X1614068Y1950567D01*
X1614779Y1944268D01*
X1616710Y1938782D01*
X1619808Y1933905D01*
X1623872Y1929790D01*
X1628800Y1926691D01*
X1634236Y1924812D01*
G37*
G36*
X3270554Y1924100D02*
G01*
X3359404Y1924100D01*
X3365754Y1924812D01*
X3371189Y1926691D01*
X3376117Y1929790D01*
X3380181Y1933905D01*
X3383279Y1938782D01*
X3385210Y1944268D01*
X3385921Y1950567D01*
X3385921Y2049424D01*
X3385210Y2055723D01*
X3383279Y2061210D01*
X3380181Y2066086D01*
X3376117Y2070201D01*
X3371189Y2073300D01*
X3365754Y2075180D01*
X3359404Y2075891D01*
X3270554Y2075891D01*
X3264255Y2075180D01*
X3258769Y2073300D01*
X3253892Y2070201D01*
X3249777Y2066086D01*
X3246729Y2061210D01*
X3245510Y2057704D01*
X3243376Y2054148D01*
X3239973Y2051761D01*
X3235909Y2050897D01*
X2896768Y2050897D01*
X2893364Y2051456D01*
X2890418Y2053132D01*
X2888132Y2055672D01*
X2885846Y2059330D01*
X2881731Y2063394D01*
X2876854Y2066493D01*
X2871368Y2068372D01*
X2865069Y2069084D01*
X2785567Y2069084D01*
X2779268Y2068372D01*
X2773781Y2066493D01*
X2768904Y2063394D01*
X2764790Y2059330D01*
X2761691Y2054402D01*
X2759608Y2048357D01*
X2757424Y2044801D01*
X2754071Y2042363D01*
X2750007Y2041550D01*
X2745943Y2042363D01*
X2742539Y2044801D01*
X2740406Y2048357D01*
X2738272Y2054402D01*
X2735224Y2059330D01*
X2731109Y2063394D01*
X2726232Y2066493D01*
X2720746Y2068372D01*
X2714447Y2069084D01*
X2701188Y2069084D01*
X2701188Y2027936D01*
X2748940Y2027936D01*
X2752801Y2027174D01*
X2756103Y2024989D01*
X2758338Y2021687D01*
X2759100Y2017775D01*
X2759100Y1982216D01*
X2758338Y1978304D01*
X2756103Y1975002D01*
X2752801Y1972818D01*
X2748940Y1972056D01*
X2701188Y1972056D01*
X2701188Y1930907D01*
X2714447Y1930907D01*
X2720746Y1931619D01*
X2726232Y1933498D01*
X2731109Y1936597D01*
X2735224Y1940661D01*
X2738272Y1945589D01*
X2740406Y1951634D01*
X2742539Y1955190D01*
X2745943Y1957628D01*
X2750007Y1958441D01*
X2754071Y1957628D01*
X2757424Y1955190D01*
X2759608Y1951634D01*
X2761691Y1945589D01*
X2764790Y1940661D01*
X2768904Y1936597D01*
X2773781Y1933498D01*
X2779268Y1931619D01*
X2785567Y1930907D01*
X2865069Y1930907D01*
X2871368Y1931619D01*
X2876854Y1933498D01*
X2881731Y1936597D01*
X2885846Y1940661D01*
X2888132Y1944319D01*
X2890418Y1946859D01*
X2893364Y1948535D01*
X2896768Y1949094D01*
X3235909Y1949094D01*
X3239973Y1948230D01*
X3243376Y1945843D01*
X3245510Y1942287D01*
X3246729Y1938782D01*
X3249777Y1933905D01*
X3253892Y1929790D01*
X3258769Y1926691D01*
X3264255Y1924812D01*
G37*
G36*
X1470558Y1924100D02*
G01*
X1559407Y1924100D01*
X1565757Y1924812D01*
X1571193Y1926691D01*
X1576120Y1929790D01*
X1580184Y1933905D01*
X1583283Y1938782D01*
X1585163Y1944268D01*
X1585874Y1950567D01*
X1585874Y2049424D01*
X1585163Y2055723D01*
X1583283Y2061210D01*
X1580184Y2066086D01*
X1576120Y2070201D01*
X1571193Y2073300D01*
X1565757Y2075180D01*
X1559407Y2075891D01*
X1470558Y2075891D01*
X1464259Y2075180D01*
X1458772Y2073300D01*
X1453896Y2070201D01*
X1449781Y2066086D01*
X1446682Y2061210D01*
X1445463Y2057704D01*
X1443329Y2054148D01*
X1439976Y2051761D01*
X1435912Y2050897D01*
X980440Y2050897D01*
X977595Y2051304D01*
X973683Y2053285D01*
X968248Y2055215D01*
X961898Y2055926D01*
X838047Y2055926D01*
X831748Y2055215D01*
X826262Y2053285D01*
X821385Y2050186D01*
X817270Y2046122D01*
X814222Y2041194D01*
X812292Y2035759D01*
X811580Y2029409D01*
X811580Y1960575D01*
X812292Y1954225D01*
X814222Y1948789D01*
X817270Y1943862D01*
X821385Y1939798D01*
X826262Y1936699D01*
X831748Y1934819D01*
X838047Y1934108D01*
X961898Y1934108D01*
X968248Y1934819D01*
X973683Y1936699D01*
X978611Y1939798D01*
X985266Y1946859D01*
X988212Y1948535D01*
X991565Y1949094D01*
X1435912Y1949094D01*
X1439976Y1948230D01*
X1443329Y1945843D01*
X1445463Y1942287D01*
X1446682Y1938782D01*
X1449781Y1933905D01*
X1453896Y1929790D01*
X1458772Y1926691D01*
X1464259Y1924812D01*
G37*
G36*
X3440582Y1924100D02*
G01*
X3529431Y1924100D01*
X3535730Y1924812D01*
X3541217Y1926691D01*
X3546094Y1929790D01*
X3550208Y1933905D01*
X3553307Y1938782D01*
X3554526Y1942287D01*
X3556660Y1945843D01*
X3560013Y1948230D01*
X3564077Y1949094D01*
X4019550Y1949094D01*
X4022394Y1948688D01*
X4026306Y1946706D01*
X4031742Y1944776D01*
X4038092Y1944065D01*
X4161942Y1944065D01*
X4168241Y1944776D01*
X4173728Y1946706D01*
X4178604Y1949805D01*
X4182719Y1953869D01*
X4185767Y1958797D01*
X4187698Y1964232D01*
X4188409Y1970582D01*
X4188409Y2039416D01*
X4187698Y2045766D01*
X4185767Y2051202D01*
X4182719Y2056130D01*
X4178604Y2060193D01*
X4173728Y2063292D01*
X4168241Y2065172D01*
X4161942Y2065883D01*
X4038092Y2065883D01*
X4031742Y2065172D01*
X4026306Y2063292D01*
X4021378Y2060193D01*
X4014724Y2053132D01*
X4011777Y2051456D01*
X4008424Y2050897D01*
X3564077Y2050897D01*
X3560013Y2051761D01*
X3556660Y2054148D01*
X3554526Y2057704D01*
X3553307Y2061210D01*
X3550208Y2066086D01*
X3546094Y2070201D01*
X3541217Y2073300D01*
X3535730Y2075180D01*
X3529431Y2075891D01*
X3440582Y2075891D01*
X3434232Y2075180D01*
X3428796Y2073300D01*
X3423869Y2070201D01*
X3419805Y2066086D01*
X3416706Y2061210D01*
X3414826Y2055723D01*
X3414115Y2049424D01*
X3414115Y1950567D01*
X3414826Y1944268D01*
X3416706Y1938782D01*
X3419805Y1933905D01*
X3423869Y1929790D01*
X3428796Y1926691D01*
X3434232Y1924812D01*
G37*
G36*
X2351836Y1930907D02*
G01*
X2365095Y1930907D01*
X2371394Y1931619D01*
X2376881Y1933498D01*
X2381758Y1936597D01*
X2385872Y1940661D01*
X2388920Y1945589D01*
X2390851Y1951024D01*
X2391562Y1957374D01*
X2391562Y1972056D01*
X2351836Y1972056D01*
G37*
G36*
X2634894Y1930907D02*
G01*
X2648153Y1930907D01*
X2648153Y1972056D01*
X2608427Y1972056D01*
X2608427Y1957374D01*
X2609138Y1951024D01*
X2611069Y1945589D01*
X2614117Y1940661D01*
X2618232Y1936597D01*
X2623108Y1933498D01*
X2628595Y1931619D01*
G37*
G36*
X2351836Y2027936D02*
G01*
X2391562Y2027936D01*
X2391562Y2042617D01*
X2390851Y2048967D01*
X2388920Y2054402D01*
X2385872Y2059330D01*
X2381758Y2063394D01*
X2376881Y2066493D01*
X2371394Y2068372D01*
X2365095Y2069084D01*
X2351836Y2069084D01*
G37*
G36*
X2608427Y2027936D02*
G01*
X2648153Y2027936D01*
X2648153Y2069084D01*
X2634894Y2069084D01*
X2628595Y2068372D01*
X2623108Y2066493D01*
X2618232Y2063394D01*
X2614117Y2059330D01*
X2611069Y2054402D01*
X2609138Y2048967D01*
X2608427Y2042617D01*
G37*
G36*
X700227Y424230D02*
G01*
X999642Y424230D01*
X1011326Y425094D01*
X1022350Y427634D01*
X1032916Y431749D01*
X1042720Y437438D01*
X1051610Y444500D01*
X1059332Y452831D01*
X1065733Y462178D01*
X1070610Y472389D01*
X1073962Y483260D01*
X1075690Y494436D01*
X1075690Y505815D01*
X1073962Y516991D01*
X1070610Y527862D01*
X1065733Y538073D01*
X1059332Y547420D01*
X1051610Y555752D01*
X1042720Y562813D01*
X1032916Y568502D01*
X1022350Y572617D01*
X1011326Y575157D01*
X999642Y576021D01*
X786079Y576021D01*
X782218Y576783D01*
X778916Y579018D01*
X776681Y582320D01*
X775919Y586181D01*
X775919Y837895D01*
X776681Y841806D01*
X778916Y845058D01*
X782726Y848868D01*
X785774Y853795D01*
X787704Y859231D01*
X788416Y865581D01*
X788416Y934415D01*
X787704Y940765D01*
X785774Y946200D01*
X782726Y951128D01*
X778916Y954938D01*
X776681Y958189D01*
X775919Y962101D01*
X775919Y1337919D01*
X776681Y1341780D01*
X778916Y1345082D01*
X782726Y1348892D01*
X785774Y1353769D01*
X787704Y1359255D01*
X788416Y1365554D01*
X788416Y1434439D01*
X787704Y1440738D01*
X785774Y1446225D01*
X782726Y1451102D01*
X778916Y1454912D01*
X776681Y1458214D01*
X775919Y1462074D01*
X775919Y1837893D01*
X776681Y1841804D01*
X778916Y1845056D01*
X782726Y1848866D01*
X785774Y1853793D01*
X787704Y1859229D01*
X788416Y1865579D01*
X788416Y1934413D01*
X787704Y1940763D01*
X785774Y1946198D01*
X782726Y1951126D01*
X778916Y1954936D01*
X776681Y1958187D01*
X775919Y1962099D01*
X775919Y2837891D01*
X776681Y2841802D01*
X778916Y2845054D01*
X782726Y2848864D01*
X785774Y2853791D01*
X787704Y2859227D01*
X788416Y2865577D01*
X788416Y2934411D01*
X787704Y2940761D01*
X785774Y2946196D01*
X782726Y2951124D01*
X778916Y2954934D01*
X776681Y2958185D01*
X775919Y2962097D01*
X775919Y3337915D01*
X776681Y3341776D01*
X778916Y3345078D01*
X782726Y3348888D01*
X785774Y3353765D01*
X787704Y3359251D01*
X788416Y3365550D01*
X788416Y3434435D01*
X787704Y3440734D01*
X785774Y3446221D01*
X782726Y3451098D01*
X778916Y3454908D01*
X776681Y3458210D01*
X775919Y3462070D01*
X775919Y3837889D01*
X776681Y3841800D01*
X778916Y3845051D01*
X782726Y3848862D01*
X785774Y3853789D01*
X787704Y3859225D01*
X788416Y3865575D01*
X788416Y3934409D01*
X787704Y3940759D01*
X785774Y3946194D01*
X782726Y3951122D01*
X778916Y3954932D01*
X776681Y3958183D01*
X775919Y3962095D01*
X775919Y4414062D01*
X776681Y4417923D01*
X778916Y4421225D01*
X782218Y4423460D01*
X786079Y4424222D01*
X999642Y4424222D01*
X1011326Y4425086D01*
X1022350Y4427626D01*
X1032916Y4431741D01*
X1042720Y4437430D01*
X1051610Y4444492D01*
X1059332Y4452823D01*
X1065733Y4462170D01*
X1070610Y4472381D01*
X1073962Y4483252D01*
X1075690Y4494428D01*
X1075690Y4505807D01*
X1073962Y4516983D01*
X1070610Y4527854D01*
X1065733Y4538065D01*
X1059332Y4547412D01*
X1051610Y4555744D01*
X1042720Y4562805D01*
X1032916Y4568494D01*
X1022350Y4572609D01*
X1011326Y4575149D01*
X999642Y4576013D01*
X700227Y4576013D01*
X694334Y4575810D01*
X688695Y4575149D01*
X683158Y4574133D01*
X677672Y4572660D01*
X672287Y4570780D01*
X667105Y4568494D01*
X662076Y4565853D01*
X657250Y4562805D01*
X652678Y4559452D01*
X648411Y4555744D01*
X644398Y4551730D01*
X640689Y4547463D01*
X637336Y4542891D01*
X634288Y4538065D01*
X631647Y4533036D01*
X629361Y4527854D01*
X627481Y4522470D01*
X626008Y4516983D01*
X624992Y4511446D01*
X624332Y4505807D01*
X624128Y4499914D01*
X624128Y3962146D01*
X623366Y3958234D01*
X621131Y3954932D01*
X617321Y3951122D01*
X614222Y3946194D01*
X612292Y3940759D01*
X611581Y3934409D01*
X611581Y3865575D01*
X612292Y3859225D01*
X614222Y3853789D01*
X617321Y3848862D01*
X621131Y3845051D01*
X623366Y3841750D01*
X624128Y3837838D01*
X624128Y3462121D01*
X623366Y3458260D01*
X621131Y3454958D01*
X617321Y3451098D01*
X614222Y3446221D01*
X612292Y3440734D01*
X611581Y3434435D01*
X611581Y3365550D01*
X612292Y3359251D01*
X614222Y3353765D01*
X617321Y3348888D01*
X621131Y3345027D01*
X623366Y3341725D01*
X624128Y3337864D01*
X624128Y2962148D01*
X623366Y2958236D01*
X621131Y2954934D01*
X617321Y2951124D01*
X614222Y2946196D01*
X612292Y2940761D01*
X611581Y2934411D01*
X611581Y2865577D01*
X612292Y2859227D01*
X614222Y2853791D01*
X617321Y2848864D01*
X621131Y2845054D01*
X623366Y2841752D01*
X624128Y2837840D01*
X624128Y1962150D01*
X623366Y1958238D01*
X621131Y1954936D01*
X617321Y1951126D01*
X614222Y1946198D01*
X612292Y1940763D01*
X611581Y1934413D01*
X611581Y1865579D01*
X612292Y1859229D01*
X614222Y1853793D01*
X617321Y1848866D01*
X621131Y1845056D01*
X623366Y1841754D01*
X624128Y1837842D01*
X624128Y1462125D01*
X623366Y1458264D01*
X621131Y1454962D01*
X617321Y1451102D01*
X614222Y1446225D01*
X612292Y1440738D01*
X611581Y1434439D01*
X611581Y1365554D01*
X612292Y1359255D01*
X614222Y1353769D01*
X617321Y1348892D01*
X621131Y1345031D01*
X623366Y1341729D01*
X624128Y1337868D01*
X624128Y962152D01*
X623366Y958240D01*
X621131Y954938D01*
X617321Y951128D01*
X614222Y946200D01*
X612292Y940765D01*
X611581Y934415D01*
X611581Y865581D01*
X612292Y859231D01*
X614222Y853795D01*
X617321Y848868D01*
X621131Y845058D01*
X623366Y841756D01*
X624128Y837844D01*
X624128Y500329D01*
X624332Y494436D01*
X624992Y488797D01*
X626008Y483260D01*
X627481Y477774D01*
X629361Y472389D01*
X631647Y467207D01*
X634288Y462178D01*
X637336Y457352D01*
X640689Y452780D01*
X644398Y448513D01*
X648411Y444500D01*
X652678Y440791D01*
X657250Y437438D01*
X662076Y434390D01*
X667105Y431749D01*
X672287Y429463D01*
X677672Y427583D01*
X683158Y426110D01*
X688695Y425094D01*
X694334Y424434D01*
G37*
G36*
X4000195Y424078D02*
G01*
X4299813Y424078D01*
X4305655Y424332D01*
X4311294Y424942D01*
X4316882Y426008D01*
X4322368Y427482D01*
X4327702Y429361D01*
X4332935Y431596D01*
X4337964Y434289D01*
X4342739Y437286D01*
X4347311Y440639D01*
X4351629Y444347D01*
X4355642Y448360D01*
X4359351Y452678D01*
X4362704Y457250D01*
X4365701Y462026D01*
X4368393Y467055D01*
X4370628Y472287D01*
X4372508Y477621D01*
X4373981Y483108D01*
X4375048Y488696D01*
X4375658Y494334D01*
X4375912Y500176D01*
X4375912Y1037894D01*
X4376674Y1041755D01*
X4378858Y1045057D01*
X4382668Y1048867D01*
X4385767Y1053795D01*
X4387697Y1059230D01*
X4388408Y1065580D01*
X4388408Y1134414D01*
X4387697Y1140764D01*
X4385767Y1146200D01*
X4382668Y1151128D01*
X4378858Y1154938D01*
X4376674Y1158240D01*
X4375912Y1162100D01*
X4375912Y1537868D01*
X4376674Y1541780D01*
X4378858Y1545082D01*
X4382668Y1548892D01*
X4385767Y1553768D01*
X4387697Y1559255D01*
X4388408Y1565554D01*
X4388408Y1634439D01*
X4387697Y1640738D01*
X4385767Y1646224D01*
X4382668Y1651101D01*
X4378858Y1654911D01*
X4376674Y1658213D01*
X4375912Y1662125D01*
X4375912Y2037892D01*
X4376674Y2041753D01*
X4378858Y2045055D01*
X4382668Y2048865D01*
X4385767Y2053793D01*
X4387697Y2059228D01*
X4388408Y2065578D01*
X4388408Y2134412D01*
X4387697Y2140762D01*
X4385767Y2146198D01*
X4382668Y2151126D01*
X4378858Y2154936D01*
X4376674Y2158238D01*
X4375912Y2162098D01*
X4375912Y3037890D01*
X4376674Y3041751D01*
X4378858Y3045053D01*
X4382668Y3048863D01*
X4385767Y3053791D01*
X4387697Y3059226D01*
X4388408Y3065576D01*
X4388408Y3134410D01*
X4387697Y3140760D01*
X4385767Y3146196D01*
X4382668Y3151124D01*
X4378858Y3154934D01*
X4376674Y3158236D01*
X4375912Y3162096D01*
X4375912Y3537864D01*
X4376674Y3541776D01*
X4378858Y3545078D01*
X4382668Y3548887D01*
X4385767Y3553764D01*
X4387697Y3559251D01*
X4388408Y3565550D01*
X4388408Y3634435D01*
X4387697Y3640734D01*
X4385767Y3646220D01*
X4382668Y3651097D01*
X4378858Y3654907D01*
X4376674Y3658209D01*
X4375912Y3662121D01*
X4375912Y4037888D01*
X4376674Y4041749D01*
X4378858Y4045051D01*
X4382668Y4048861D01*
X4385767Y4053789D01*
X4387697Y4059224D01*
X4388408Y4065574D01*
X4388408Y4134408D01*
X4387697Y4140758D01*
X4385767Y4146194D01*
X4382668Y4151122D01*
X4378858Y4154932D01*
X4376674Y4158234D01*
X4375912Y4162094D01*
X4375912Y4499813D01*
X4375658Y4505655D01*
X4375048Y4511294D01*
X4373981Y4516882D01*
X4372508Y4522368D01*
X4370628Y4527702D01*
X4368393Y4532934D01*
X4365701Y4537964D01*
X4362704Y4542739D01*
X4359351Y4547311D01*
X4355642Y4551629D01*
X4351629Y4555642D01*
X4347311Y4559350D01*
X4342739Y4562703D01*
X4337964Y4565700D01*
X4332935Y4568393D01*
X4327702Y4570628D01*
X4322368Y4572508D01*
X4316882Y4573981D01*
X4311294Y4575048D01*
X4305655Y4575657D01*
X4299813Y4575911D01*
X4000347Y4575911D01*
X3988663Y4575048D01*
X3977640Y4572508D01*
X3967073Y4568342D01*
X3957269Y4562703D01*
X3948379Y4555591D01*
X3940657Y4547311D01*
X3934256Y4537913D01*
X3929379Y4527702D01*
X3926027Y4516882D01*
X3924300Y4505655D01*
X3924300Y4494326D01*
X3926027Y4483100D01*
X3929379Y4472279D01*
X3934256Y4462068D01*
X3940657Y4452670D01*
X3948379Y4444390D01*
X3957269Y4437278D01*
X3967073Y4431639D01*
X3977640Y4427474D01*
X3988663Y4424934D01*
X4000347Y4424070D01*
X4213910Y4424070D01*
X4217822Y4423308D01*
X4221124Y4421124D01*
X4223308Y4417822D01*
X4224070Y4413910D01*
X4224070Y4162094D01*
X4223308Y4158234D01*
X4221124Y4154932D01*
X4217263Y4151122D01*
X4214215Y4146194D01*
X4212285Y4140758D01*
X4211574Y4134408D01*
X4211574Y4065574D01*
X4212285Y4059224D01*
X4214215Y4053789D01*
X4217263Y4048861D01*
X4221124Y4045051D01*
X4223308Y4041749D01*
X4224070Y4037888D01*
X4224070Y3662121D01*
X4223308Y3658209D01*
X4221124Y3654958D01*
X4217263Y3651097D01*
X4214215Y3646220D01*
X4212285Y3640734D01*
X4211574Y3634435D01*
X4211574Y3565550D01*
X4212285Y3559251D01*
X4214215Y3553764D01*
X4217263Y3548887D01*
X4221124Y3545027D01*
X4223308Y3541776D01*
X4224070Y3537864D01*
X4224070Y3162096D01*
X4223308Y3158236D01*
X4221124Y3154934D01*
X4217263Y3151124D01*
X4214215Y3146196D01*
X4212285Y3140760D01*
X4211574Y3134410D01*
X4211574Y3065576D01*
X4212285Y3059226D01*
X4214215Y3053791D01*
X4217263Y3048863D01*
X4221124Y3045053D01*
X4223308Y3041751D01*
X4224070Y3037890D01*
X4224070Y2162098D01*
X4223308Y2158238D01*
X4221124Y2154936D01*
X4217263Y2151126D01*
X4214215Y2146198D01*
X4212285Y2140762D01*
X4211574Y2134412D01*
X4211574Y2065578D01*
X4212285Y2059228D01*
X4214215Y2053793D01*
X4217263Y2048865D01*
X4221124Y2045055D01*
X4223308Y2041753D01*
X4224070Y2037892D01*
X4224070Y1662125D01*
X4223308Y1658213D01*
X4221124Y1654962D01*
X4217263Y1651101D01*
X4214215Y1646224D01*
X4212285Y1640738D01*
X4211574Y1634439D01*
X4211574Y1565554D01*
X4212285Y1559255D01*
X4214215Y1553768D01*
X4217263Y1548892D01*
X4221124Y1545031D01*
X4223308Y1541780D01*
X4224070Y1537868D01*
X4224070Y1162100D01*
X4223308Y1158240D01*
X4221124Y1154938D01*
X4217263Y1151128D01*
X4214215Y1146200D01*
X4212285Y1140764D01*
X4211574Y1134414D01*
X4211574Y1065580D01*
X4212285Y1059230D01*
X4214215Y1053795D01*
X4217263Y1048867D01*
X4221124Y1045057D01*
X4223308Y1041755D01*
X4224070Y1037894D01*
X4224070Y586079D01*
X4223308Y582168D01*
X4221124Y578866D01*
X4217822Y576681D01*
X4213910Y575919D01*
X4000195Y575919D01*
X3994302Y575665D01*
X3988663Y575056D01*
X3983126Y573989D01*
X3977640Y572516D01*
X3972255Y570636D01*
X3967073Y568401D01*
X3962044Y565708D01*
X3957218Y562711D01*
X3952646Y559358D01*
X3948379Y555650D01*
X3944365Y551637D01*
X3940657Y547319D01*
X3937304Y542747D01*
X3934256Y537972D01*
X3931615Y532942D01*
X3929329Y527710D01*
X3927449Y522376D01*
X3925976Y516890D01*
X3924960Y511301D01*
X3924300Y505663D01*
X3924096Y500024D01*
X3924300Y494334D01*
X3924960Y488696D01*
X3925976Y483108D01*
X3927449Y477621D01*
X3929329Y472287D01*
X3931615Y467055D01*
X3934256Y462026D01*
X3937304Y457250D01*
X3940657Y452678D01*
X3944365Y448360D01*
X3948379Y444347D01*
X3952646Y440639D01*
X3957218Y437286D01*
X3962044Y434289D01*
X3967073Y431596D01*
X3972255Y429361D01*
X3977640Y427482D01*
X3983126Y426008D01*
X3988663Y424942D01*
X3994302Y424332D01*
G37*
G36*
X1199997Y2743657D02*
G01*
X1209802Y2744520D01*
X1219250Y2747060D01*
X1228191Y2751175D01*
X1236218Y2756814D01*
X1243177Y2763774D01*
X1248816Y2771800D01*
X1252931Y2780741D01*
X1255471Y2790190D01*
X1256334Y2799994D01*
X1255471Y2809798D01*
X1252931Y2819247D01*
X1248816Y2828188D01*
X1243177Y2836214D01*
X1236218Y2843174D01*
X1228191Y2848813D01*
X1219250Y2852928D01*
X1209802Y2855468D01*
X1199997Y2856331D01*
X1190193Y2855468D01*
X1180744Y2852928D01*
X1178407Y2851861D01*
X1174089Y2850896D01*
X991565Y2850896D01*
X988212Y2851454D01*
X985266Y2853131D01*
X982675Y2856128D01*
X978611Y2860192D01*
X973683Y2863291D01*
X968248Y2865170D01*
X961898Y2865882D01*
X838047Y2865882D01*
X831748Y2865170D01*
X826262Y2863291D01*
X821385Y2860192D01*
X817270Y2856128D01*
X814222Y2851200D01*
X812292Y2845765D01*
X811580Y2839415D01*
X811580Y2770581D01*
X812292Y2764231D01*
X814222Y2758795D01*
X817270Y2753868D01*
X821385Y2749804D01*
X826262Y2746705D01*
X831748Y2744774D01*
X838047Y2744063D01*
X961898Y2744063D01*
X968248Y2744774D01*
X973683Y2746705D01*
X977595Y2748686D01*
X980440Y2749092D01*
X1174089Y2749092D01*
X1178407Y2748127D01*
X1180744Y2747060D01*
X1190193Y2744520D01*
G37*
G36*
X1640586Y2924098D02*
G01*
X1729435Y2924098D01*
X1735734Y2924810D01*
X1741220Y2926689D01*
X1746097Y2929788D01*
X1750212Y2933903D01*
X1753260Y2938780D01*
X1754479Y2942285D01*
X1756613Y2945841D01*
X1760016Y2948228D01*
X1764080Y2949092D01*
X2103221Y2949092D01*
X2106625Y2948533D01*
X2109571Y2946857D01*
X2111857Y2944317D01*
X2114143Y2940659D01*
X2118258Y2936595D01*
X2123135Y2933496D01*
X2128621Y2931617D01*
X2134920Y2930906D01*
X2214422Y2930906D01*
X2220722Y2931617D01*
X2226208Y2933496D01*
X2231085Y2936595D01*
X2235200Y2940659D01*
X2238298Y2945587D01*
X2240381Y2951632D01*
X2242566Y2955188D01*
X2245918Y2957626D01*
X2249982Y2958439D01*
X2254046Y2957626D01*
X2257450Y2955188D01*
X2259584Y2951632D01*
X2261717Y2945587D01*
X2264765Y2940659D01*
X2268880Y2936595D01*
X2273757Y2933496D01*
X2279243Y2931617D01*
X2285542Y2930906D01*
X2298801Y2930906D01*
X2298801Y2972054D01*
X2251049Y2972054D01*
X2247188Y2972816D01*
X2243886Y2975000D01*
X2241702Y2978302D01*
X2240889Y2982214D01*
X2240889Y3017774D01*
X2241702Y3021685D01*
X2243886Y3024987D01*
X2247188Y3027172D01*
X2251049Y3027934D01*
X2298801Y3027934D01*
X2298801Y3069082D01*
X2285542Y3069082D01*
X2279243Y3068370D01*
X2273757Y3066491D01*
X2268880Y3063392D01*
X2264765Y3059328D01*
X2261717Y3054400D01*
X2259584Y3048355D01*
X2257450Y3044799D01*
X2254046Y3042361D01*
X2249982Y3041548D01*
X2245918Y3042361D01*
X2242566Y3044799D01*
X2240381Y3048355D01*
X2238298Y3054400D01*
X2235200Y3059328D01*
X2231085Y3063392D01*
X2226208Y3066491D01*
X2220722Y3068370D01*
X2214422Y3069082D01*
X2134920Y3069082D01*
X2128621Y3068370D01*
X2123135Y3066491D01*
X2118258Y3063392D01*
X2114143Y3059328D01*
X2111857Y3055670D01*
X2109571Y3053130D01*
X2106625Y3051454D01*
X2103221Y3050895D01*
X1764080Y3050895D01*
X1760016Y3051759D01*
X1756613Y3054146D01*
X1754479Y3057702D01*
X1753260Y3061208D01*
X1750212Y3066084D01*
X1746097Y3070199D01*
X1741220Y3073298D01*
X1735734Y3075178D01*
X1729435Y3075889D01*
X1640586Y3075889D01*
X1634236Y3075178D01*
X1628800Y3073298D01*
X1623872Y3070199D01*
X1619808Y3066084D01*
X1616710Y3061208D01*
X1614779Y3055721D01*
X1614068Y3049422D01*
X1614068Y2950565D01*
X1614779Y2944266D01*
X1616710Y2938780D01*
X1619808Y2933903D01*
X1623872Y2929788D01*
X1628800Y2926689D01*
X1634236Y2924810D01*
G37*
G36*
X3270554Y2924098D02*
G01*
X3359404Y2924098D01*
X3365754Y2924810D01*
X3371189Y2926689D01*
X3376117Y2929788D01*
X3380181Y2933903D01*
X3383279Y2938780D01*
X3385210Y2944266D01*
X3385921Y2950565D01*
X3385921Y3049422D01*
X3385210Y3055721D01*
X3383279Y3061208D01*
X3380181Y3066084D01*
X3376117Y3070199D01*
X3371189Y3073298D01*
X3365754Y3075178D01*
X3359404Y3075889D01*
X3270554Y3075889D01*
X3264255Y3075178D01*
X3258769Y3073298D01*
X3253892Y3070199D01*
X3249777Y3066084D01*
X3246729Y3061208D01*
X3245510Y3057702D01*
X3243376Y3054146D01*
X3239973Y3051759D01*
X3235909Y3050895D01*
X2896768Y3050895D01*
X2893364Y3051454D01*
X2890418Y3053130D01*
X2888132Y3055670D01*
X2885846Y3059328D01*
X2881731Y3063392D01*
X2876854Y3066491D01*
X2871368Y3068370D01*
X2865069Y3069082D01*
X2785567Y3069082D01*
X2779268Y3068370D01*
X2773781Y3066491D01*
X2768904Y3063392D01*
X2764790Y3059328D01*
X2761691Y3054400D01*
X2759608Y3048355D01*
X2757424Y3044799D01*
X2754071Y3042361D01*
X2750007Y3041548D01*
X2745943Y3042361D01*
X2742539Y3044799D01*
X2740406Y3048355D01*
X2738272Y3054400D01*
X2735224Y3059328D01*
X2731109Y3063392D01*
X2726232Y3066491D01*
X2720746Y3068370D01*
X2714447Y3069082D01*
X2701188Y3069082D01*
X2701188Y3027934D01*
X2748940Y3027934D01*
X2752801Y3027172D01*
X2756103Y3024987D01*
X2758338Y3021685D01*
X2759100Y3017774D01*
X2759100Y2982214D01*
X2758338Y2978302D01*
X2756103Y2975000D01*
X2752801Y2972816D01*
X2748940Y2972054D01*
X2701188Y2972054D01*
X2701188Y2930906D01*
X2714447Y2930906D01*
X2720746Y2931617D01*
X2726232Y2933496D01*
X2731109Y2936595D01*
X2735224Y2940659D01*
X2738272Y2945587D01*
X2740406Y2951632D01*
X2742539Y2955188D01*
X2745943Y2957626D01*
X2750007Y2958439D01*
X2754071Y2957626D01*
X2757424Y2955188D01*
X2759608Y2951632D01*
X2761691Y2945587D01*
X2764790Y2940659D01*
X2768904Y2936595D01*
X2773781Y2933496D01*
X2779268Y2931617D01*
X2785567Y2930906D01*
X2865069Y2930906D01*
X2871368Y2931617D01*
X2876854Y2933496D01*
X2881731Y2936595D01*
X2885846Y2940659D01*
X2888132Y2944317D01*
X2890418Y2946857D01*
X2893364Y2948533D01*
X2896768Y2949092D01*
X3235909Y2949092D01*
X3239973Y2948228D01*
X3243376Y2945841D01*
X3245510Y2942285D01*
X3246729Y2938780D01*
X3249777Y2933903D01*
X3253892Y2929788D01*
X3258769Y2926689D01*
X3264255Y2924810D01*
G37*
G36*
X1470558Y2924098D02*
G01*
X1559407Y2924098D01*
X1565757Y2924810D01*
X1571193Y2926689D01*
X1576120Y2929788D01*
X1580184Y2933903D01*
X1583283Y2938780D01*
X1585163Y2944266D01*
X1585874Y2950565D01*
X1585874Y3049422D01*
X1585163Y3055721D01*
X1583283Y3061208D01*
X1580184Y3066084D01*
X1576120Y3070199D01*
X1571193Y3073298D01*
X1565757Y3075178D01*
X1559407Y3075889D01*
X1470558Y3075889D01*
X1464259Y3075178D01*
X1458772Y3073298D01*
X1453896Y3070199D01*
X1449781Y3066084D01*
X1446682Y3061208D01*
X1445463Y3057702D01*
X1443329Y3054146D01*
X1439976Y3051759D01*
X1435912Y3050895D01*
X980440Y3050895D01*
X977595Y3051302D01*
X973683Y3053283D01*
X968248Y3055213D01*
X961898Y3055924D01*
X838047Y3055924D01*
X831748Y3055213D01*
X826262Y3053283D01*
X821385Y3050184D01*
X817270Y3046120D01*
X814222Y3041192D01*
X812292Y3035757D01*
X811580Y3029407D01*
X811580Y2960573D01*
X812292Y2954223D01*
X814222Y2948787D01*
X817270Y2943860D01*
X821385Y2939796D01*
X826262Y2936697D01*
X831748Y2934817D01*
X838047Y2934106D01*
X961898Y2934106D01*
X968248Y2934817D01*
X973683Y2936697D01*
X978611Y2939796D01*
X985266Y2946857D01*
X988212Y2948533D01*
X991565Y2949092D01*
X1435912Y2949092D01*
X1439976Y2948228D01*
X1443329Y2945841D01*
X1445463Y2942285D01*
X1446682Y2938780D01*
X1449781Y2933903D01*
X1453896Y2929788D01*
X1458772Y2926689D01*
X1464259Y2924810D01*
G37*
G36*
X3440582Y2924098D02*
G01*
X3529431Y2924098D01*
X3535730Y2924810D01*
X3541217Y2926689D01*
X3546094Y2929788D01*
X3550208Y2933903D01*
X3553307Y2938780D01*
X3556355Y2948584D01*
X3558590Y2951480D01*
X3561740Y2953410D01*
X3565398Y2954070D01*
X4012895Y2954070D01*
X4016756Y2953308D01*
X4020058Y2951124D01*
X4021378Y2949803D01*
X4026306Y2946704D01*
X4031742Y2944774D01*
X4038092Y2944063D01*
X4161942Y2944063D01*
X4168241Y2944774D01*
X4173728Y2946704D01*
X4178604Y2949803D01*
X4182719Y2953867D01*
X4185767Y2958795D01*
X4187698Y2964230D01*
X4188409Y2970580D01*
X4188409Y3039414D01*
X4187698Y3045764D01*
X4185767Y3051200D01*
X4182719Y3056128D01*
X4178604Y3060192D01*
X4173728Y3063290D01*
X4168241Y3065170D01*
X4161942Y3065881D01*
X4038092Y3065881D01*
X4031742Y3065170D01*
X4026306Y3063290D01*
X4021378Y3060192D01*
X4020058Y3058871D01*
X4016756Y3056686D01*
X4012895Y3055924D01*
X3562248Y3055924D01*
X3558895Y3056483D01*
X3555898Y3058109D01*
X3553612Y3060649D01*
X3550208Y3066084D01*
X3546094Y3070199D01*
X3541217Y3073298D01*
X3535730Y3075178D01*
X3529431Y3075889D01*
X3440582Y3075889D01*
X3434232Y3075178D01*
X3428796Y3073298D01*
X3423869Y3070199D01*
X3419805Y3066084D01*
X3416706Y3061208D01*
X3414826Y3055721D01*
X3414115Y3049422D01*
X3414115Y2950565D01*
X3414826Y2944266D01*
X3416706Y2938780D01*
X3419805Y2933903D01*
X3423869Y2929788D01*
X3428796Y2926689D01*
X3434232Y2924810D01*
G37*
G36*
X2351836Y2930906D02*
G01*
X2365095Y2930906D01*
X2371394Y2931617D01*
X2376881Y2933496D01*
X2381758Y2936595D01*
X2385872Y2940659D01*
X2388920Y2945587D01*
X2390851Y2951022D01*
X2391562Y2957372D01*
X2391562Y2972054D01*
X2351836Y2972054D01*
G37*
G36*
X2634894Y2930906D02*
G01*
X2648153Y2930906D01*
X2648153Y2972054D01*
X2608427Y2972054D01*
X2608427Y2957372D01*
X2609138Y2951022D01*
X2611069Y2945587D01*
X2614117Y2940659D01*
X2618232Y2936595D01*
X2623108Y2933496D01*
X2628595Y2931617D01*
G37*
G36*
X2351836Y3027934D02*
G01*
X2391562Y3027934D01*
X2391562Y3042615D01*
X2390851Y3048965D01*
X2388920Y3054400D01*
X2385872Y3059328D01*
X2381758Y3063392D01*
X2376881Y3066491D01*
X2371394Y3068370D01*
X2365095Y3069082D01*
X2351836Y3069082D01*
G37*
G36*
X2608427Y3027934D02*
G01*
X2648153Y3027934D01*
X2648153Y3069082D01*
X2634894Y3069082D01*
X2628595Y3068370D01*
X2623108Y3066491D01*
X2618232Y3063392D01*
X2614117Y3059328D01*
X2611069Y3054400D01*
X2609138Y3048965D01*
X2608427Y3042615D01*
G37*
G36*
X4038092Y3134106D02*
G01*
X4161942Y3134106D01*
X4168241Y3134817D01*
X4173728Y3136696D01*
X4178604Y3139795D01*
X4182719Y3143859D01*
X4185767Y3148787D01*
X4187698Y3154222D01*
X4188409Y3160572D01*
X4188409Y3229406D01*
X4187698Y3235756D01*
X4185767Y3241192D01*
X4182719Y3246120D01*
X4178604Y3250184D01*
X4173728Y3253282D01*
X4168241Y3255213D01*
X4161942Y3255924D01*
X4038092Y3255924D01*
X4031742Y3255213D01*
X4025646Y3253079D01*
X4022699Y3252520D01*
X4019651Y3252825D01*
X4009796Y3255467D01*
X3999992Y3256330D01*
X3990187Y3255467D01*
X3980738Y3252927D01*
X3971798Y3248812D01*
X3963771Y3243173D01*
X3956812Y3236214D01*
X3951173Y3228187D01*
X3947058Y3219246D01*
X3944518Y3209798D01*
X3943654Y3199993D01*
X3944518Y3190189D01*
X3947058Y3180740D01*
X3951173Y3171799D01*
X3956812Y3163773D01*
X3963771Y3156813D01*
X3971798Y3151174D01*
X3980738Y3147060D01*
X3990187Y3144520D01*
X3999992Y3143656D01*
X4013250Y3144723D01*
X4016552Y3143808D01*
X4019346Y3141827D01*
X4021378Y3139795D01*
X4026306Y3136696D01*
X4031742Y3134817D01*
G37*
G36*
X901293Y3225038D02*
G01*
X912621Y3225444D01*
X923798Y3227578D01*
X934466Y3231286D01*
X944524Y3236620D01*
X951941Y3242106D01*
X954786Y3243580D01*
X957986Y3244088D01*
X961898Y3244088D01*
X968248Y3244799D01*
X974344Y3246932D01*
X977290Y3247491D01*
X980338Y3247136D01*
X990193Y3244494D01*
X999998Y3243630D01*
X1009802Y3244494D01*
X1019251Y3247034D01*
X1028192Y3251200D01*
X1036218Y3256838D01*
X1043178Y3263747D01*
X1048816Y3271824D01*
X1052931Y3280714D01*
X1055471Y3290214D01*
X1056335Y3299968D01*
X1055471Y3309772D01*
X1052931Y3319272D01*
X1048816Y3328162D01*
X1043178Y3336239D01*
X1036218Y3343148D01*
X1028192Y3348786D01*
X1019251Y3352952D01*
X1009802Y3355492D01*
X999998Y3356356D01*
X986739Y3355238D01*
X983437Y3356203D01*
X980643Y3358184D01*
X978611Y3360216D01*
X973683Y3363264D01*
X968248Y3365195D01*
X961898Y3365906D01*
X948232Y3365906D01*
X945387Y3366312D01*
X942797Y3367481D01*
X935431Y3372104D01*
X925068Y3376625D01*
X914095Y3379571D01*
X902817Y3380841D01*
X891489Y3380384D01*
X880364Y3378301D01*
X869645Y3374542D01*
X859637Y3369259D01*
X854913Y3366414D01*
X851763Y3365906D01*
X838047Y3365906D01*
X831748Y3365195D01*
X826262Y3363264D01*
X821385Y3360216D01*
X817270Y3356101D01*
X814222Y3351225D01*
X812292Y3345738D01*
X811580Y3339439D01*
X811580Y3270554D01*
X812292Y3264255D01*
X814222Y3258769D01*
X817270Y3253892D01*
X821385Y3249777D01*
X826262Y3246729D01*
X831748Y3244799D01*
X838047Y3244088D01*
X850341Y3244088D01*
X853846Y3243427D01*
X856945Y3241649D01*
X859078Y3239820D01*
X868680Y3233775D01*
X879094Y3229254D01*
X890016Y3226308D01*
G37*
G36*
X1640586Y3424072D02*
G01*
X1729435Y3424072D01*
X1735734Y3424783D01*
X1741220Y3426714D01*
X1746097Y3429812D01*
X1750212Y3433876D01*
X1753260Y3438804D01*
X1754479Y3442258D01*
X1756613Y3445814D01*
X1760016Y3448253D01*
X1764080Y3449065D01*
X2103221Y3449065D01*
X2106625Y3448507D01*
X2109571Y3446881D01*
X2111857Y3444341D01*
X2114143Y3440684D01*
X2118258Y3436569D01*
X2123135Y3433521D01*
X2128621Y3431590D01*
X2134920Y3430879D01*
X2214422Y3430879D01*
X2220722Y3431590D01*
X2226208Y3433521D01*
X2231085Y3436569D01*
X2235200Y3440684D01*
X2238298Y3445560D01*
X2240381Y3451656D01*
X2242566Y3455212D01*
X2245918Y3457600D01*
X2249982Y3458464D01*
X2254046Y3457600D01*
X2257450Y3455212D01*
X2259584Y3451656D01*
X2261717Y3445560D01*
X2264765Y3440684D01*
X2268880Y3436569D01*
X2273757Y3433521D01*
X2279243Y3431590D01*
X2285542Y3430879D01*
X2298801Y3430879D01*
X2298801Y3472027D01*
X2251049Y3472027D01*
X2247188Y3472840D01*
X2243886Y3475024D01*
X2241702Y3478326D01*
X2240889Y3482187D01*
X2240889Y3517798D01*
X2241702Y3521659D01*
X2243886Y3524961D01*
X2247188Y3527145D01*
X2251049Y3527958D01*
X2298801Y3527958D01*
X2298801Y3569106D01*
X2285542Y3569106D01*
X2279243Y3568395D01*
X2273757Y3566464D01*
X2268880Y3563416D01*
X2264765Y3559301D01*
X2261717Y3554425D01*
X2259584Y3548329D01*
X2257450Y3544773D01*
X2254046Y3542385D01*
X2249982Y3541522D01*
X2245918Y3542385D01*
X2242566Y3544773D01*
X2240381Y3548329D01*
X2238298Y3554425D01*
X2235200Y3559301D01*
X2231085Y3563416D01*
X2226208Y3566464D01*
X2220722Y3568395D01*
X2214422Y3569106D01*
X2134920Y3569106D01*
X2128621Y3568395D01*
X2123135Y3566464D01*
X2118258Y3563416D01*
X2114143Y3559301D01*
X2111857Y3555644D01*
X2109571Y3553104D01*
X2106625Y3551478D01*
X2103221Y3550920D01*
X1764080Y3550920D01*
X1760016Y3551732D01*
X1756613Y3554171D01*
X1754479Y3557727D01*
X1753260Y3561181D01*
X1750212Y3566109D01*
X1746097Y3570173D01*
X1741220Y3573272D01*
X1735734Y3575202D01*
X1729435Y3575913D01*
X1640586Y3575913D01*
X1634236Y3575202D01*
X1628800Y3573272D01*
X1623872Y3570173D01*
X1619808Y3566109D01*
X1616710Y3561181D01*
X1614779Y3555746D01*
X1614068Y3549446D01*
X1614068Y3450539D01*
X1614779Y3444240D01*
X1616710Y3438804D01*
X1619808Y3433876D01*
X1623872Y3429812D01*
X1628800Y3426714D01*
X1634236Y3424783D01*
G37*
G36*
X3270554Y3424072D02*
G01*
X3359404Y3424072D01*
X3365754Y3424783D01*
X3371189Y3426714D01*
X3376117Y3429812D01*
X3380181Y3433876D01*
X3383279Y3438804D01*
X3385210Y3444240D01*
X3385921Y3450539D01*
X3385921Y3549446D01*
X3385210Y3555746D01*
X3383279Y3561181D01*
X3380181Y3566109D01*
X3376117Y3570173D01*
X3371189Y3573272D01*
X3365754Y3575202D01*
X3359404Y3575913D01*
X3270554Y3575913D01*
X3264255Y3575202D01*
X3258769Y3573272D01*
X3253892Y3570173D01*
X3249777Y3566109D01*
X3246729Y3561181D01*
X3245510Y3557727D01*
X3243376Y3554171D01*
X3239973Y3551732D01*
X3235909Y3550920D01*
X2896768Y3550920D01*
X2893364Y3551478D01*
X2890418Y3553104D01*
X2888132Y3555644D01*
X2885846Y3559301D01*
X2881731Y3563416D01*
X2876854Y3566464D01*
X2871368Y3568395D01*
X2865069Y3569106D01*
X2785567Y3569106D01*
X2779268Y3568395D01*
X2773781Y3566464D01*
X2768904Y3563416D01*
X2764790Y3559301D01*
X2761691Y3554425D01*
X2759608Y3548329D01*
X2757424Y3544773D01*
X2754071Y3542385D01*
X2750007Y3541522D01*
X2745943Y3542385D01*
X2742539Y3544773D01*
X2740406Y3548329D01*
X2738272Y3554425D01*
X2735224Y3559301D01*
X2731109Y3563416D01*
X2726232Y3566464D01*
X2720746Y3568395D01*
X2714447Y3569106D01*
X2701188Y3569106D01*
X2701188Y3527958D01*
X2748940Y3527958D01*
X2752801Y3527145D01*
X2756103Y3524961D01*
X2758338Y3521659D01*
X2759100Y3517798D01*
X2759100Y3482187D01*
X2758338Y3478326D01*
X2756103Y3475024D01*
X2752801Y3472840D01*
X2748940Y3472027D01*
X2701188Y3472027D01*
X2701188Y3430879D01*
X2714447Y3430879D01*
X2720746Y3431590D01*
X2726232Y3433521D01*
X2731109Y3436569D01*
X2735224Y3440684D01*
X2738272Y3445560D01*
X2740406Y3451656D01*
X2742539Y3455212D01*
X2745943Y3457600D01*
X2750007Y3458464D01*
X2754071Y3457600D01*
X2757424Y3455212D01*
X2759608Y3451656D01*
X2761691Y3445560D01*
X2764790Y3440684D01*
X2768904Y3436569D01*
X2773781Y3433521D01*
X2779268Y3431590D01*
X2785567Y3430879D01*
X2865069Y3430879D01*
X2871368Y3431590D01*
X2876854Y3433521D01*
X2881731Y3436569D01*
X2885846Y3440684D01*
X2888132Y3444341D01*
X2890418Y3446881D01*
X2893364Y3448507D01*
X2896717Y3449065D01*
X3235909Y3449065D01*
X3239973Y3448253D01*
X3243376Y3445814D01*
X3245510Y3442258D01*
X3246729Y3438804D01*
X3249777Y3433876D01*
X3253892Y3429812D01*
X3258769Y3426714D01*
X3264255Y3424783D01*
G37*
G36*
X1470558Y3424072D02*
G01*
X1559407Y3424072D01*
X1565757Y3424783D01*
X1571193Y3426714D01*
X1576120Y3429812D01*
X1580184Y3433876D01*
X1583283Y3438804D01*
X1585163Y3444240D01*
X1585874Y3450539D01*
X1585874Y3549446D01*
X1585163Y3555746D01*
X1583283Y3561181D01*
X1580184Y3566109D01*
X1576120Y3570173D01*
X1571193Y3573272D01*
X1565757Y3575202D01*
X1559407Y3575913D01*
X1470558Y3575913D01*
X1464259Y3575202D01*
X1458772Y3573272D01*
X1453896Y3570173D01*
X1449781Y3566109D01*
X1446682Y3561181D01*
X1443634Y3551377D01*
X1441399Y3548481D01*
X1438249Y3546551D01*
X1434592Y3545890D01*
X987145Y3545890D01*
X983234Y3546652D01*
X979932Y3548887D01*
X978611Y3550208D01*
X973683Y3553256D01*
X968248Y3555187D01*
X961898Y3555898D01*
X838047Y3555898D01*
X831748Y3555187D01*
X826262Y3553256D01*
X821385Y3550208D01*
X817270Y3546094D01*
X814222Y3541217D01*
X812292Y3535730D01*
X811580Y3529431D01*
X811580Y3460546D01*
X812292Y3454247D01*
X814222Y3448761D01*
X817270Y3443884D01*
X821385Y3439769D01*
X826262Y3436721D01*
X831748Y3434791D01*
X838047Y3434079D01*
X961898Y3434079D01*
X968248Y3434791D01*
X973683Y3436721D01*
X978611Y3439769D01*
X979932Y3441090D01*
X983234Y3443325D01*
X987094Y3444087D01*
X1437741Y3444087D01*
X1441094Y3443528D01*
X1444091Y3441852D01*
X1446377Y3439312D01*
X1449781Y3433876D01*
X1453896Y3429812D01*
X1458772Y3426714D01*
X1464259Y3424783D01*
G37*
G36*
X3440582Y3424072D02*
G01*
X3529431Y3424072D01*
X3535730Y3424783D01*
X3541217Y3426714D01*
X3546094Y3429812D01*
X3550208Y3433876D01*
X3553307Y3438804D01*
X3556355Y3448608D01*
X3558590Y3451504D01*
X3561740Y3453434D01*
X3565398Y3454095D01*
X4012895Y3454095D01*
X4016756Y3453333D01*
X4020058Y3451098D01*
X4021378Y3449777D01*
X4026306Y3446729D01*
X4031742Y3444798D01*
X4038092Y3444087D01*
X4161942Y3444087D01*
X4168241Y3444798D01*
X4173728Y3446729D01*
X4178604Y3449777D01*
X4182719Y3453892D01*
X4185767Y3458768D01*
X4187698Y3464255D01*
X4188409Y3470554D01*
X4188409Y3539439D01*
X4187698Y3545738D01*
X4185767Y3551224D01*
X4182719Y3556101D01*
X4178604Y3560216D01*
X4173728Y3563264D01*
X4168241Y3565194D01*
X4161942Y3565906D01*
X4038092Y3565906D01*
X4031742Y3565194D01*
X4026306Y3563264D01*
X4021378Y3560216D01*
X4020058Y3558895D01*
X4016756Y3556660D01*
X4012895Y3555898D01*
X3562248Y3555898D01*
X3558895Y3556457D01*
X3555898Y3558133D01*
X3553612Y3560673D01*
X3550208Y3566109D01*
X3546094Y3570173D01*
X3541217Y3573272D01*
X3535730Y3575202D01*
X3529431Y3575913D01*
X3440582Y3575913D01*
X3434232Y3575202D01*
X3428796Y3573272D01*
X3423869Y3570173D01*
X3419805Y3566109D01*
X3416706Y3561181D01*
X3414826Y3555746D01*
X3414115Y3549446D01*
X3414115Y3450539D01*
X3414826Y3444240D01*
X3416706Y3438804D01*
X3419805Y3433876D01*
X3423869Y3429812D01*
X3428796Y3426714D01*
X3434232Y3424783D01*
G37*
G36*
X2351836Y3430879D02*
G01*
X2365095Y3430879D01*
X2371394Y3431590D01*
X2376881Y3433521D01*
X2381758Y3436569D01*
X2385872Y3440684D01*
X2388920Y3445560D01*
X2390851Y3451047D01*
X2391562Y3457346D01*
X2391562Y3472027D01*
X2351836Y3472027D01*
G37*
G36*
X2634894Y3430879D02*
G01*
X2648153Y3430879D01*
X2648153Y3472027D01*
X2608427Y3472027D01*
X2608427Y3457346D01*
X2609138Y3451047D01*
X2611069Y3445560D01*
X2614117Y3440684D01*
X2618232Y3436569D01*
X2623108Y3433521D01*
X2628595Y3431590D01*
G37*
G36*
X2351836Y3527958D02*
G01*
X2391562Y3527958D01*
X2391562Y3542639D01*
X2390851Y3548938D01*
X2388920Y3554425D01*
X2385872Y3559301D01*
X2381758Y3563416D01*
X2376881Y3566464D01*
X2371394Y3568395D01*
X2365095Y3569106D01*
X2351836Y3569106D01*
G37*
G36*
X2608427Y3527958D02*
G01*
X2648153Y3527958D01*
X2648153Y3569106D01*
X2634894Y3569106D01*
X2628595Y3568395D01*
X2623108Y3566464D01*
X2618232Y3563416D01*
X2614117Y3559301D01*
X2611069Y3554425D01*
X2609138Y3548938D01*
X2608427Y3542639D01*
G37*
G36*
X4038092Y3634079D02*
G01*
X4161942Y3634079D01*
X4168241Y3634790D01*
X4173728Y3636721D01*
X4178604Y3639769D01*
X4182719Y3643884D01*
X4185767Y3648760D01*
X4187698Y3654247D01*
X4188409Y3660546D01*
X4188409Y3729431D01*
X4187698Y3735730D01*
X4185767Y3741216D01*
X4182719Y3746093D01*
X4178604Y3750208D01*
X4173728Y3753256D01*
X4168241Y3755186D01*
X4161942Y3755898D01*
X4038092Y3755898D01*
X4031742Y3755186D01*
X4025646Y3753053D01*
X4022699Y3752494D01*
X4019651Y3752850D01*
X4009796Y3755491D01*
X3999992Y3756355D01*
X3990187Y3755491D01*
X3980738Y3752951D01*
X3971798Y3748786D01*
X3963771Y3743147D01*
X3956812Y3736238D01*
X3951173Y3728161D01*
X3947058Y3719271D01*
X3944518Y3709771D01*
X3943654Y3699967D01*
X3944518Y3690213D01*
X3947058Y3680714D01*
X3951173Y3671824D01*
X3956812Y3663746D01*
X3963771Y3656837D01*
X3971798Y3651199D01*
X3980738Y3647033D01*
X3990187Y3644493D01*
X3999992Y3643629D01*
X4013250Y3644747D01*
X4016552Y3643782D01*
X4019346Y3641801D01*
X4021378Y3639769D01*
X4026306Y3636721D01*
X4031742Y3634790D01*
G37*
G36*
X999998Y3743655D02*
G01*
X1009802Y3744518D01*
X1019251Y3747058D01*
X1028192Y3751173D01*
X1036218Y3756812D01*
X1043178Y3763772D01*
X1048816Y3771798D01*
X1052931Y3780739D01*
X1055471Y3790187D01*
X1056335Y3799992D01*
X1055471Y3809796D01*
X1052931Y3819245D01*
X1048816Y3828186D01*
X1043178Y3836212D01*
X1036218Y3843172D01*
X1028192Y3848811D01*
X1019251Y3852926D01*
X1009802Y3855465D01*
X999998Y3856329D01*
X986739Y3855262D01*
X983437Y3856177D01*
X980643Y3858158D01*
X978611Y3860190D01*
X973683Y3863289D01*
X968248Y3865168D01*
X961898Y3865879D01*
X838047Y3865879D01*
X831748Y3865168D01*
X826262Y3863289D01*
X821385Y3860190D01*
X817270Y3856126D01*
X814222Y3851198D01*
X812292Y3845763D01*
X811580Y3839413D01*
X811580Y3770579D01*
X812292Y3764229D01*
X814222Y3758793D01*
X817270Y3753865D01*
X821385Y3749801D01*
X826262Y3746703D01*
X831748Y3744772D01*
X838047Y3744061D01*
X961898Y3744061D01*
X968248Y3744772D01*
X974344Y3746906D01*
X977290Y3747465D01*
X980338Y3747160D01*
X990193Y3744518D01*
G37*
G36*
X1640586Y3924096D02*
G01*
X1729435Y3924096D01*
X1735734Y3924808D01*
X1741220Y3926687D01*
X1746097Y3929786D01*
X1750212Y3933901D01*
X1753260Y3938778D01*
X1754479Y3942283D01*
X1756613Y3945839D01*
X1760016Y3948226D01*
X1764080Y3949090D01*
X2103221Y3949090D01*
X2106625Y3948531D01*
X2109571Y3946855D01*
X2111857Y3944315D01*
X2114143Y3940657D01*
X2118258Y3936593D01*
X2123135Y3933494D01*
X2128621Y3931615D01*
X2134920Y3930904D01*
X2214422Y3930904D01*
X2220722Y3931615D01*
X2226208Y3933494D01*
X2231085Y3936593D01*
X2235200Y3940657D01*
X2238298Y3945585D01*
X2240381Y3951630D01*
X2242566Y3955186D01*
X2245918Y3957624D01*
X2249982Y3958437D01*
X2254046Y3957624D01*
X2257450Y3955186D01*
X2259584Y3951630D01*
X2261717Y3945585D01*
X2264765Y3940657D01*
X2268880Y3936593D01*
X2273757Y3933494D01*
X2279243Y3931615D01*
X2285542Y3930904D01*
X2298801Y3930904D01*
X2298801Y3972051D01*
X2251049Y3972051D01*
X2247188Y3972814D01*
X2243886Y3974998D01*
X2241702Y3978300D01*
X2240889Y3982212D01*
X2240889Y4017772D01*
X2241702Y4021683D01*
X2243886Y4024985D01*
X2247188Y4027170D01*
X2251049Y4027932D01*
X2298801Y4027932D01*
X2298801Y4069079D01*
X2285542Y4069079D01*
X2279243Y4068368D01*
X2273757Y4066489D01*
X2268880Y4063390D01*
X2264765Y4059326D01*
X2261717Y4054398D01*
X2259584Y4048353D01*
X2257450Y4044797D01*
X2254046Y4042359D01*
X2249982Y4041546D01*
X2245918Y4042359D01*
X2242566Y4044797D01*
X2240381Y4048353D01*
X2238298Y4054398D01*
X2235200Y4059326D01*
X2231085Y4063390D01*
X2226208Y4066489D01*
X2220722Y4068368D01*
X2214422Y4069079D01*
X2134920Y4069079D01*
X2128621Y4068368D01*
X2123135Y4066489D01*
X2118258Y4063390D01*
X2114143Y4059326D01*
X2111857Y4055668D01*
X2109571Y4053128D01*
X2106625Y4051452D01*
X2103221Y4050893D01*
X1764080Y4050893D01*
X1760016Y4051757D01*
X1756613Y4054144D01*
X1754479Y4057700D01*
X1753260Y4061206D01*
X1750212Y4066082D01*
X1746097Y4070197D01*
X1741220Y4073296D01*
X1735734Y4075176D01*
X1729435Y4075887D01*
X1640586Y4075887D01*
X1634236Y4075176D01*
X1628800Y4073296D01*
X1623872Y4070197D01*
X1619808Y4066082D01*
X1616710Y4061206D01*
X1614779Y4055719D01*
X1614068Y4049420D01*
X1614068Y3950563D01*
X1614779Y3944264D01*
X1616710Y3938778D01*
X1619808Y3933901D01*
X1623872Y3929786D01*
X1628800Y3926687D01*
X1634236Y3924808D01*
G37*
G36*
X3270554Y3924096D02*
G01*
X3359404Y3924096D01*
X3365754Y3924808D01*
X3371189Y3926687D01*
X3376117Y3929786D01*
X3380181Y3933901D01*
X3383279Y3938778D01*
X3385210Y3944264D01*
X3385921Y3950563D01*
X3385921Y4049420D01*
X3385210Y4055719D01*
X3383279Y4061206D01*
X3380181Y4066082D01*
X3376117Y4070197D01*
X3371189Y4073296D01*
X3365754Y4075176D01*
X3359404Y4075887D01*
X3270554Y4075887D01*
X3264255Y4075176D01*
X3258769Y4073296D01*
X3253892Y4070197D01*
X3249777Y4066082D01*
X3246729Y4061206D01*
X3245510Y4057700D01*
X3243376Y4054144D01*
X3239973Y4051757D01*
X3235909Y4050893D01*
X2896768Y4050893D01*
X2893364Y4051452D01*
X2890418Y4053128D01*
X2888132Y4055668D01*
X2885846Y4059326D01*
X2881731Y4063390D01*
X2876854Y4066489D01*
X2871368Y4068368D01*
X2865069Y4069079D01*
X2785567Y4069079D01*
X2779268Y4068368D01*
X2773781Y4066489D01*
X2768904Y4063390D01*
X2764790Y4059326D01*
X2761691Y4054398D01*
X2759608Y4048353D01*
X2757424Y4044797D01*
X2754071Y4042359D01*
X2750007Y4041546D01*
X2745943Y4042359D01*
X2742539Y4044797D01*
X2740406Y4048353D01*
X2738272Y4054398D01*
X2735224Y4059326D01*
X2731109Y4063390D01*
X2726232Y4066489D01*
X2720746Y4068368D01*
X2714447Y4069079D01*
X2701188Y4069079D01*
X2701188Y4027932D01*
X2748940Y4027932D01*
X2752801Y4027170D01*
X2756103Y4024985D01*
X2758338Y4021683D01*
X2759100Y4017772D01*
X2759100Y3982212D01*
X2758338Y3978300D01*
X2756103Y3974998D01*
X2752801Y3972814D01*
X2748940Y3972051D01*
X2701188Y3972051D01*
X2701188Y3930904D01*
X2714447Y3930904D01*
X2720746Y3931615D01*
X2726232Y3933494D01*
X2731109Y3936593D01*
X2735224Y3940657D01*
X2738272Y3945585D01*
X2740406Y3951630D01*
X2742539Y3955186D01*
X2745943Y3957624D01*
X2750007Y3958437D01*
X2754071Y3957624D01*
X2757424Y3955186D01*
X2759608Y3951630D01*
X2761691Y3945585D01*
X2764790Y3940657D01*
X2768904Y3936593D01*
X2773781Y3933494D01*
X2779268Y3931615D01*
X2785567Y3930904D01*
X2865069Y3930904D01*
X2871368Y3931615D01*
X2876854Y3933494D01*
X2881731Y3936593D01*
X2885846Y3940657D01*
X2888132Y3944315D01*
X2890418Y3946855D01*
X2893364Y3948531D01*
X2896768Y3949090D01*
X3235909Y3949090D01*
X3239973Y3948226D01*
X3243376Y3945839D01*
X3245510Y3942283D01*
X3246729Y3938778D01*
X3249777Y3933901D01*
X3253892Y3929786D01*
X3258769Y3926687D01*
X3264255Y3924808D01*
G37*
G36*
X3440582Y3924096D02*
G01*
X3529431Y3924096D01*
X3535730Y3924808D01*
X3541217Y3926687D01*
X3546094Y3929786D01*
X3550208Y3933901D01*
X3553307Y3938778D01*
X3556355Y3948582D01*
X3558590Y3951528D01*
X3561740Y3953408D01*
X3565398Y3954068D01*
X4012895Y3954068D01*
X4016756Y3953306D01*
X4020058Y3951122D01*
X4021378Y3949801D01*
X4026306Y3946702D01*
X4031742Y3944772D01*
X4038092Y3944061D01*
X4161942Y3944061D01*
X4168241Y3944772D01*
X4173728Y3946702D01*
X4178604Y3949801D01*
X4182719Y3953865D01*
X4185767Y3958793D01*
X4187698Y3964228D01*
X4188409Y3970578D01*
X4188409Y4039412D01*
X4187698Y4045762D01*
X4185767Y4051198D01*
X4182719Y4056126D01*
X4178604Y4060190D01*
X4173728Y4063288D01*
X4168241Y4065168D01*
X4161942Y4065879D01*
X4038092Y4065879D01*
X4031742Y4065168D01*
X4026306Y4063288D01*
X4021378Y4060190D01*
X4020058Y4058869D01*
X4016756Y4056684D01*
X4012895Y4055922D01*
X3562248Y4055922D01*
X3558895Y4056481D01*
X3555898Y4058107D01*
X3553612Y4060647D01*
X3550208Y4066082D01*
X3546094Y4070197D01*
X3541217Y4073296D01*
X3535730Y4075176D01*
X3529431Y4075887D01*
X3440582Y4075887D01*
X3434232Y4075176D01*
X3428796Y4073296D01*
X3423869Y4070197D01*
X3419805Y4066082D01*
X3416706Y4061206D01*
X3414826Y4055719D01*
X3414115Y4049420D01*
X3414115Y3950563D01*
X3414826Y3944264D01*
X3416706Y3938778D01*
X3419805Y3933901D01*
X3423869Y3929786D01*
X3428796Y3926687D01*
X3434232Y3924808D01*
G37*
G36*
X1470558Y3924096D02*
G01*
X1559407Y3924096D01*
X1565757Y3924808D01*
X1571193Y3926687D01*
X1576120Y3929786D01*
X1580184Y3933901D01*
X1583283Y3938778D01*
X1585163Y3944264D01*
X1585874Y3950563D01*
X1585874Y4049420D01*
X1585163Y4055719D01*
X1583283Y4061206D01*
X1580184Y4066082D01*
X1576120Y4070197D01*
X1571193Y4073296D01*
X1565757Y4075176D01*
X1559407Y4075887D01*
X1470558Y4075887D01*
X1464259Y4075176D01*
X1458772Y4073296D01*
X1453896Y4070197D01*
X1449781Y4066082D01*
X1446682Y4061206D01*
X1445463Y4057700D01*
X1443329Y4054144D01*
X1439976Y4051757D01*
X1435912Y4050893D01*
X980440Y4050893D01*
X977595Y4051300D01*
X973683Y4053281D01*
X968248Y4055211D01*
X961898Y4055922D01*
X838047Y4055922D01*
X831748Y4055211D01*
X826262Y4053281D01*
X821385Y4050182D01*
X817270Y4046118D01*
X814222Y4041190D01*
X812292Y4035755D01*
X811580Y4029405D01*
X811580Y3960571D01*
X812292Y3954221D01*
X814222Y3948785D01*
X817270Y3943858D01*
X821385Y3939794D01*
X826262Y3936695D01*
X831748Y3934815D01*
X838047Y3934104D01*
X961898Y3934104D01*
X968248Y3934815D01*
X973683Y3936695D01*
X978611Y3939794D01*
X985266Y3946855D01*
X988212Y3948531D01*
X991565Y3949090D01*
X1435912Y3949090D01*
X1439976Y3948226D01*
X1443329Y3945839D01*
X1445463Y3942283D01*
X1446682Y3938778D01*
X1449781Y3933901D01*
X1453896Y3929786D01*
X1458772Y3926687D01*
X1464259Y3924808D01*
G37*
G36*
X2351836Y3930904D02*
G01*
X2365095Y3930904D01*
X2371394Y3931615D01*
X2376881Y3933494D01*
X2381758Y3936593D01*
X2385872Y3940657D01*
X2388920Y3945585D01*
X2390851Y3951020D01*
X2391562Y3957370D01*
X2391562Y3972051D01*
X2351836Y3972051D01*
G37*
G36*
X2634894Y3930904D02*
G01*
X2648153Y3930904D01*
X2648153Y3972051D01*
X2608427Y3972051D01*
X2608427Y3957370D01*
X2609138Y3951020D01*
X2611069Y3945585D01*
X2614117Y3940657D01*
X2618232Y3936593D01*
X2623108Y3933494D01*
X2628595Y3931615D01*
G37*
G36*
X2351836Y4027932D02*
G01*
X2391562Y4027932D01*
X2391562Y4042613D01*
X2390851Y4048963D01*
X2388920Y4054398D01*
X2385872Y4059326D01*
X2381758Y4063390D01*
X2376881Y4066489D01*
X2371394Y4068368D01*
X2365095Y4069079D01*
X2351836Y4069079D01*
G37*
G36*
X2608427Y4027932D02*
G01*
X2648153Y4027932D01*
X2648153Y4069079D01*
X2634894Y4069079D01*
X2628595Y4068368D01*
X2623108Y4066489D01*
X2618232Y4063390D01*
X2614117Y4059326D01*
X2611069Y4054398D01*
X2609138Y4048963D01*
X2608427Y4042613D01*
G37*
G36*
X4038092Y2134108D02*
G01*
X4161942Y2134108D01*
X4168241Y2134819D01*
X4173728Y2136698D01*
X4178604Y2139797D01*
X4182719Y2143861D01*
X4185767Y2148789D01*
X4187698Y2154224D01*
X4188409Y2160574D01*
X4188409Y2229408D01*
X4187698Y2235758D01*
X4185767Y2241194D01*
X4182719Y2246122D01*
X4178604Y2250186D01*
X4173728Y2253284D01*
X4168241Y2255215D01*
X4161942Y2255926D01*
X4038092Y2255926D01*
X4031742Y2255215D01*
X4025646Y2253081D01*
X4022699Y2252522D01*
X4019651Y2252827D01*
X4009796Y2255469D01*
X3999992Y2256332D01*
X3990187Y2255469D01*
X3980738Y2252929D01*
X3971798Y2248814D01*
X3963771Y2243175D01*
X3956812Y2236216D01*
X3951173Y2228189D01*
X3947058Y2219248D01*
X3944518Y2209800D01*
X3943654Y2199995D01*
X3944518Y2190191D01*
X3947058Y2180742D01*
X3951173Y2171801D01*
X3956812Y2163775D01*
X3963771Y2156815D01*
X3971798Y2151176D01*
X3980738Y2147062D01*
X3990187Y2144522D01*
X3999992Y2143658D01*
X4013250Y2144725D01*
X4016552Y2143810D01*
X4019346Y2141829D01*
X4021378Y2139797D01*
X4026306Y2136698D01*
X4031742Y2134819D01*
G37*

%LPD*%
D10*
X1684997Y3999992D02*
G01*
X2174671Y3999992D01*
X1684997Y3499993D02*
G01*
X2174671Y3499993D01*
X1684997Y2999994D02*
G01*
X2174671Y2999994D01*
X3314997Y1999995D02*
G01*
X2825318Y1999995D01*
X3314997Y1499996D02*
G01*
X2825318Y1499996D01*
X3314997Y999997D02*
G01*
X2825318Y999997D01*
X1684985Y999997D02*
G01*
X2174661Y999997D01*
X2174664Y1000000D01*
X2174664Y1499994D02*
G01*
X2174661Y1499996D01*
X1684985Y1499996D01*
X4099991Y1004999D02*
G01*
X4094990Y999997D01*
X3485006Y999997D01*
X4099991Y1505000D02*
G01*
X4094988Y1499996D01*
X3485006Y1499996D01*
X4099991Y2004999D02*
G01*
X4094988Y1999995D01*
X3485006Y1999995D01*
X3485006Y2999994D02*
G01*
X3490008Y3004995D01*
X4099991Y3004995D01*
X2825328Y3499990D02*
G01*
X3315002Y3499990D01*
X3315004Y3499993D01*
X900000Y2994992D02*
G01*
X900000Y2999994D01*
X1515008Y2999994D01*
D11*
X4299991Y2999994D02*
G01*
X4299991Y4499990D01*
X4299991Y4499990D01*
X4299991Y2899994D02*
G01*
X4299991Y2999996D01*
X4299991Y2999996D01*
X4299991Y2799994D02*
G01*
X4299991Y2899996D01*
X4299991Y2899996D01*
X4299991Y2699994D02*
G01*
X4299991Y2799996D01*
X4299991Y2799996D01*
X4299991Y500001D02*
G01*
X4299991Y500001D01*
X4299991Y2699994D01*
X3999991Y500001D02*
G01*
X3999991Y499998D01*
X4099991Y499998D01*
X4099991Y500001D02*
G01*
X4199989Y500001D01*
X4199991Y499998D01*
X4199991Y499998D02*
G01*
X4299991Y499998D01*
X4299991Y500001D01*
X3999991Y4499990D02*
G01*
X4099991Y4499990D01*
X4099991Y4499990D02*
G01*
X4199991Y4499990D01*
X4199991Y4499990D02*
G01*
X4299991Y4499990D01*
X700023Y500126D02*
G01*
X800023Y500126D01*
X800023Y500126D02*
G01*
X900023Y500126D01*
X900023Y500126D02*
G01*
X999997Y500126D01*
X700023Y4500118D02*
G01*
X800023Y4500118D01*
X800023Y4500118D02*
G01*
X900023Y4500118D01*
X900023Y4500118D02*
G01*
X999997Y4500118D01*
X700023Y500126D02*
G01*
X700023Y4500118D01*
D10*
X900000Y994996D02*
G01*
X905002Y999997D01*
X1514982Y999997D01*
X1514982Y1499996D02*
G01*
X1509976Y1494990D01*
X900000Y1494990D01*
X1684985Y1999995D02*
G01*
X2174750Y1999995D01*
X2174750Y1999995D01*
X900000Y1994992D02*
G01*
X905004Y1999995D01*
X1514982Y1999995D01*
X1515008Y3499993D02*
G01*
X1510002Y3494986D01*
X900000Y3494986D01*
X900000Y3994988D02*
G01*
X905004Y3999992D01*
X1515008Y3999992D01*
X3485006Y3999992D02*
G01*
X3490010Y4004995D01*
X4099991Y4004995D01*
X3485006Y3499993D02*
G01*
X3490008Y3504994D01*
X4099991Y3504994D01*
X2825328Y3999992D02*
G01*
X2825328Y3999992D01*
X3315004Y3999992D01*
X2825328Y2999996D02*
G01*
X2825330Y2999994D01*
X3315004Y2999994D01*
D11*
X899998Y3304997D02*
G01*
X904138Y3300856D01*
D10*
X899998Y3304997D02*
G01*
X905002Y3299993D01*
X999997Y3299993D01*
X899998Y3804996D02*
G01*
X905002Y3799992D01*
X999997Y3799992D01*
X899998Y1805000D02*
G01*
X905002Y1799996D01*
X999997Y1799996D01*
X900000Y2805000D02*
G01*
X905007Y2799994D01*
X1199997Y2799994D01*
X899998Y1305001D02*
G01*
X905002Y1299997D01*
X999997Y1299997D01*
X899998Y805002D02*
G01*
X905002Y799998D01*
X999997Y799998D01*
X4099991Y1194993D02*
G01*
X4094988Y1199997D01*
X3999991Y1199997D01*
X4099991Y1694990D02*
G01*
X3999991Y1794990D01*
X3999991Y1799996D01*
X4099991Y2194991D02*
G01*
X4094988Y2199995D01*
X3999991Y2199995D01*
X4099991Y3694988D02*
G01*
X4094988Y3699992D01*
X3999991Y3699992D01*
X4099991Y3194989D02*
G01*
X4094988Y3199993D01*
X3999991Y3199993D01*
X4099991Y4194987D02*
G01*
X4094988Y4199991D01*
X3999991Y4199991D01*
D12*
G01*
X2325256Y3999992D03*
G01*
X2174607Y3999992D03*
G01*
X2325256Y3499865D03*
G01*
X2174607Y3499865D03*
G01*
X2325256Y2999994D03*
G01*
X2174607Y2999994D03*
G01*
X2325256Y1999996D03*
G01*
X2174607Y1999996D03*
G01*
X2325256Y1499869D03*
G01*
X2174607Y1499869D03*
G01*
X2325256Y999997D03*
G01*
X2174607Y999997D03*
D13*
G01*
X2674733Y3999992D03*
G01*
X2825382Y3999992D03*
G01*
X2674733Y3499865D03*
G01*
X2825382Y3499865D03*
G01*
X2674733Y2999994D03*
G01*
X2825382Y2999994D03*
G01*
X2674733Y1999996D03*
G01*
X2825382Y1999996D03*
G01*
X2674733Y1499869D03*
G01*
X2825382Y1499869D03*
G01*
X2674733Y999997D03*
G01*
X2825382Y999997D03*
D14*
G01*
X1684992Y1999995D03*
G01*
X1514990Y1999995D03*
G01*
X1684992Y1499996D03*
G01*
X1514990Y1499996D03*
G01*
X1684992Y999997D03*
G01*
X1514990Y999997D03*
G01*
X3314997Y3999992D03*
G01*
X3484999Y3999992D03*
G01*
X3314997Y3499993D03*
G01*
X3484999Y3499993D03*
G01*
X3314997Y2999994D03*
G01*
X3484999Y2999994D03*
G01*
X3314997Y1999995D03*
G01*
X3484999Y1999995D03*
G01*
X3314997Y1499996D03*
G01*
X3484999Y1499996D03*
G01*
X3314997Y999997D03*
G01*
X3484999Y999997D03*
D15*
G01*
X899998Y1805000D03*
G01*
X899998Y1994992D03*
G01*
X699998Y1899996D03*
G01*
X899998Y805002D03*
G01*
X899998Y994994D03*
G01*
X699998Y899998D03*
D14*
G01*
X1684997Y3999992D03*
G01*
X1514995Y3999992D03*
G01*
X1684997Y3499993D03*
G01*
X1514995Y3499993D03*
G01*
X1684997Y2999994D03*
G01*
X1514995Y2999994D03*
D15*
G01*
X899998Y3804996D03*
G01*
X899998Y3994988D03*
G01*
X699998Y3899992D03*
G01*
X899998Y3304997D03*
G01*
X899998Y3494989D03*
G01*
X699998Y3399993D03*
G01*
X899998Y2804998D03*
G01*
X899998Y2994990D03*
G01*
X699998Y2899994D03*
G01*
X4099991Y4194987D03*
G01*
X4099991Y4004995D03*
G01*
X4299991Y4099991D03*
G01*
X4099991Y3694988D03*
G01*
X4099991Y3504996D03*
G01*
X4299991Y3599992D03*
G01*
X4099991Y3194989D03*
G01*
X4099991Y3004997D03*
G01*
X4299991Y3099993D03*
G01*
X4099991Y2194991D03*
G01*
X4099991Y2004999D03*
G01*
X4299991Y2099995D03*
G01*
X4099991Y1694992D03*
G01*
X4099991Y1505000D03*
G01*
X4299991Y1599996D03*
G01*
X4099991Y1194993D03*
G01*
X4099991Y1005001D03*
G01*
X4299991Y1099997D03*
G01*
X899998Y1305001D03*
G01*
X899998Y1494993D03*
G01*
X699998Y1399997D03*
D16*
G01*
X3999991Y499998D03*
G01*
X4299991Y499998D03*
G01*
X4199991Y499998D03*
G01*
X4099991Y499998D03*
G01*
X800023Y500126D03*
G01*
X900023Y500126D03*
G01*
X999997Y500126D03*
G01*
X700023Y500126D03*
G01*
X800023Y4500118D03*
G01*
X900023Y4500118D03*
G01*
X999997Y4500118D03*
G01*
X700023Y4500118D03*
G01*
X4099991Y4499990D03*
G01*
X4199991Y4499990D03*
G01*
X4299991Y4499990D03*
G01*
X3999991Y4499990D03*
G01*
X999997Y3799992D03*
G01*
X999997Y3299993D03*
G01*
X1199997Y2799994D03*
G01*
X999997Y1799996D03*
G01*
X999997Y1299997D03*
G01*
X999997Y799998D03*
G01*
X3999991Y3699992D03*
G01*
X3999991Y4199991D03*
G01*
X3999991Y3199993D03*
G01*
X3999991Y2199995D03*
G01*
X3999991Y1799996D03*
G01*
X3999991Y1199997D03*
G01*
X4299991Y2999994D03*
G01*
X4299991Y2899994D03*
G01*
X4299991Y2799994D03*
G01*
X4299991Y2699994D03*
G01*
X5250002Y3249980D03*
G01*
X5250002Y1749983D03*
G01*
X5349989Y1749996D03*
G01*
X5349989Y3249993D03*
D17*
G01*
X107218Y4392782D03*
G01*
X107218Y3892783D03*
G01*
X107218Y3392784D03*
G01*
X107218Y2892785D03*
G01*
X107218Y2392786D03*
G01*
X107218Y1892787D03*
G01*
X107218Y1392788D03*
G01*
X107218Y892789D03*
G01*
X107218Y392790D03*
G01*
X607217Y4892781D03*
G01*
X607217Y392790D03*
G01*
X1107216Y4892781D03*
G01*
X1107216Y4392782D03*
G01*
X1107216Y3892783D03*
G01*
X1107216Y1892787D03*
G01*
X1107216Y892789D03*
G01*
X1149997Y199999D03*
G01*
X1607215Y4892781D03*
G01*
X1607215Y4392782D03*
G01*
X1607215Y2392786D03*
G01*
X1649996Y199999D03*
G01*
X2107214Y4892781D03*
G01*
X2107214Y4392782D03*
G01*
X2107214Y2392786D03*
G01*
X2149995Y199999D03*
G01*
X2607213Y4892781D03*
G01*
X2607213Y4392782D03*
G01*
X2607213Y2392786D03*
G01*
X2649994Y199999D03*
G01*
X3107212Y4892781D03*
G01*
X3107212Y4392782D03*
G01*
X3107212Y3892783D03*
G01*
X3107212Y2892785D03*
G01*
X3107212Y2392786D03*
G01*
X3107212Y1892787D03*
G01*
X3149993Y199999D03*
G01*
X3607211Y4892781D03*
G01*
X3607211Y4392782D03*
G01*
X3607211Y3892783D03*
G01*
X3607211Y2892785D03*
G01*
X3607211Y2392786D03*
G01*
X3607211Y1892787D03*
G01*
X3607211Y892789D03*
G01*
X3607211Y392790D03*
G01*
X4107210Y4892781D03*
G01*
X4107210Y2392786D03*
G01*
X4607209Y4892781D03*
G01*
X4607209Y4392782D03*
G01*
X4607209Y3892783D03*
G01*
X4607209Y892789D03*
G01*
X4607209Y392790D03*
M02*
