G04 Layer: TopPasteMaskLayer*
G04 EasyEDA v6.5.20, 2023-08-22 23:15:59*
G04 a67cddfb3fce44daa9051d46cbbcc19f,10*
G04 Gerber Generator version 0.2*
G04 Scale: 100 percent, Rotated: No, Reflected: No *
G04 Dimensions in millimeters *
G04 leading zeros omitted , absolute positions ,4 integer and 5 decimal *
%FSLAX45Y45*%
%MOMM*%

%ADD10R,0.8999X1.0000*%
%ADD11R,1.2500X0.7000*%

%LPD*%
G36*
X2289454Y4045000D02*
G01*
X2284425Y4039971D01*
X2284425Y4017213D01*
X2321458Y4017213D01*
X2321458Y3984193D01*
X2284425Y3984193D01*
X2284425Y3960012D01*
X2289454Y3954983D01*
X2369413Y3954983D01*
X2374442Y3960012D01*
X2374442Y4039971D01*
X2369413Y4045000D01*
G37*
G36*
X2130450Y4045000D02*
G01*
X2125421Y4039971D01*
X2125421Y3960012D01*
X2130450Y3954983D01*
X2209444Y3954983D01*
X2214422Y3960012D01*
X2214422Y3984193D01*
X2176424Y3984193D01*
X2176424Y4017213D01*
X2214422Y4017213D01*
X2214422Y4039971D01*
X2209444Y4045000D01*
G37*
G36*
X2289454Y3544874D02*
G01*
X2284425Y3539845D01*
X2284425Y3517087D01*
X2321458Y3517087D01*
X2321458Y3484067D01*
X2284425Y3484067D01*
X2284425Y3459886D01*
X2289454Y3454857D01*
X2369413Y3454857D01*
X2374442Y3459886D01*
X2374442Y3539845D01*
X2369413Y3544874D01*
G37*
G36*
X2130450Y3544874D02*
G01*
X2125421Y3539845D01*
X2125421Y3459886D01*
X2130450Y3454857D01*
X2209444Y3454857D01*
X2214422Y3459886D01*
X2214422Y3484067D01*
X2176424Y3484067D01*
X2176424Y3517087D01*
X2214422Y3517087D01*
X2214422Y3539845D01*
X2209444Y3544874D01*
G37*
G36*
X2289454Y3045002D02*
G01*
X2284425Y3039973D01*
X2284425Y3017215D01*
X2321458Y3017215D01*
X2321458Y2984195D01*
X2284425Y2984195D01*
X2284425Y2960014D01*
X2289454Y2954985D01*
X2369413Y2954985D01*
X2374442Y2960014D01*
X2374442Y3039973D01*
X2369413Y3045002D01*
G37*
G36*
X2130450Y3045002D02*
G01*
X2125421Y3039973D01*
X2125421Y2960014D01*
X2130450Y2954985D01*
X2209444Y2954985D01*
X2214422Y2960014D01*
X2214422Y2984195D01*
X2176424Y2984195D01*
X2176424Y3017215D01*
X2214422Y3017215D01*
X2214422Y3039973D01*
X2209444Y3045002D01*
G37*
G36*
X2289454Y2045004D02*
G01*
X2284425Y2039975D01*
X2284425Y2017217D01*
X2321458Y2017217D01*
X2321458Y1984197D01*
X2284425Y1984197D01*
X2284425Y1960016D01*
X2289454Y1954987D01*
X2369413Y1954987D01*
X2374442Y1960016D01*
X2374442Y2039975D01*
X2369413Y2045004D01*
G37*
G36*
X2130450Y2045004D02*
G01*
X2125421Y2039975D01*
X2125421Y1960016D01*
X2130450Y1954987D01*
X2209444Y1954987D01*
X2214422Y1960016D01*
X2214422Y1984197D01*
X2176424Y1984197D01*
X2176424Y2017217D01*
X2214422Y2017217D01*
X2214422Y2039975D01*
X2209444Y2045004D01*
G37*
G36*
X2289454Y1544878D02*
G01*
X2284425Y1539849D01*
X2284425Y1517091D01*
X2321458Y1517091D01*
X2321458Y1484071D01*
X2284425Y1484071D01*
X2284425Y1459890D01*
X2289454Y1454861D01*
X2369413Y1454861D01*
X2374442Y1459890D01*
X2374442Y1539849D01*
X2369413Y1544878D01*
G37*
G36*
X2130450Y1544878D02*
G01*
X2125421Y1539849D01*
X2125421Y1459890D01*
X2130450Y1454861D01*
X2209444Y1454861D01*
X2214422Y1459890D01*
X2214422Y1484071D01*
X2176424Y1484071D01*
X2176424Y1517091D01*
X2214422Y1517091D01*
X2214422Y1539849D01*
X2209444Y1544878D01*
G37*
G36*
X2289454Y1045006D02*
G01*
X2284425Y1039977D01*
X2284425Y1017219D01*
X2321458Y1017219D01*
X2321458Y984199D01*
X2284425Y984199D01*
X2284425Y960018D01*
X2289454Y954989D01*
X2369413Y954989D01*
X2374442Y960018D01*
X2374442Y1039977D01*
X2369413Y1045006D01*
G37*
G36*
X2130450Y1045006D02*
G01*
X2125421Y1039977D01*
X2125421Y960018D01*
X2130450Y954989D01*
X2209444Y954989D01*
X2214422Y960018D01*
X2214422Y984199D01*
X2176424Y984199D01*
X2176424Y1017219D01*
X2214422Y1017219D01*
X2214422Y1039977D01*
X2209444Y1045006D01*
G37*
G36*
X2630576Y4045000D02*
G01*
X2625547Y4039971D01*
X2625547Y3960012D01*
X2630576Y3954983D01*
X2710535Y3954983D01*
X2715564Y3960012D01*
X2715564Y3982770D01*
X2678531Y3982770D01*
X2678531Y4015790D01*
X2715564Y4015790D01*
X2715564Y4039971D01*
X2710535Y4045000D01*
G37*
G36*
X2790545Y4045000D02*
G01*
X2785567Y4039971D01*
X2785567Y4015790D01*
X2823565Y4015790D01*
X2823565Y3982770D01*
X2785567Y3982770D01*
X2785567Y3960012D01*
X2790545Y3954983D01*
X2869539Y3954983D01*
X2874568Y3960012D01*
X2874568Y4039971D01*
X2869539Y4045000D01*
G37*
G36*
X2630576Y3544874D02*
G01*
X2625547Y3539845D01*
X2625547Y3459886D01*
X2630576Y3454857D01*
X2710535Y3454857D01*
X2715564Y3459886D01*
X2715564Y3482644D01*
X2678531Y3482644D01*
X2678531Y3515664D01*
X2715564Y3515664D01*
X2715564Y3539845D01*
X2710535Y3544874D01*
G37*
G36*
X2790545Y3544874D02*
G01*
X2785567Y3539845D01*
X2785567Y3515664D01*
X2823565Y3515664D01*
X2823565Y3482644D01*
X2785567Y3482644D01*
X2785567Y3459886D01*
X2790545Y3454857D01*
X2869539Y3454857D01*
X2874568Y3459886D01*
X2874568Y3539845D01*
X2869539Y3544874D01*
G37*
G36*
X2630576Y3045002D02*
G01*
X2625547Y3039973D01*
X2625547Y2960014D01*
X2630576Y2954985D01*
X2710535Y2954985D01*
X2715564Y2960014D01*
X2715564Y2982772D01*
X2678531Y2982772D01*
X2678531Y3015792D01*
X2715564Y3015792D01*
X2715564Y3039973D01*
X2710535Y3045002D01*
G37*
G36*
X2790545Y3045002D02*
G01*
X2785567Y3039973D01*
X2785567Y3015792D01*
X2823565Y3015792D01*
X2823565Y2982772D01*
X2785567Y2982772D01*
X2785567Y2960014D01*
X2790545Y2954985D01*
X2869539Y2954985D01*
X2874568Y2960014D01*
X2874568Y3039973D01*
X2869539Y3045002D01*
G37*
G36*
X2630576Y2045004D02*
G01*
X2625547Y2039975D01*
X2625547Y1960016D01*
X2630576Y1954987D01*
X2710535Y1954987D01*
X2715564Y1960016D01*
X2715564Y1982774D01*
X2678531Y1982774D01*
X2678531Y2015794D01*
X2715564Y2015794D01*
X2715564Y2039975D01*
X2710535Y2045004D01*
G37*
G36*
X2790545Y2045004D02*
G01*
X2785567Y2039975D01*
X2785567Y2015794D01*
X2823565Y2015794D01*
X2823565Y1982774D01*
X2785567Y1982774D01*
X2785567Y1960016D01*
X2790545Y1954987D01*
X2869539Y1954987D01*
X2874568Y1960016D01*
X2874568Y2039975D01*
X2869539Y2045004D01*
G37*
G36*
X2630576Y1544878D02*
G01*
X2625547Y1539849D01*
X2625547Y1459890D01*
X2630576Y1454861D01*
X2710535Y1454861D01*
X2715564Y1459890D01*
X2715564Y1482648D01*
X2678531Y1482648D01*
X2678531Y1515668D01*
X2715564Y1515668D01*
X2715564Y1539849D01*
X2710535Y1544878D01*
G37*
G36*
X2790545Y1544878D02*
G01*
X2785567Y1539849D01*
X2785567Y1515668D01*
X2823565Y1515668D01*
X2823565Y1482648D01*
X2785567Y1482648D01*
X2785567Y1459890D01*
X2790545Y1454861D01*
X2869539Y1454861D01*
X2874568Y1459890D01*
X2874568Y1539849D01*
X2869539Y1544878D01*
G37*
G36*
X2630576Y1045006D02*
G01*
X2625547Y1039977D01*
X2625547Y960018D01*
X2630576Y954989D01*
X2710535Y954989D01*
X2715564Y960018D01*
X2715564Y982776D01*
X2678531Y982776D01*
X2678531Y1015796D01*
X2715564Y1015796D01*
X2715564Y1039977D01*
X2710535Y1045006D01*
G37*
G36*
X2790545Y1045006D02*
G01*
X2785567Y1039977D01*
X2785567Y1015796D01*
X2823565Y1015796D01*
X2823565Y982776D01*
X2785567Y982776D01*
X2785567Y960018D01*
X2790545Y954989D01*
X2869539Y954989D01*
X2874568Y960018D01*
X2874568Y1039977D01*
X2869539Y1045006D01*
G37*
D10*
G01*
X1684992Y1999995D03*
G01*
X1514990Y1999995D03*
G01*
X1684992Y1499996D03*
G01*
X1514990Y1499996D03*
G01*
X1684992Y999997D03*
G01*
X1514990Y999997D03*
G01*
X3314997Y3999992D03*
G01*
X3484999Y3999992D03*
G01*
X3314997Y3499993D03*
G01*
X3484999Y3499993D03*
G01*
X3314997Y2999994D03*
G01*
X3484999Y2999994D03*
G01*
X3314997Y1999995D03*
G01*
X3484999Y1999995D03*
G01*
X3314997Y1499996D03*
G01*
X3484999Y1499996D03*
G01*
X3314997Y999997D03*
G01*
X3484999Y999997D03*
D11*
G01*
X899998Y1805000D03*
G01*
X899998Y1994992D03*
G01*
X699998Y1899996D03*
G01*
X899998Y805002D03*
G01*
X899998Y994994D03*
G01*
X699998Y899998D03*
D10*
G01*
X1684997Y3999992D03*
G01*
X1514995Y3999992D03*
G01*
X1684997Y3499993D03*
G01*
X1514995Y3499993D03*
G01*
X1684997Y2999994D03*
G01*
X1514995Y2999994D03*
D11*
G01*
X899998Y3804996D03*
G01*
X899998Y3994988D03*
G01*
X699998Y3899992D03*
G01*
X899998Y3304997D03*
G01*
X899998Y3494989D03*
G01*
X699998Y3399993D03*
G01*
X899998Y2804998D03*
G01*
X899998Y2994990D03*
G01*
X699998Y2899994D03*
G01*
X4099991Y4194987D03*
G01*
X4099991Y4004995D03*
G01*
X4299991Y4099991D03*
G01*
X4099991Y3694988D03*
G01*
X4099991Y3504996D03*
G01*
X4299991Y3599992D03*
G01*
X4099991Y3194989D03*
G01*
X4099991Y3004997D03*
G01*
X4299991Y3099993D03*
G01*
X4099991Y2194991D03*
G01*
X4099991Y2004999D03*
G01*
X4299991Y2099995D03*
G01*
X4099991Y1694992D03*
G01*
X4099991Y1505000D03*
G01*
X4299991Y1599996D03*
G01*
X4099991Y1194993D03*
G01*
X4099991Y1005001D03*
G01*
X4299991Y1099997D03*
G01*
X899998Y1305001D03*
G01*
X899998Y1494993D03*
G01*
X699998Y1399997D03*
M02*
