G04 Layer: BottomSolderMaskLayer*
G04 EasyEDA v6.5.20, 2023-08-22 23:15:59*
G04 a67cddfb3fce44daa9051d46cbbcc19f,10*
G04 Gerber Generator version 0.2*
G04 Scale: 100 percent, Rotated: No, Reflected: No *
G04 Dimensions in millimeters *
G04 leading zeros omitted , absolute positions ,4 integer and 5 decimal *
%FSLAX45Y45*%
%MOMM*%

%AMMACRO1*4,1,4,-0.8509,-1.6497,-0.8509,1.6497,0.8509,1.6497,0.8509,-1.6497,-0.8509,-1.6497,0*%
%ADD10MACRO1*%

%LPD*%
G36*
X5813043Y3287521D02*
G01*
X5802629Y3288029D01*
X5792724Y3289807D01*
X5782818Y3292855D01*
X5773420Y3297173D01*
X5764784Y3302507D01*
X5756656Y3308857D01*
X5749290Y3315970D01*
X5742940Y3324097D01*
X5737606Y3332987D01*
X5733541Y3342386D01*
X5730493Y3352037D01*
X5728461Y3362197D01*
X5727954Y3372357D01*
X5727954Y3532631D01*
X5728461Y3542792D01*
X5730493Y3552952D01*
X5733541Y3562604D01*
X5737606Y3572002D01*
X5742940Y3580892D01*
X5749290Y3589020D01*
X5756656Y3596131D01*
X5764784Y3602481D01*
X5773420Y3607815D01*
X5782818Y3612134D01*
X5792724Y3615181D01*
X5802629Y3616960D01*
X5813043Y3617468D01*
X5823204Y3616960D01*
X5833363Y3615181D01*
X5843270Y3612134D01*
X5852413Y3607815D01*
X5861304Y3602481D01*
X5869431Y3596131D01*
X5876543Y3589020D01*
X5882893Y3580892D01*
X5888227Y3572002D01*
X5892545Y3562604D01*
X5895593Y3552952D01*
X5897372Y3542792D01*
X5898134Y3532631D01*
X5898134Y3372357D01*
X5897372Y3362197D01*
X5895593Y3352037D01*
X5892545Y3342386D01*
X5888227Y3332987D01*
X5882893Y3324097D01*
X5876543Y3315970D01*
X5869431Y3308857D01*
X5861304Y3302507D01*
X5852668Y3297173D01*
X5843270Y3292855D01*
X5833363Y3289807D01*
X5823204Y3288029D01*
G37*
G36*
X5559043Y3287521D02*
G01*
X5548629Y3288029D01*
X5538724Y3289807D01*
X5528818Y3292855D01*
X5519420Y3297173D01*
X5510784Y3302507D01*
X5502656Y3308857D01*
X5495290Y3315970D01*
X5488940Y3324097D01*
X5483606Y3332987D01*
X5479541Y3342386D01*
X5476493Y3352037D01*
X5474461Y3362197D01*
X5473954Y3372357D01*
X5473954Y3532631D01*
X5474461Y3542792D01*
X5476493Y3552952D01*
X5479541Y3562604D01*
X5483606Y3572002D01*
X5488940Y3580892D01*
X5495290Y3589020D01*
X5502656Y3596131D01*
X5510784Y3602481D01*
X5519420Y3607815D01*
X5528818Y3612134D01*
X5538724Y3615181D01*
X5548629Y3616960D01*
X5559043Y3617468D01*
X5569204Y3616960D01*
X5579363Y3615181D01*
X5589270Y3612134D01*
X5598413Y3607815D01*
X5607304Y3602481D01*
X5615431Y3596131D01*
X5622543Y3589020D01*
X5628893Y3580892D01*
X5634227Y3572002D01*
X5638545Y3562604D01*
X5641593Y3552952D01*
X5643372Y3542792D01*
X5644134Y3532631D01*
X5644134Y3372357D01*
X5643372Y3362197D01*
X5641593Y3352037D01*
X5638545Y3342386D01*
X5634227Y3332987D01*
X5628893Y3324097D01*
X5622543Y3315970D01*
X5615431Y3308857D01*
X5607304Y3302507D01*
X5598668Y3297173D01*
X5589270Y3292855D01*
X5579363Y3289807D01*
X5569204Y3288029D01*
G37*
D10*
G01*
X5305044Y3452494D03*
G36*
X5051043Y3287521D02*
G01*
X5040629Y3288029D01*
X5030724Y3289807D01*
X5020818Y3292855D01*
X5011420Y3297173D01*
X5002784Y3302507D01*
X4994656Y3308857D01*
X4987290Y3315970D01*
X4980940Y3324097D01*
X4975606Y3332987D01*
X4971541Y3342386D01*
X4968493Y3352037D01*
X4966461Y3362197D01*
X4965954Y3372357D01*
X4965954Y3532631D01*
X4966461Y3542792D01*
X4968493Y3552952D01*
X4971541Y3562604D01*
X4975606Y3572002D01*
X4980940Y3580892D01*
X4987290Y3589020D01*
X4994656Y3596131D01*
X5002784Y3602481D01*
X5011420Y3607815D01*
X5020818Y3612134D01*
X5030724Y3615181D01*
X5040629Y3616960D01*
X5051043Y3617468D01*
X5061204Y3616960D01*
X5071363Y3615181D01*
X5081270Y3612134D01*
X5090413Y3607815D01*
X5099304Y3602481D01*
X5107431Y3596131D01*
X5114543Y3589020D01*
X5120893Y3580892D01*
X5126227Y3572002D01*
X5130545Y3562604D01*
X5133593Y3552952D01*
X5135372Y3542792D01*
X5136134Y3532631D01*
X5136134Y3372357D01*
X5135372Y3362197D01*
X5133593Y3352037D01*
X5130545Y3342386D01*
X5126227Y3332987D01*
X5120893Y3324097D01*
X5114543Y3315970D01*
X5107431Y3308857D01*
X5099304Y3302507D01*
X5090668Y3297173D01*
X5081270Y3292855D01*
X5071363Y3289807D01*
X5061204Y3288029D01*
G37*
G36*
X4797043Y3287521D02*
G01*
X4786629Y3288029D01*
X4776724Y3289807D01*
X4766818Y3292855D01*
X4757420Y3297173D01*
X4748784Y3302507D01*
X4740656Y3308857D01*
X4733290Y3315970D01*
X4726940Y3324097D01*
X4721606Y3332987D01*
X4717541Y3342386D01*
X4714493Y3352037D01*
X4712461Y3362197D01*
X4711954Y3372357D01*
X4711954Y3532631D01*
X4712461Y3542792D01*
X4714493Y3552952D01*
X4717541Y3562604D01*
X4721606Y3572002D01*
X4726940Y3580892D01*
X4733290Y3589020D01*
X4740656Y3596131D01*
X4748784Y3602481D01*
X4757420Y3607815D01*
X4766818Y3612134D01*
X4776724Y3615181D01*
X4786629Y3616960D01*
X4797043Y3617468D01*
X4807204Y3616960D01*
X4817363Y3615181D01*
X4827270Y3612134D01*
X4836413Y3607815D01*
X4845304Y3602481D01*
X4853431Y3596131D01*
X4860543Y3589020D01*
X4866893Y3580892D01*
X4872227Y3572002D01*
X4876545Y3562604D01*
X4879593Y3552952D01*
X4881372Y3542792D01*
X4882134Y3532631D01*
X4882134Y3372357D01*
X4881372Y3362197D01*
X4879593Y3352037D01*
X4876545Y3342386D01*
X4872227Y3332987D01*
X4866893Y3324097D01*
X4860543Y3315970D01*
X4853431Y3308857D01*
X4845304Y3302507D01*
X4836668Y3297173D01*
X4827270Y3292855D01*
X4817363Y3289807D01*
X4807204Y3288029D01*
G37*
G36*
X4543043Y3287521D02*
G01*
X4532629Y3288029D01*
X4522724Y3289807D01*
X4512818Y3292855D01*
X4503420Y3297173D01*
X4494784Y3302507D01*
X4486656Y3308857D01*
X4479290Y3315970D01*
X4472940Y3324097D01*
X4467606Y3332987D01*
X4463541Y3342386D01*
X4460493Y3352037D01*
X4458461Y3362197D01*
X4457954Y3372357D01*
X4457954Y3532631D01*
X4458461Y3542792D01*
X4460493Y3552952D01*
X4463541Y3562604D01*
X4467606Y3572002D01*
X4472940Y3580892D01*
X4479290Y3589020D01*
X4486656Y3596131D01*
X4494784Y3602481D01*
X4503420Y3607815D01*
X4512818Y3612134D01*
X4522724Y3615181D01*
X4532629Y3616960D01*
X4543043Y3617468D01*
X4553204Y3616960D01*
X4563363Y3615181D01*
X4573270Y3612134D01*
X4582413Y3607815D01*
X4591304Y3602481D01*
X4599431Y3596131D01*
X4606543Y3589020D01*
X4612893Y3580892D01*
X4618227Y3572002D01*
X4622545Y3562604D01*
X4625593Y3552952D01*
X4627372Y3542792D01*
X4628134Y3532631D01*
X4628134Y3372357D01*
X4627372Y3362197D01*
X4625593Y3352037D01*
X4622545Y3342386D01*
X4618227Y3332987D01*
X4612893Y3324097D01*
X4606543Y3315970D01*
X4599431Y3308857D01*
X4591304Y3302507D01*
X4582668Y3297173D01*
X4573270Y3292855D01*
X4563363Y3289807D01*
X4553204Y3288029D01*
G37*
G36*
X4289043Y3287521D02*
G01*
X4278629Y3288029D01*
X4268724Y3289807D01*
X4258818Y3292855D01*
X4249420Y3297173D01*
X4240784Y3302507D01*
X4232656Y3308857D01*
X4225290Y3315970D01*
X4218940Y3324097D01*
X4213606Y3332987D01*
X4209541Y3342386D01*
X4206493Y3352037D01*
X4204461Y3362197D01*
X4203954Y3372357D01*
X4203954Y3532631D01*
X4204461Y3542792D01*
X4206493Y3552952D01*
X4209541Y3562604D01*
X4213606Y3572002D01*
X4218940Y3580892D01*
X4225290Y3589020D01*
X4232656Y3596131D01*
X4240784Y3602481D01*
X4249420Y3607815D01*
X4258818Y3612134D01*
X4268724Y3615181D01*
X4278629Y3616960D01*
X4289043Y3617468D01*
X4299204Y3616960D01*
X4309363Y3615181D01*
X4319270Y3612134D01*
X4328413Y3607815D01*
X4337304Y3602481D01*
X4345431Y3596131D01*
X4352543Y3589020D01*
X4358893Y3580892D01*
X4364227Y3572002D01*
X4368545Y3562604D01*
X4371593Y3552952D01*
X4373372Y3542792D01*
X4374134Y3532631D01*
X4374134Y3372357D01*
X4373372Y3362197D01*
X4371593Y3352037D01*
X4368545Y3342386D01*
X4364227Y3332987D01*
X4358893Y3324097D01*
X4352543Y3315970D01*
X4345431Y3308857D01*
X4337304Y3302507D01*
X4328668Y3297173D01*
X4319270Y3292855D01*
X4309363Y3289807D01*
X4299204Y3288029D01*
G37*
G01*
X4035044Y3452494D03*
G36*
X3781043Y3287521D02*
G01*
X3770629Y3288029D01*
X3760724Y3289807D01*
X3750818Y3292855D01*
X3741420Y3297173D01*
X3732784Y3302507D01*
X3724656Y3308857D01*
X3717290Y3315970D01*
X3710940Y3324097D01*
X3705606Y3332987D01*
X3701541Y3342386D01*
X3698493Y3352037D01*
X3696461Y3362197D01*
X3695954Y3372357D01*
X3695954Y3532631D01*
X3696461Y3542792D01*
X3698493Y3552952D01*
X3701541Y3562604D01*
X3705606Y3572002D01*
X3710940Y3580892D01*
X3717290Y3589020D01*
X3724656Y3596131D01*
X3732784Y3602481D01*
X3741420Y3607815D01*
X3750818Y3612134D01*
X3760724Y3615181D01*
X3770629Y3616960D01*
X3781043Y3617468D01*
X3791204Y3616960D01*
X3801363Y3615181D01*
X3811270Y3612134D01*
X3820413Y3607815D01*
X3829304Y3602481D01*
X3837431Y3596131D01*
X3844543Y3589020D01*
X3850893Y3580892D01*
X3856227Y3572002D01*
X3860545Y3562604D01*
X3863593Y3552952D01*
X3865372Y3542792D01*
X3866134Y3532631D01*
X3866134Y3372357D01*
X3865372Y3362197D01*
X3863593Y3352037D01*
X3860545Y3342386D01*
X3856227Y3332987D01*
X3850893Y3324097D01*
X3844543Y3315970D01*
X3837431Y3308857D01*
X3829304Y3302507D01*
X3820668Y3297173D01*
X3811270Y3292855D01*
X3801363Y3289807D01*
X3791204Y3288029D01*
G37*
G36*
X3527043Y3287521D02*
G01*
X3516629Y3288029D01*
X3506724Y3289807D01*
X3496818Y3292855D01*
X3487420Y3297173D01*
X3478784Y3302507D01*
X3470656Y3308857D01*
X3463290Y3315970D01*
X3456940Y3324097D01*
X3451606Y3332987D01*
X3447541Y3342386D01*
X3444493Y3352037D01*
X3442461Y3362197D01*
X3441954Y3372357D01*
X3441954Y3532631D01*
X3442461Y3542792D01*
X3444493Y3552952D01*
X3447541Y3562604D01*
X3451606Y3572002D01*
X3456940Y3580892D01*
X3463290Y3589020D01*
X3470656Y3596131D01*
X3478784Y3602481D01*
X3487420Y3607815D01*
X3496818Y3612134D01*
X3506724Y3615181D01*
X3516629Y3616960D01*
X3527043Y3617468D01*
X3537204Y3616960D01*
X3547363Y3615181D01*
X3557270Y3612134D01*
X3566413Y3607815D01*
X3575304Y3602481D01*
X3583431Y3596131D01*
X3590543Y3589020D01*
X3596893Y3580892D01*
X3602227Y3572002D01*
X3606545Y3562604D01*
X3609593Y3552952D01*
X3611372Y3542792D01*
X3612134Y3532631D01*
X3612134Y3372357D01*
X3611372Y3362197D01*
X3609593Y3352037D01*
X3606545Y3342386D01*
X3602227Y3332987D01*
X3596893Y3324097D01*
X3590543Y3315970D01*
X3583431Y3308857D01*
X3575304Y3302507D01*
X3566668Y3297173D01*
X3557270Y3292855D01*
X3547363Y3289807D01*
X3537204Y3288029D01*
G37*
G36*
X3273043Y3287521D02*
G01*
X3262629Y3288029D01*
X3252724Y3289807D01*
X3242818Y3292855D01*
X3233420Y3297173D01*
X3224784Y3302507D01*
X3216656Y3308857D01*
X3209290Y3315970D01*
X3202940Y3324097D01*
X3197606Y3332987D01*
X3193541Y3342386D01*
X3190493Y3352037D01*
X3188461Y3362197D01*
X3187954Y3372357D01*
X3187954Y3532631D01*
X3188461Y3542792D01*
X3190493Y3552952D01*
X3193541Y3562604D01*
X3197606Y3572002D01*
X3202940Y3580892D01*
X3209290Y3589020D01*
X3216656Y3596131D01*
X3224784Y3602481D01*
X3233420Y3607815D01*
X3242818Y3612134D01*
X3252724Y3615181D01*
X3262629Y3616960D01*
X3273043Y3617468D01*
X3283204Y3616960D01*
X3293363Y3615181D01*
X3303270Y3612134D01*
X3312413Y3607815D01*
X3321304Y3602481D01*
X3329431Y3596131D01*
X3336797Y3589020D01*
X3342893Y3580892D01*
X3348227Y3572002D01*
X3352545Y3562604D01*
X3355593Y3552952D01*
X3357372Y3542792D01*
X3358134Y3532631D01*
X3358134Y3372357D01*
X3357372Y3362197D01*
X3355593Y3352037D01*
X3352545Y3342386D01*
X3348227Y3332987D01*
X3342893Y3324097D01*
X3336797Y3315970D01*
X3329431Y3308857D01*
X3321304Y3302507D01*
X3312668Y3297173D01*
X3303270Y3292855D01*
X3293363Y3289807D01*
X3283204Y3288029D01*
G37*
G36*
X3019043Y3287521D02*
G01*
X3008629Y3288029D01*
X2998724Y3289807D01*
X2988818Y3292855D01*
X2979420Y3297173D01*
X2970784Y3302507D01*
X2962656Y3308857D01*
X2955290Y3315970D01*
X2948940Y3324097D01*
X2943606Y3332987D01*
X2939541Y3342386D01*
X2936493Y3352037D01*
X2934461Y3362197D01*
X2933954Y3372357D01*
X2933954Y3532631D01*
X2934461Y3542792D01*
X2936493Y3552952D01*
X2939541Y3562604D01*
X2943606Y3572002D01*
X2948940Y3580892D01*
X2955290Y3589020D01*
X2962656Y3596131D01*
X2970784Y3602481D01*
X2979420Y3607815D01*
X2988818Y3612134D01*
X2998724Y3615181D01*
X3008629Y3616960D01*
X3019043Y3617468D01*
X3029204Y3616960D01*
X3039363Y3615181D01*
X3049270Y3612134D01*
X3058413Y3607815D01*
X3067304Y3602481D01*
X3075431Y3596131D01*
X3082797Y3589020D01*
X3088893Y3580892D01*
X3094227Y3572002D01*
X3098545Y3562604D01*
X3101593Y3552952D01*
X3103372Y3542792D01*
X3104134Y3532631D01*
X3104134Y3372357D01*
X3103372Y3362197D01*
X3101593Y3352037D01*
X3098545Y3342386D01*
X3094227Y3332987D01*
X3088893Y3324097D01*
X3082797Y3315970D01*
X3075431Y3308857D01*
X3067304Y3302507D01*
X3058668Y3297173D01*
X3049270Y3292855D01*
X3039363Y3289807D01*
X3029204Y3288029D01*
G37*
G01*
X2765044Y3452494D03*
G36*
X2511043Y3287521D02*
G01*
X2500629Y3288029D01*
X2490724Y3289807D01*
X2480818Y3292855D01*
X2471420Y3297173D01*
X2462784Y3302507D01*
X2454656Y3308857D01*
X2447290Y3315970D01*
X2440940Y3324097D01*
X2435606Y3332987D01*
X2431541Y3342386D01*
X2428493Y3352037D01*
X2426461Y3362197D01*
X2425954Y3372357D01*
X2425954Y3532631D01*
X2426461Y3542792D01*
X2428493Y3552952D01*
X2431541Y3562604D01*
X2435606Y3572002D01*
X2440940Y3580892D01*
X2447290Y3589020D01*
X2454656Y3596131D01*
X2462784Y3602481D01*
X2471420Y3607815D01*
X2480818Y3612134D01*
X2490724Y3615181D01*
X2500629Y3616960D01*
X2511043Y3617468D01*
X2521204Y3616960D01*
X2531363Y3615181D01*
X2541270Y3612134D01*
X2550413Y3607815D01*
X2559304Y3602481D01*
X2567431Y3596131D01*
X2574797Y3589020D01*
X2580893Y3580892D01*
X2586227Y3572002D01*
X2590545Y3562604D01*
X2593593Y3552952D01*
X2595372Y3542792D01*
X2596134Y3532631D01*
X2596134Y3372357D01*
X2595372Y3362197D01*
X2593593Y3352037D01*
X2590545Y3342386D01*
X2586227Y3332987D01*
X2580893Y3324097D01*
X2574797Y3315970D01*
X2567431Y3308857D01*
X2559304Y3302507D01*
X2550668Y3297173D01*
X2541270Y3292855D01*
X2531363Y3289807D01*
X2521204Y3288029D01*
G37*
G36*
X2257043Y3287521D02*
G01*
X2246629Y3288029D01*
X2236724Y3289807D01*
X2226818Y3292855D01*
X2217420Y3297173D01*
X2208529Y3302507D01*
X2200656Y3308857D01*
X2193290Y3315970D01*
X2186940Y3324097D01*
X2181606Y3332987D01*
X2177541Y3342386D01*
X2174493Y3352037D01*
X2172461Y3362197D01*
X2171954Y3372357D01*
X2171954Y3532631D01*
X2172461Y3542792D01*
X2174493Y3552952D01*
X2177541Y3562604D01*
X2181606Y3572002D01*
X2186940Y3580892D01*
X2193290Y3589020D01*
X2200656Y3596131D01*
X2208784Y3602481D01*
X2217420Y3607815D01*
X2226818Y3612134D01*
X2236724Y3615181D01*
X2246629Y3616960D01*
X2257043Y3617468D01*
X2267204Y3616960D01*
X2277363Y3615181D01*
X2287270Y3612134D01*
X2296413Y3607815D01*
X2305304Y3602481D01*
X2313431Y3596131D01*
X2320797Y3589020D01*
X2326893Y3580892D01*
X2332227Y3572002D01*
X2336545Y3562604D01*
X2339593Y3552952D01*
X2341372Y3542792D01*
X2342134Y3532631D01*
X2342134Y3372357D01*
X2341372Y3362197D01*
X2339593Y3352037D01*
X2336545Y3342386D01*
X2332227Y3332987D01*
X2326893Y3324097D01*
X2320797Y3315970D01*
X2313431Y3308857D01*
X2305304Y3302507D01*
X2296668Y3297173D01*
X2287270Y3292855D01*
X2277363Y3289807D01*
X2267204Y3288029D01*
G37*
G36*
X2003043Y3287521D02*
G01*
X1992629Y3288029D01*
X1982724Y3289807D01*
X1972818Y3292855D01*
X1963420Y3297173D01*
X1954529Y3302507D01*
X1946656Y3308857D01*
X1939290Y3315970D01*
X1932940Y3324097D01*
X1927605Y3332987D01*
X1923542Y3342386D01*
X1920494Y3352037D01*
X1918462Y3362197D01*
X1917954Y3372357D01*
X1917954Y3532631D01*
X1918462Y3542792D01*
X1920494Y3552952D01*
X1923542Y3562604D01*
X1927605Y3572002D01*
X1932940Y3580892D01*
X1939290Y3589020D01*
X1946656Y3596131D01*
X1954784Y3602481D01*
X1963420Y3607815D01*
X1972818Y3612134D01*
X1982724Y3615181D01*
X1992629Y3616960D01*
X2003043Y3617468D01*
X2013204Y3616960D01*
X2023363Y3615181D01*
X2033270Y3612134D01*
X2042413Y3607815D01*
X2051304Y3602481D01*
X2059431Y3596131D01*
X2066797Y3589020D01*
X2072893Y3580892D01*
X2078227Y3572002D01*
X2082545Y3562604D01*
X2085593Y3552952D01*
X2087372Y3542792D01*
X2088134Y3532631D01*
X2088134Y3372357D01*
X2087372Y3362197D01*
X2085593Y3352037D01*
X2082545Y3342386D01*
X2078227Y3332987D01*
X2072893Y3324097D01*
X2066797Y3315970D01*
X2059431Y3308857D01*
X2051304Y3302507D01*
X2042668Y3297173D01*
X2033270Y3292855D01*
X2023363Y3289807D01*
X2013204Y3288029D01*
G37*
G36*
X1749044Y3287521D02*
G01*
X1738629Y3288029D01*
X1728723Y3289807D01*
X1718818Y3292855D01*
X1709420Y3297173D01*
X1700529Y3302507D01*
X1692655Y3308857D01*
X1685289Y3315970D01*
X1678939Y3324097D01*
X1673605Y3332987D01*
X1669542Y3342386D01*
X1666494Y3352037D01*
X1664462Y3362197D01*
X1663954Y3372357D01*
X1663954Y3532631D01*
X1664462Y3542792D01*
X1666494Y3552952D01*
X1669542Y3562604D01*
X1673605Y3572002D01*
X1678939Y3580892D01*
X1685289Y3589020D01*
X1692655Y3596131D01*
X1700784Y3602481D01*
X1709420Y3607815D01*
X1718818Y3612134D01*
X1728723Y3615181D01*
X1738629Y3616960D01*
X1749044Y3617468D01*
X1759204Y3616960D01*
X1769363Y3615181D01*
X1779270Y3612134D01*
X1788413Y3607815D01*
X1797304Y3602481D01*
X1805431Y3596131D01*
X1812797Y3589020D01*
X1818894Y3580892D01*
X1824228Y3572002D01*
X1828545Y3562604D01*
X1831594Y3552952D01*
X1833371Y3542792D01*
X1834134Y3532631D01*
X1834134Y3372357D01*
X1833371Y3362197D01*
X1831594Y3352037D01*
X1828545Y3342386D01*
X1824228Y3332987D01*
X1818894Y3324097D01*
X1812797Y3315970D01*
X1805431Y3308857D01*
X1797304Y3302507D01*
X1788668Y3297173D01*
X1779270Y3292855D01*
X1769363Y3289807D01*
X1759204Y3288029D01*
G37*
G01*
X1495044Y3452494D03*
G36*
X1241044Y3287521D02*
G01*
X1230884Y3288029D01*
X1220723Y3289807D01*
X1210818Y3292855D01*
X1201420Y3297173D01*
X1192529Y3302507D01*
X1184655Y3308857D01*
X1177289Y3315970D01*
X1170939Y3324097D01*
X1165605Y3332987D01*
X1161542Y3342386D01*
X1158494Y3352037D01*
X1156462Y3362197D01*
X1155954Y3372357D01*
X1155954Y3532631D01*
X1156462Y3542792D01*
X1158494Y3552952D01*
X1161542Y3562604D01*
X1165605Y3572002D01*
X1170939Y3580892D01*
X1177289Y3589020D01*
X1184655Y3596131D01*
X1192784Y3602481D01*
X1201420Y3607815D01*
X1210818Y3612134D01*
X1220723Y3615181D01*
X1230884Y3616960D01*
X1241044Y3617468D01*
X1251204Y3616960D01*
X1261363Y3615181D01*
X1271270Y3612134D01*
X1280413Y3607815D01*
X1289304Y3602481D01*
X1297431Y3596131D01*
X1304797Y3589020D01*
X1310894Y3580892D01*
X1316228Y3572002D01*
X1320545Y3562604D01*
X1323594Y3552952D01*
X1325371Y3542792D01*
X1326134Y3532631D01*
X1326134Y3372357D01*
X1325371Y3362197D01*
X1323594Y3352037D01*
X1320545Y3342386D01*
X1316228Y3332987D01*
X1310894Y3324097D01*
X1304797Y3315970D01*
X1297431Y3308857D01*
X1289304Y3302507D01*
X1280668Y3297173D01*
X1271270Y3292855D01*
X1261363Y3289807D01*
X1251204Y3288029D01*
G37*
G36*
X987044Y3287521D02*
G01*
X976884Y3288029D01*
X966723Y3289807D01*
X956818Y3292855D01*
X947420Y3297173D01*
X938529Y3302507D01*
X930655Y3308857D01*
X923289Y3315970D01*
X916939Y3324097D01*
X911605Y3332987D01*
X907542Y3342386D01*
X904494Y3352037D01*
X902462Y3362197D01*
X901954Y3372357D01*
X901954Y3532631D01*
X902462Y3542792D01*
X904494Y3552952D01*
X907542Y3562604D01*
X911605Y3572002D01*
X916939Y3580892D01*
X923289Y3589020D01*
X930655Y3596131D01*
X938784Y3602481D01*
X947420Y3607815D01*
X956818Y3612134D01*
X966723Y3615181D01*
X976884Y3616960D01*
X987044Y3617468D01*
X997204Y3616960D01*
X1007363Y3615181D01*
X1017270Y3612134D01*
X1026413Y3607815D01*
X1035304Y3602481D01*
X1043431Y3596131D01*
X1050797Y3589020D01*
X1056894Y3580892D01*
X1062228Y3572002D01*
X1066545Y3562604D01*
X1069594Y3552952D01*
X1071371Y3542792D01*
X1072134Y3532631D01*
X1072134Y3372357D01*
X1071371Y3362197D01*
X1069594Y3352037D01*
X1066545Y3342386D01*
X1062228Y3332987D01*
X1056894Y3324097D01*
X1050797Y3315970D01*
X1043431Y3308857D01*
X1035304Y3302507D01*
X1026668Y3297173D01*
X1017270Y3292855D01*
X1007363Y3289807D01*
X997204Y3288029D01*
G37*
G36*
X987044Y1382521D02*
G01*
X976884Y1383029D01*
X966723Y1384807D01*
X956818Y1387855D01*
X947420Y1392173D01*
X938784Y1397507D01*
X930655Y1403857D01*
X923289Y1410970D01*
X916939Y1419097D01*
X911605Y1427987D01*
X907542Y1437386D01*
X904494Y1447037D01*
X902462Y1457197D01*
X901954Y1467357D01*
X901954Y1627631D01*
X902462Y1637792D01*
X904494Y1647952D01*
X907542Y1657604D01*
X911605Y1667002D01*
X916939Y1675892D01*
X923289Y1684020D01*
X930655Y1691131D01*
X938529Y1697481D01*
X947420Y1702815D01*
X956818Y1707134D01*
X966723Y1710181D01*
X976884Y1711960D01*
X987044Y1712468D01*
X997204Y1711960D01*
X1007363Y1710181D01*
X1017270Y1707134D01*
X1026668Y1702815D01*
X1035304Y1697481D01*
X1043431Y1691131D01*
X1050797Y1684020D01*
X1056894Y1675892D01*
X1062228Y1667002D01*
X1066545Y1657604D01*
X1069594Y1647952D01*
X1071371Y1637792D01*
X1072134Y1627631D01*
X1072134Y1467357D01*
X1071371Y1457197D01*
X1069594Y1447037D01*
X1066545Y1437386D01*
X1062228Y1427987D01*
X1056894Y1419097D01*
X1050797Y1410970D01*
X1043431Y1403857D01*
X1035304Y1397507D01*
X1026413Y1392173D01*
X1017270Y1387855D01*
X1007363Y1384807D01*
X997204Y1383029D01*
G37*
G36*
X1241044Y1382521D02*
G01*
X1230884Y1383029D01*
X1220723Y1384807D01*
X1210818Y1387855D01*
X1201420Y1392173D01*
X1192784Y1397507D01*
X1184655Y1403857D01*
X1177289Y1410970D01*
X1170939Y1419097D01*
X1165605Y1427987D01*
X1161542Y1437386D01*
X1158494Y1447037D01*
X1156462Y1457197D01*
X1155954Y1467357D01*
X1155954Y1627631D01*
X1156462Y1637792D01*
X1158494Y1647952D01*
X1161542Y1657604D01*
X1165605Y1667002D01*
X1170939Y1675892D01*
X1177289Y1684020D01*
X1184655Y1691131D01*
X1192529Y1697481D01*
X1201420Y1702815D01*
X1210818Y1707134D01*
X1220723Y1710181D01*
X1230884Y1711960D01*
X1241044Y1712468D01*
X1251204Y1711960D01*
X1261363Y1710181D01*
X1271270Y1707134D01*
X1280668Y1702815D01*
X1289304Y1697481D01*
X1297431Y1691131D01*
X1304797Y1684020D01*
X1310894Y1675892D01*
X1316228Y1667002D01*
X1320545Y1657604D01*
X1323594Y1647952D01*
X1325371Y1637792D01*
X1326134Y1627631D01*
X1326134Y1467357D01*
X1325371Y1457197D01*
X1323594Y1447037D01*
X1320545Y1437386D01*
X1316228Y1427987D01*
X1310894Y1419097D01*
X1304797Y1410970D01*
X1297431Y1403857D01*
X1289304Y1397507D01*
X1280413Y1392173D01*
X1271270Y1387855D01*
X1261363Y1384807D01*
X1251204Y1383029D01*
G37*
G01*
X1495044Y1547494D03*
G36*
X1749044Y1382521D02*
G01*
X1738629Y1383029D01*
X1728723Y1384807D01*
X1718818Y1387855D01*
X1709420Y1392173D01*
X1700784Y1397507D01*
X1692655Y1403857D01*
X1685289Y1410970D01*
X1678939Y1419097D01*
X1673605Y1427987D01*
X1669542Y1437386D01*
X1666494Y1447037D01*
X1664462Y1457197D01*
X1663954Y1467357D01*
X1663954Y1627631D01*
X1664462Y1637792D01*
X1666494Y1647952D01*
X1669542Y1657604D01*
X1673605Y1667002D01*
X1678939Y1675892D01*
X1685289Y1684020D01*
X1692655Y1691131D01*
X1700529Y1697481D01*
X1709420Y1702815D01*
X1718818Y1707134D01*
X1728723Y1710181D01*
X1738629Y1711960D01*
X1749044Y1712468D01*
X1759204Y1711960D01*
X1769363Y1710181D01*
X1779270Y1707134D01*
X1788668Y1702815D01*
X1797304Y1697481D01*
X1805431Y1691131D01*
X1812797Y1684020D01*
X1818894Y1675892D01*
X1824228Y1667002D01*
X1828545Y1657604D01*
X1831594Y1647952D01*
X1833371Y1637792D01*
X1834134Y1627631D01*
X1834134Y1467357D01*
X1833371Y1457197D01*
X1831594Y1447037D01*
X1828545Y1437386D01*
X1824228Y1427987D01*
X1818894Y1419097D01*
X1812797Y1410970D01*
X1805431Y1403857D01*
X1797304Y1397507D01*
X1788413Y1392173D01*
X1779270Y1387855D01*
X1769363Y1384807D01*
X1759204Y1383029D01*
G37*
G36*
X2003043Y1382521D02*
G01*
X1992629Y1383029D01*
X1982724Y1384807D01*
X1972818Y1387855D01*
X1963420Y1392173D01*
X1954784Y1397507D01*
X1946656Y1403857D01*
X1939290Y1410970D01*
X1932940Y1419097D01*
X1927605Y1427987D01*
X1923542Y1437386D01*
X1920494Y1447037D01*
X1918462Y1457197D01*
X1917954Y1467357D01*
X1917954Y1627631D01*
X1918462Y1637792D01*
X1920494Y1647952D01*
X1923542Y1657604D01*
X1927605Y1667002D01*
X1932940Y1675892D01*
X1939290Y1684020D01*
X1946656Y1691131D01*
X1954529Y1697481D01*
X1963420Y1702815D01*
X1972818Y1707134D01*
X1982724Y1710181D01*
X1992629Y1711960D01*
X2003043Y1712468D01*
X2013204Y1711960D01*
X2023363Y1710181D01*
X2033270Y1707134D01*
X2042668Y1702815D01*
X2051304Y1697481D01*
X2059431Y1691131D01*
X2066797Y1684020D01*
X2072893Y1675892D01*
X2078227Y1667002D01*
X2082545Y1657604D01*
X2085593Y1647952D01*
X2087372Y1637792D01*
X2088134Y1627631D01*
X2088134Y1467357D01*
X2087372Y1457197D01*
X2085593Y1447037D01*
X2082545Y1437386D01*
X2078227Y1427987D01*
X2072893Y1419097D01*
X2066797Y1410970D01*
X2059431Y1403857D01*
X2051304Y1397507D01*
X2042413Y1392173D01*
X2033270Y1387855D01*
X2023363Y1384807D01*
X2013204Y1383029D01*
G37*
G36*
X2257043Y1382521D02*
G01*
X2246629Y1383029D01*
X2236724Y1384807D01*
X2226818Y1387855D01*
X2217420Y1392173D01*
X2208784Y1397507D01*
X2200656Y1403857D01*
X2193290Y1410970D01*
X2186940Y1419097D01*
X2181606Y1427987D01*
X2177541Y1437386D01*
X2174493Y1447037D01*
X2172461Y1457197D01*
X2171954Y1467357D01*
X2171954Y1627631D01*
X2172461Y1637792D01*
X2174493Y1647952D01*
X2177541Y1657604D01*
X2181606Y1667002D01*
X2186940Y1675892D01*
X2193290Y1684020D01*
X2200656Y1691131D01*
X2208529Y1697481D01*
X2217420Y1702815D01*
X2226818Y1707134D01*
X2236724Y1710181D01*
X2246629Y1711960D01*
X2257043Y1712468D01*
X2267204Y1711960D01*
X2277363Y1710181D01*
X2287270Y1707134D01*
X2296668Y1702815D01*
X2305304Y1697481D01*
X2313431Y1691131D01*
X2320797Y1684020D01*
X2326893Y1675892D01*
X2332227Y1667002D01*
X2336545Y1657604D01*
X2339593Y1647952D01*
X2341372Y1637792D01*
X2342134Y1627631D01*
X2342134Y1467357D01*
X2341372Y1457197D01*
X2339593Y1447037D01*
X2336545Y1437386D01*
X2332227Y1427987D01*
X2326893Y1419097D01*
X2320797Y1410970D01*
X2313431Y1403857D01*
X2305304Y1397507D01*
X2296413Y1392173D01*
X2287270Y1387855D01*
X2277363Y1384807D01*
X2267204Y1383029D01*
G37*
G36*
X2511043Y1382521D02*
G01*
X2500629Y1383029D01*
X2490724Y1384807D01*
X2480818Y1387855D01*
X2471420Y1392173D01*
X2462784Y1397507D01*
X2454656Y1403857D01*
X2447290Y1410970D01*
X2440940Y1419097D01*
X2435606Y1427987D01*
X2431541Y1437386D01*
X2428493Y1447037D01*
X2426461Y1457197D01*
X2425954Y1467357D01*
X2425954Y1627631D01*
X2426461Y1637792D01*
X2428493Y1647952D01*
X2431541Y1657604D01*
X2435606Y1667002D01*
X2440940Y1675892D01*
X2447290Y1684020D01*
X2454656Y1691131D01*
X2462784Y1697481D01*
X2471420Y1702815D01*
X2480818Y1707134D01*
X2490724Y1710181D01*
X2500629Y1711960D01*
X2511043Y1712468D01*
X2521204Y1711960D01*
X2531363Y1710181D01*
X2541270Y1707134D01*
X2550668Y1702815D01*
X2559304Y1697481D01*
X2567431Y1691131D01*
X2574797Y1684020D01*
X2580893Y1675892D01*
X2586227Y1667002D01*
X2590545Y1657604D01*
X2593593Y1647952D01*
X2595372Y1637792D01*
X2596134Y1627631D01*
X2596134Y1467357D01*
X2595372Y1457197D01*
X2593593Y1447037D01*
X2590545Y1437386D01*
X2586227Y1427987D01*
X2580893Y1419097D01*
X2574797Y1410970D01*
X2567431Y1403857D01*
X2559304Y1397507D01*
X2550413Y1392173D01*
X2541270Y1387855D01*
X2531363Y1384807D01*
X2521204Y1383029D01*
G37*
G01*
X2765044Y1547494D03*
G36*
X3019043Y1382521D02*
G01*
X3008629Y1383029D01*
X2998724Y1384807D01*
X2988818Y1387855D01*
X2979420Y1392173D01*
X2970784Y1397507D01*
X2962656Y1403857D01*
X2955290Y1410970D01*
X2948940Y1419097D01*
X2943606Y1427987D01*
X2939541Y1437386D01*
X2936493Y1447037D01*
X2934461Y1457197D01*
X2933954Y1467357D01*
X2933954Y1627631D01*
X2934461Y1637792D01*
X2936493Y1647952D01*
X2939541Y1657604D01*
X2943606Y1667002D01*
X2948940Y1675892D01*
X2955290Y1684020D01*
X2962656Y1691131D01*
X2970784Y1697481D01*
X2979420Y1702815D01*
X2988818Y1707134D01*
X2998724Y1710181D01*
X3008629Y1711960D01*
X3019043Y1712468D01*
X3029204Y1711960D01*
X3039363Y1710181D01*
X3049270Y1707134D01*
X3058668Y1702815D01*
X3067304Y1697481D01*
X3075431Y1691131D01*
X3082797Y1684020D01*
X3088893Y1675892D01*
X3094227Y1667002D01*
X3098545Y1657604D01*
X3101593Y1647952D01*
X3103372Y1637792D01*
X3104134Y1627631D01*
X3104134Y1467357D01*
X3103372Y1457197D01*
X3101593Y1447037D01*
X3098545Y1437386D01*
X3094227Y1427987D01*
X3088893Y1419097D01*
X3082797Y1410970D01*
X3075431Y1403857D01*
X3067304Y1397507D01*
X3058413Y1392173D01*
X3049270Y1387855D01*
X3039363Y1384807D01*
X3029204Y1383029D01*
G37*
G36*
X3273043Y1382521D02*
G01*
X3262629Y1383029D01*
X3252724Y1384807D01*
X3242818Y1387855D01*
X3233420Y1392173D01*
X3224784Y1397507D01*
X3216656Y1403857D01*
X3209290Y1410970D01*
X3202940Y1419097D01*
X3197606Y1427987D01*
X3193541Y1437386D01*
X3190493Y1447037D01*
X3188461Y1457197D01*
X3187954Y1467357D01*
X3187954Y1627631D01*
X3188461Y1637792D01*
X3190493Y1647952D01*
X3193541Y1657604D01*
X3197606Y1667002D01*
X3202940Y1675892D01*
X3209290Y1684020D01*
X3216656Y1691131D01*
X3224784Y1697481D01*
X3233420Y1702815D01*
X3242818Y1707134D01*
X3252724Y1710181D01*
X3262629Y1711960D01*
X3273043Y1712468D01*
X3283204Y1711960D01*
X3293363Y1710181D01*
X3303270Y1707134D01*
X3312668Y1702815D01*
X3321304Y1697481D01*
X3329431Y1691131D01*
X3336797Y1684020D01*
X3342893Y1675892D01*
X3348227Y1667002D01*
X3352545Y1657604D01*
X3355593Y1647952D01*
X3357372Y1637792D01*
X3358134Y1627631D01*
X3358134Y1467357D01*
X3357372Y1457197D01*
X3355593Y1447037D01*
X3352545Y1437386D01*
X3348227Y1427987D01*
X3342893Y1419097D01*
X3336797Y1410970D01*
X3329431Y1403857D01*
X3321304Y1397507D01*
X3312413Y1392173D01*
X3303270Y1387855D01*
X3293363Y1384807D01*
X3283204Y1383029D01*
G37*
G36*
X3527043Y1382521D02*
G01*
X3516629Y1383029D01*
X3506724Y1384807D01*
X3496818Y1387855D01*
X3487420Y1392173D01*
X3478784Y1397507D01*
X3470656Y1403857D01*
X3463290Y1410970D01*
X3456940Y1419097D01*
X3451606Y1427987D01*
X3447541Y1437386D01*
X3444493Y1447037D01*
X3442461Y1457197D01*
X3441954Y1467357D01*
X3441954Y1627631D01*
X3442461Y1637792D01*
X3444493Y1647952D01*
X3447541Y1657604D01*
X3451606Y1667002D01*
X3456940Y1675892D01*
X3463290Y1684020D01*
X3470656Y1691131D01*
X3478784Y1697481D01*
X3487420Y1702815D01*
X3496818Y1707134D01*
X3506724Y1710181D01*
X3516629Y1711960D01*
X3527043Y1712468D01*
X3537204Y1711960D01*
X3547363Y1710181D01*
X3557270Y1707134D01*
X3566668Y1702815D01*
X3575304Y1697481D01*
X3583431Y1691131D01*
X3590543Y1684020D01*
X3596893Y1675892D01*
X3602227Y1667002D01*
X3606545Y1657604D01*
X3609593Y1647952D01*
X3611372Y1637792D01*
X3612134Y1627631D01*
X3612134Y1467357D01*
X3611372Y1457197D01*
X3609593Y1447037D01*
X3606545Y1437386D01*
X3602227Y1427987D01*
X3596893Y1419097D01*
X3590543Y1410970D01*
X3583431Y1403857D01*
X3575304Y1397507D01*
X3566413Y1392173D01*
X3557270Y1387855D01*
X3547363Y1384807D01*
X3537204Y1383029D01*
G37*
G36*
X3781043Y1382521D02*
G01*
X3770629Y1383029D01*
X3760724Y1384807D01*
X3750818Y1387855D01*
X3741420Y1392173D01*
X3732784Y1397507D01*
X3724656Y1403857D01*
X3717290Y1410970D01*
X3710940Y1419097D01*
X3705606Y1427987D01*
X3701541Y1437386D01*
X3698493Y1447037D01*
X3696461Y1457197D01*
X3695954Y1467357D01*
X3695954Y1627631D01*
X3696461Y1637792D01*
X3698493Y1647952D01*
X3701541Y1657604D01*
X3705606Y1667002D01*
X3710940Y1675892D01*
X3717290Y1684020D01*
X3724656Y1691131D01*
X3732784Y1697481D01*
X3741420Y1702815D01*
X3750818Y1707134D01*
X3760724Y1710181D01*
X3770629Y1711960D01*
X3781043Y1712468D01*
X3791204Y1711960D01*
X3801363Y1710181D01*
X3811270Y1707134D01*
X3820668Y1702815D01*
X3829304Y1697481D01*
X3837431Y1691131D01*
X3844543Y1684020D01*
X3850893Y1675892D01*
X3856227Y1667002D01*
X3860545Y1657604D01*
X3863593Y1647952D01*
X3865372Y1637792D01*
X3866134Y1627631D01*
X3866134Y1467357D01*
X3865372Y1457197D01*
X3863593Y1447037D01*
X3860545Y1437386D01*
X3856227Y1427987D01*
X3850893Y1419097D01*
X3844543Y1410970D01*
X3837431Y1403857D01*
X3829304Y1397507D01*
X3820413Y1392173D01*
X3811270Y1387855D01*
X3801363Y1384807D01*
X3791204Y1383029D01*
G37*
G01*
X4035044Y1547494D03*
G36*
X4289043Y1382521D02*
G01*
X4278629Y1383029D01*
X4268724Y1384807D01*
X4258818Y1387855D01*
X4249420Y1392173D01*
X4240784Y1397507D01*
X4232656Y1403857D01*
X4225290Y1410970D01*
X4218940Y1419097D01*
X4213606Y1427987D01*
X4209541Y1437386D01*
X4206493Y1447037D01*
X4204461Y1457197D01*
X4203954Y1467357D01*
X4203954Y1627631D01*
X4204461Y1637792D01*
X4206493Y1647952D01*
X4209541Y1657604D01*
X4213606Y1667002D01*
X4218940Y1675892D01*
X4225290Y1684020D01*
X4232656Y1691131D01*
X4240784Y1697481D01*
X4249420Y1702815D01*
X4258818Y1707134D01*
X4268724Y1710181D01*
X4278629Y1711960D01*
X4289043Y1712468D01*
X4299204Y1711960D01*
X4309363Y1710181D01*
X4319270Y1707134D01*
X4328668Y1702815D01*
X4337304Y1697481D01*
X4345431Y1691131D01*
X4352543Y1684020D01*
X4358893Y1675892D01*
X4364227Y1667002D01*
X4368545Y1657604D01*
X4371593Y1647952D01*
X4373372Y1637792D01*
X4374134Y1627631D01*
X4374134Y1467357D01*
X4373372Y1457197D01*
X4371593Y1447037D01*
X4368545Y1437386D01*
X4364227Y1427987D01*
X4358893Y1419097D01*
X4352543Y1410970D01*
X4345431Y1403857D01*
X4337304Y1397507D01*
X4328413Y1392173D01*
X4319270Y1387855D01*
X4309363Y1384807D01*
X4299204Y1383029D01*
G37*
G36*
X4543043Y1382521D02*
G01*
X4532629Y1383029D01*
X4522724Y1384807D01*
X4512818Y1387855D01*
X4503420Y1392173D01*
X4494784Y1397507D01*
X4486656Y1403857D01*
X4479290Y1410970D01*
X4472940Y1419097D01*
X4467606Y1427987D01*
X4463541Y1437386D01*
X4460493Y1447037D01*
X4458461Y1457197D01*
X4457954Y1467357D01*
X4457954Y1627631D01*
X4458461Y1637792D01*
X4460493Y1647952D01*
X4463541Y1657604D01*
X4467606Y1667002D01*
X4472940Y1675892D01*
X4479290Y1684020D01*
X4486656Y1691131D01*
X4494784Y1697481D01*
X4503420Y1702815D01*
X4512818Y1707134D01*
X4522724Y1710181D01*
X4532629Y1711960D01*
X4543043Y1712468D01*
X4553204Y1711960D01*
X4563363Y1710181D01*
X4573270Y1707134D01*
X4582668Y1702815D01*
X4591304Y1697481D01*
X4599431Y1691131D01*
X4606543Y1684020D01*
X4612893Y1675892D01*
X4618227Y1667002D01*
X4622545Y1657604D01*
X4625593Y1647952D01*
X4627372Y1637792D01*
X4628134Y1627631D01*
X4628134Y1467357D01*
X4627372Y1457197D01*
X4625593Y1447037D01*
X4622545Y1437386D01*
X4618227Y1427987D01*
X4612893Y1419097D01*
X4606543Y1410970D01*
X4599431Y1403857D01*
X4591304Y1397507D01*
X4582413Y1392173D01*
X4573270Y1387855D01*
X4563363Y1384807D01*
X4553204Y1383029D01*
G37*
G36*
X4797043Y1382521D02*
G01*
X4786629Y1383029D01*
X4776724Y1384807D01*
X4766818Y1387855D01*
X4757420Y1392173D01*
X4748784Y1397507D01*
X4740656Y1403857D01*
X4733290Y1410970D01*
X4726940Y1419097D01*
X4721606Y1427987D01*
X4717541Y1437386D01*
X4714493Y1447037D01*
X4712461Y1457197D01*
X4711954Y1467357D01*
X4711954Y1627631D01*
X4712461Y1637792D01*
X4714493Y1647952D01*
X4717541Y1657604D01*
X4721606Y1667002D01*
X4726940Y1675892D01*
X4733290Y1684020D01*
X4740656Y1691131D01*
X4748784Y1697481D01*
X4757420Y1702815D01*
X4766818Y1707134D01*
X4776724Y1710181D01*
X4786629Y1711960D01*
X4797043Y1712468D01*
X4807204Y1711960D01*
X4817363Y1710181D01*
X4827270Y1707134D01*
X4836668Y1702815D01*
X4845304Y1697481D01*
X4853431Y1691131D01*
X4860543Y1684020D01*
X4866893Y1675892D01*
X4872227Y1667002D01*
X4876545Y1657604D01*
X4879593Y1647952D01*
X4881372Y1637792D01*
X4882134Y1627631D01*
X4882134Y1467357D01*
X4881372Y1457197D01*
X4879593Y1447037D01*
X4876545Y1437386D01*
X4872227Y1427987D01*
X4866893Y1419097D01*
X4860543Y1410970D01*
X4853431Y1403857D01*
X4845304Y1397507D01*
X4836413Y1392173D01*
X4827270Y1387855D01*
X4817363Y1384807D01*
X4807204Y1383029D01*
G37*
G36*
X5051043Y1382521D02*
G01*
X5040629Y1383029D01*
X5030724Y1384807D01*
X5020818Y1387855D01*
X5011420Y1392173D01*
X5002784Y1397507D01*
X4994656Y1403857D01*
X4987290Y1410970D01*
X4980940Y1419097D01*
X4975606Y1427987D01*
X4971541Y1437386D01*
X4968493Y1447037D01*
X4966461Y1457197D01*
X4965954Y1467357D01*
X4965954Y1627631D01*
X4966461Y1637792D01*
X4968493Y1647952D01*
X4971541Y1657604D01*
X4975606Y1667002D01*
X4980940Y1675892D01*
X4987290Y1684020D01*
X4994656Y1691131D01*
X5002784Y1697481D01*
X5011420Y1702815D01*
X5020818Y1707134D01*
X5030724Y1710181D01*
X5040629Y1711960D01*
X5051043Y1712468D01*
X5061204Y1711960D01*
X5071363Y1710181D01*
X5081270Y1707134D01*
X5090668Y1702815D01*
X5099304Y1697481D01*
X5107431Y1691131D01*
X5114543Y1684020D01*
X5120893Y1675892D01*
X5126227Y1667002D01*
X5130545Y1657604D01*
X5133593Y1647952D01*
X5135372Y1637792D01*
X5136134Y1627631D01*
X5136134Y1467357D01*
X5135372Y1457197D01*
X5133593Y1447037D01*
X5130545Y1437386D01*
X5126227Y1427987D01*
X5120893Y1419097D01*
X5114543Y1410970D01*
X5107431Y1403857D01*
X5099304Y1397507D01*
X5090413Y1392173D01*
X5081270Y1387855D01*
X5071363Y1384807D01*
X5061204Y1383029D01*
G37*
G01*
X5305044Y1547494D03*
G36*
X5559043Y1382521D02*
G01*
X5548629Y1383029D01*
X5538724Y1384807D01*
X5528818Y1387855D01*
X5519420Y1392173D01*
X5510784Y1397507D01*
X5502656Y1403857D01*
X5495290Y1410970D01*
X5488940Y1419097D01*
X5483606Y1427987D01*
X5479541Y1437386D01*
X5476493Y1447037D01*
X5474461Y1457197D01*
X5473954Y1467357D01*
X5473954Y1627631D01*
X5474461Y1637792D01*
X5476493Y1647952D01*
X5479541Y1657604D01*
X5483606Y1667002D01*
X5488940Y1675892D01*
X5495290Y1684020D01*
X5502656Y1691131D01*
X5510784Y1697481D01*
X5519420Y1702815D01*
X5528818Y1707134D01*
X5538724Y1710181D01*
X5548629Y1711960D01*
X5559043Y1712468D01*
X5569204Y1711960D01*
X5579363Y1710181D01*
X5589270Y1707134D01*
X5598668Y1702815D01*
X5607304Y1697481D01*
X5615431Y1691131D01*
X5622543Y1684020D01*
X5628893Y1675892D01*
X5634227Y1667002D01*
X5638545Y1657604D01*
X5641593Y1647952D01*
X5643372Y1637792D01*
X5644134Y1627631D01*
X5644134Y1467357D01*
X5643372Y1457197D01*
X5641593Y1447037D01*
X5638545Y1437386D01*
X5634227Y1427987D01*
X5628893Y1419097D01*
X5622543Y1410970D01*
X5615431Y1403857D01*
X5607304Y1397507D01*
X5598413Y1392173D01*
X5589270Y1387855D01*
X5579363Y1384807D01*
X5569204Y1383029D01*
G37*
G36*
X5813043Y1382521D02*
G01*
X5802629Y1383029D01*
X5792724Y1384807D01*
X5782818Y1387855D01*
X5773420Y1392173D01*
X5764784Y1397507D01*
X5756656Y1403857D01*
X5749290Y1410970D01*
X5742940Y1419097D01*
X5737606Y1427987D01*
X5733541Y1437386D01*
X5730493Y1447037D01*
X5728461Y1457197D01*
X5727954Y1467357D01*
X5727954Y1627631D01*
X5728461Y1637792D01*
X5730493Y1647952D01*
X5733541Y1657604D01*
X5737606Y1667002D01*
X5742940Y1675892D01*
X5749290Y1684020D01*
X5756656Y1691131D01*
X5764784Y1697481D01*
X5773420Y1702815D01*
X5782818Y1707134D01*
X5792724Y1710181D01*
X5802629Y1711960D01*
X5813043Y1712468D01*
X5823204Y1711960D01*
X5833363Y1710181D01*
X5843270Y1707134D01*
X5852668Y1702815D01*
X5861304Y1697481D01*
X5869431Y1691131D01*
X5876543Y1684020D01*
X5882893Y1675892D01*
X5888227Y1667002D01*
X5892545Y1657604D01*
X5895593Y1647952D01*
X5897372Y1637792D01*
X5898134Y1627631D01*
X5898134Y1467357D01*
X5897372Y1457197D01*
X5895593Y1447037D01*
X5892545Y1437386D01*
X5888227Y1427987D01*
X5882893Y1419097D01*
X5876543Y1410970D01*
X5869431Y1403857D01*
X5861304Y1397507D01*
X5852413Y1392173D01*
X5843270Y1387855D01*
X5833363Y1384807D01*
X5823204Y1383029D01*
G37*
G36*
X906779Y2414778D02*
G01*
X896620Y2415539D01*
X886713Y2417318D01*
X876807Y2420365D01*
X867410Y2424684D01*
X858773Y2430018D01*
X850645Y2436368D01*
X843279Y2443479D01*
X836929Y2451607D01*
X831595Y2460497D01*
X827531Y2469895D01*
X824484Y2479547D01*
X822452Y2489707D01*
X821944Y2499868D01*
X822452Y2510281D01*
X824484Y2520442D01*
X827531Y2530094D01*
X831595Y2539492D01*
X836929Y2548381D01*
X843279Y2556510D01*
X850645Y2563621D01*
X858773Y2569971D01*
X867410Y2575305D01*
X876807Y2579623D01*
X886713Y2582671D01*
X896620Y2584450D01*
X906779Y2584957D01*
X1067054Y2584957D01*
X1077213Y2584450D01*
X1087373Y2582671D01*
X1097279Y2579623D01*
X1106423Y2575305D01*
X1115313Y2569971D01*
X1123442Y2563621D01*
X1130554Y2556510D01*
X1136904Y2548381D01*
X1142237Y2539492D01*
X1146555Y2530094D01*
X1149604Y2520442D01*
X1151381Y2510281D01*
X1152144Y2499868D01*
X1151381Y2489707D01*
X1149604Y2479547D01*
X1146555Y2469895D01*
X1142237Y2460497D01*
X1136904Y2451607D01*
X1130554Y2443479D01*
X1123442Y2436368D01*
X1115313Y2430018D01*
X1106423Y2424684D01*
X1097279Y2420365D01*
X1087373Y2417318D01*
X1077213Y2415539D01*
X1067054Y2414778D01*
G37*
G36*
X906779Y2160778D02*
G01*
X896620Y2161539D01*
X886713Y2163318D01*
X876807Y2166365D01*
X867410Y2170684D01*
X858773Y2176018D01*
X850645Y2182368D01*
X843279Y2189479D01*
X836929Y2197607D01*
X831595Y2206497D01*
X827531Y2215895D01*
X824484Y2225547D01*
X822452Y2235707D01*
X821944Y2245868D01*
X822452Y2256281D01*
X824484Y2266442D01*
X827531Y2276094D01*
X831595Y2285492D01*
X836929Y2294381D01*
X843279Y2302510D01*
X850645Y2309621D01*
X858773Y2315971D01*
X867410Y2321305D01*
X876807Y2325623D01*
X886713Y2328671D01*
X896620Y2330450D01*
X906779Y2330957D01*
X1067054Y2330957D01*
X1077213Y2330450D01*
X1087373Y2328671D01*
X1097279Y2325623D01*
X1106423Y2321305D01*
X1115313Y2315971D01*
X1123442Y2309621D01*
X1130554Y2302510D01*
X1136904Y2294381D01*
X1142237Y2285492D01*
X1146555Y2276094D01*
X1149604Y2266442D01*
X1151381Y2256281D01*
X1152144Y2245868D01*
X1151381Y2235707D01*
X1149604Y2225547D01*
X1146555Y2215895D01*
X1142237Y2206497D01*
X1136904Y2197607D01*
X1130554Y2189479D01*
X1123442Y2182368D01*
X1115313Y2176018D01*
X1106423Y2170684D01*
X1097279Y2166365D01*
X1087373Y2163318D01*
X1077213Y2161539D01*
X1067054Y2160778D01*
G37*
G36*
X906779Y2668778D02*
G01*
X896620Y2669539D01*
X886713Y2671318D01*
X876807Y2674365D01*
X867410Y2678684D01*
X858773Y2684018D01*
X850645Y2690368D01*
X843279Y2697479D01*
X836929Y2705607D01*
X831595Y2714497D01*
X827531Y2723895D01*
X824484Y2733547D01*
X822452Y2743707D01*
X821944Y2753868D01*
X822452Y2764281D01*
X824484Y2774442D01*
X827531Y2784094D01*
X831595Y2793492D01*
X836929Y2802381D01*
X843279Y2810510D01*
X850645Y2817621D01*
X858773Y2823971D01*
X867410Y2829305D01*
X876807Y2833623D01*
X886713Y2836671D01*
X896620Y2838450D01*
X906779Y2838957D01*
X1067054Y2838957D01*
X1077213Y2838450D01*
X1087373Y2836671D01*
X1097279Y2833623D01*
X1106423Y2829305D01*
X1115313Y2823971D01*
X1123442Y2817621D01*
X1130554Y2810510D01*
X1136904Y2802381D01*
X1142237Y2793492D01*
X1146555Y2784094D01*
X1149604Y2774442D01*
X1151381Y2764281D01*
X1152144Y2753868D01*
X1151381Y2743707D01*
X1149604Y2733547D01*
X1146555Y2723895D01*
X1142237Y2714497D01*
X1136904Y2705607D01*
X1130554Y2697479D01*
X1123442Y2690368D01*
X1115313Y2684018D01*
X1106423Y2678684D01*
X1097279Y2674365D01*
X1087373Y2671318D01*
X1077213Y2669539D01*
X1067054Y2668778D01*
G37*
M02*
