G04 Layer: TopSolderMaskLayer*
G04 EasyEDA v6.5.20, 2023-08-22 23:15:59*
G04 a67cddfb3fce44daa9051d46cbbcc19f,10*
G04 Gerber Generator version 0.2*
G04 Scale: 100 percent, Rotated: No, Reflected: No *
G04 Dimensions in millimeters *
G04 leading zeros omitted , absolute positions ,4 integer and 5 decimal *
%FSLAX45Y45*%
%MOMM*%

%AMMACRO1*1,1,$1,$2,$3*1,1,$1,$4,$5*1,1,$1,0-$2,0-$3*1,1,$1,0-$4,0-$5*20,1,$1,$2,$3,$4,$5,0*20,1,$1,$4,$5,0-$2,0-$3,0*20,1,$1,0-$2,0-$3,0-$4,0-$5,0*20,1,$1,0-$4,0-$5,$2,$3,0*4,1,4,$2,$3,$4,$5,0-$2,0-$3,0-$4,0-$5,$2,$3,0*%
%ADD10MACRO1,0.1016X-0.4032X-0.432X-0.4032X0.432*%
%ADD11MACRO1,0.1016X0.4032X-0.432X0.4032X0.432*%
%ADD12MACRO1,0.1016X0.4032X0.432X0.4032X-0.432*%
%ADD13MACRO1,0.1016X-0.4032X0.432X-0.4032X-0.432*%
%ADD14MACRO1,0.1016X0.45X0.5X0.45X-0.5*%
%ADD15MACRO1,0.1016X-0.45X-0.5X-0.45X0.5*%
%ADD16MACRO1,0.1016X-0.625X0.35X0.625X0.35*%
%ADD17MACRO1,0.1016X0.625X-0.35X-0.625X-0.35*%

%LPD*%
D10*
G01*
X2325256Y3999992D03*
D11*
G01*
X2174607Y3999992D03*
D10*
G01*
X2325256Y3499865D03*
D11*
G01*
X2174607Y3499865D03*
D10*
G01*
X2325256Y2999994D03*
D11*
G01*
X2174607Y2999994D03*
D10*
G01*
X2325256Y1999996D03*
D11*
G01*
X2174607Y1999996D03*
D10*
G01*
X2325256Y1499869D03*
D11*
G01*
X2174607Y1499869D03*
D10*
G01*
X2325256Y999997D03*
D11*
G01*
X2174607Y999997D03*
D12*
G01*
X2674733Y3999992D03*
D13*
G01*
X2825382Y3999992D03*
D12*
G01*
X2674733Y3499865D03*
D13*
G01*
X2825382Y3499865D03*
D12*
G01*
X2674733Y2999994D03*
D13*
G01*
X2825382Y2999994D03*
D12*
G01*
X2674733Y1999996D03*
D13*
G01*
X2825382Y1999996D03*
D12*
G01*
X2674733Y1499869D03*
D13*
G01*
X2825382Y1499869D03*
D12*
G01*
X2674733Y999997D03*
D13*
G01*
X2825382Y999997D03*
D14*
G01*
X1684987Y1999996D03*
G01*
X1514988Y1999996D03*
G01*
X1684987Y1499996D03*
G01*
X1514988Y1499996D03*
G01*
X1684987Y999997D03*
G01*
X1514988Y999997D03*
D15*
G01*
X3315002Y3999992D03*
G01*
X3485001Y3999992D03*
G01*
X3315002Y3499993D03*
G01*
X3485001Y3499993D03*
G01*
X3315002Y2999994D03*
G01*
X3485001Y2999994D03*
G01*
X3315002Y1999996D03*
G01*
X3485001Y1999996D03*
G01*
X3315002Y1499996D03*
G01*
X3485001Y1499996D03*
G01*
X3315002Y999997D03*
G01*
X3485001Y999997D03*
D16*
G01*
X899998Y1805000D03*
G01*
X899998Y1994990D03*
G01*
X699998Y1899994D03*
G01*
X899998Y805002D03*
G01*
X899998Y994992D03*
G01*
X699998Y899996D03*
D14*
G01*
X1684987Y3999992D03*
G01*
X1514988Y3999992D03*
G01*
X1684987Y3499993D03*
G01*
X1514988Y3499993D03*
G01*
X1684987Y2999994D03*
G01*
X1514988Y2999994D03*
D16*
G01*
X899998Y3804996D03*
G01*
X899998Y3994986D03*
G01*
X699998Y3899990D03*
G01*
X899998Y3304997D03*
G01*
X899998Y3494987D03*
G01*
X699998Y3399991D03*
G01*
X899998Y2804998D03*
G01*
X899998Y2994988D03*
G01*
X699998Y2899992D03*
D17*
G01*
X4099991Y4194987D03*
G01*
X4099991Y4004997D03*
G01*
X4299991Y4099993D03*
G01*
X4099991Y3694988D03*
G01*
X4099991Y3504998D03*
G01*
X4299991Y3599994D03*
G01*
X4099991Y3194989D03*
G01*
X4099991Y3004999D03*
G01*
X4299991Y3099995D03*
G01*
X4099991Y2194991D03*
G01*
X4099991Y2005001D03*
G01*
X4299991Y2099997D03*
G01*
X4099991Y1694992D03*
G01*
X4099991Y1505002D03*
G01*
X4299991Y1599998D03*
G01*
X4099991Y1194993D03*
G01*
X4099991Y1005003D03*
G01*
X4299991Y1099999D03*
D16*
G01*
X899998Y1305001D03*
G01*
X899998Y1494991D03*
G01*
X699998Y1399995D03*
M02*
